#N canvas 810 23 597 752 12;
#X obj 813 216 inlet;
#X obj 1259 172 inlet;
#X text 811 184 Fadein;
#X text 1256 138 Fadeout;
#X text 1719 432 ...;
#X obj 937 696 line;
#X obj 937 656 pack \$1 \$2;
#X obj 937 578 t f b;
#X obj 1004 616 f;
#X obj 937 428 random;
#X floatatom 1048 648 5 0 0 0 - - -, f 5;
#X obj 936 330 metro;
#X floatatom 1115 150 5 0 0 0 - - -, f 5;
#X obj 1115 116 r mixDuration;
#X obj 937 773 s f\$1 \$2;
#X msg 708 289 stop;
#X obj 708 249 r mixStop;
#X obj 1204 243 t b b;
#X msg 1162 288 stop;
#X obj 1214 649 pack;
#X obj 976 360 r mPrst\$1;
#X obj 797 632 r bringZero;
#X msg 797 661 0;
#X text 948 209 This is a multiplier that makes the fader rest on a
value rather than skipping right to the next one., f 21;
#X obj 1115 248 * 1.3;
#X obj 937 516 +;
#X obj 955 488 r add\$1;
#X floatatom 937 551 5 0 0 0 - - -, f 5;
#X floatatom 976 397 5 0 0 0 - - -, f 5;
#X obj 923 140 bng 15 250 50 0 empty empty empty 17 7 0 10 -262144
-1 -1;
#X obj 938 741 / 126;
#X connect 0 0 11 0;
#X connect 1 0 17 0;
#X connect 5 0 30 0;
#X connect 6 0 5 0;
#X connect 7 0 6 0;
#X connect 7 1 8 0;
#X connect 8 0 6 1;
#X connect 9 0 25 0;
#X connect 10 0 5 0;
#X connect 11 0 9 0;
#X connect 12 0 8 1;
#X connect 12 0 19 1;
#X connect 12 0 24 0;
#X connect 13 0 12 0;
#X connect 15 0 5 0;
#X connect 15 0 11 0;
#X connect 16 0 15 0;
#X connect 17 0 19 0;
#X connect 17 1 18 0;
#X connect 18 0 11 0;
#X connect 19 0 5 0;
#X connect 20 0 10 0;
#X connect 20 0 28 0;
#X connect 21 0 22 0;
#X connect 22 0 5 0;
#X connect 24 0 11 1;
#X connect 25 0 27 0;
#X connect 26 0 25 1;
#X connect 27 0 7 0;
#X connect 28 0 9 1;
#X connect 29 0 11 0;
#X connect 30 0 14 0;
