#N canvas 337 128 849 671 12;
#X obj 758 352 s toggle;
#X obj 598 350 s musictoggle;
#X msg 857 568 1;
#X msg 803 568 0;
#X obj 803 614 tgl 37 0 empty empty empty 17 7 0 10 #fcfcfc #000000
#000000 0 1;
#X text 863 417 This checks if the sun is up on program startup. If
is not up \, then it should start to play the night track \, not the
day tracks., f 27;
#X obj 896 550 print Sun was already up on startup;
#X obj 901 579 print Still night out up on startup;
#X obj 461 239 s z;
#X text 205 1061 ...;
#X obj 243 236 udpsend;
#X msg 344 117 disconnect;
#X obj 243 204 packOSC;
#X text 163 86 SENDING;
#X obj 225 50 loadbang;
#X obj 52 52 receive mp3gate;
#X obj 581 101 unpackOSC;
#X obj 581 69 udpreceive 9999;
#X text 579 46 RECEIVING;
#X obj 790 128 routeOSC /socketio;
#X obj 790 162 unpack 0 0;
#X obj 790 202 nbx 5 14 -1e+37 1e+37 0 0 empty empty empty 0 -8 0 10
#fcfcfc #000000 #000000 0 256;
#X obj 856 202 nbx 5 14 -1e+37 1e+37 0 0 empty empty empty 0 -8 0 10
#fcfcfc #000000 #000000 0 256;
#X msg 357 54 connect 0.0.0.0 9998;
#X msg 52 87 /mp3gate \$1;
#X obj 758 278 routeOSC /mute;
#X obj 758 315 unpack f;
#X obj 599 315 unpack f;
#X obj 599 278 routeOSC /musictoggle;
#X obj 461 206 unpack f;
#X obj 461 169 routeOSC /z;
#X obj 572 383 routeOSC /sun;
#X obj 572 420 unpack f f f f f;
#X obj 803 514 route 0 1;
#X obj 559 527 s hRise;
#X obj 606 565 s mRise;
#X obj 651 602 s hSet;
#X obj 697 543 s mSet;
#X msg 225 86 connect 192.168.1.219 9998;
#N canvas 704 167 529 420 netreceiveNotUsed 1;
#X text 394 452 pcat 0 = no precipitation;
#X obj 102 215 s hRise;
#X obj 149 253 s mRise;
#X obj 194 290 s hSet;
#X obj 240 231 s mSet;
#X obj 125 493 s weatherRain;
#X msg 357 452 0;
#X msg 357 425 1;
#X obj 81 533 s weatherNoRain;
#X obj 232 492 print starts raining;
#X obj 69 570 print stops raining;
#X floatatom 135 103 5 0 0 0 - - - 0;
#X obj 32 39 netreceive 3558;
#X obj 35 686 print musictoggle ON/OFF;
#X text 180 105 Number of open connections;
#X obj 81 434 route 0;
#X text 393 424 pcat anything else but 0 = precipitation;
#X obj 334 231 s stillNightOut;
#X obj 32 159 route musictoggle pcat hoursRise minutesRise hoursSet
minutesSet toggle sunStatus z;
#X obj 180 73 print number of open connections;
#X obj 382 335 print new Z!;
#X connect 6 0 8 0;
#X connect 6 0 10 0;
#X connect 7 0 5 0;
#X connect 7 0 9 0;
#X connect 12 0 18 0;
#X connect 12 1 19 0;
#X connect 12 1 11 0;
#X connect 15 0 8 0;
#X connect 15 0 10 0;
#X connect 15 1 5 0;
#X connect 15 1 9 0;
#X connect 18 0 13 0;
#X connect 18 1 15 0;
#X connect 18 2 1 0;
#X connect 18 3 2 0;
#X connect 18 4 3 0;
#X connect 18 5 4 0;
#X connect 18 7 17 0;
#X connect 18 8 20 0;
#X restore 35 261 pd netreceiveNotUsed;
#X obj 485 601 print got sundata;
#X obj 742 446 s stillNightOut;
#X connect 2 0 4 0;
#X connect 3 0 4 0;
#X connect 11 0 10 0;
#X connect 12 0 10 0;
#X connect 14 0 38 0;
#X connect 15 0 24 0;
#X connect 16 0 19 0;
#X connect 16 0 25 0;
#X connect 16 0 28 0;
#X connect 16 0 30 0;
#X connect 16 0 31 0;
#X connect 17 0 16 0;
#X connect 19 0 20 0;
#X connect 20 0 21 0;
#X connect 20 1 22 0;
#X connect 23 0 10 0;
#X connect 24 0 12 0;
#X connect 25 0 26 0;
#X connect 26 0 0 0;
#X connect 27 0 1 0;
#X connect 28 0 27 0;
#X connect 29 0 8 0;
#X connect 30 0 29 0;
#X connect 31 0 32 0;
#X connect 31 0 40 0;
#X connect 32 0 34 0;
#X connect 32 1 35 0;
#X connect 32 2 36 0;
#X connect 32 3 37 0;
#X connect 32 4 33 0;
#X connect 32 4 41 0;
#X connect 33 0 3 0;
#X connect 33 0 6 0;
#X connect 33 1 2 0;
#X connect 33 1 7 0;
#X connect 38 0 10 0;
