#N canvas 8 66 698 447 12;
#X msg 222 222 set \$1;
#X msg 222 251 57;
#X msg 277 222 set \$1;
#X msg 277 251 57;
#X msg 335 222 set \$1;
#X msg 335 252 15.82;
#X msg 392 252 Clouds;
#X msg 392 222 set \$1;
#X obj 222 116 netreceive 3558;
#X obj 222 162 route slider1 slider2 temp weather toggle;
#X msg 449 252 true;
#X msg 449 222 set \$1;
#X connect 0 0 1 0;
#X connect 2 0 3 0;
#X connect 4 0 5 0;
#X connect 7 0 6 0;
#X connect 8 0 9 0;
#X connect 9 0 0 0;
#X connect 9 1 2 0;
#X connect 9 2 4 0;
#X connect 9 3 7 0;
#X connect 9 4 11 0;
#X connect 11 0 10 0;
