#N canvas 49 408 334 264 12;
#X msg 13 122 set \$1;
#X msg 13 151 49;
#X msg 68 122 set \$1;
#X msg 68 151 50;
#X msg 126 122 set \$1;
#X msg 126 152 12.47;
#X msg 183 152 Clouds;
#X msg 183 122 set \$1;
#X obj 13 16 netreceive 3558;
#X obj 13 62 route slider1 slider2 temp weather toggle;
#X msg 240 152 true;
#X msg 240 122 set \$1;
#X connect 0 0 1 0;
#X connect 2 0 3 0;
#X connect 4 0 5 0;
#X connect 7 0 6 0;
#X connect 8 0 9 0;
#X connect 9 0 0 0;
#X connect 9 1 2 0;
#X connect 9 2 4 0;
#X connect 9 3 7 0;
#X connect 9 4 11 0;
#X connect 11 0 10 0;
