#N canvas 482 262 373 479 12;
#X msg 22 159 set \$1;
#X msg 22 188 7;
#X msg 75 157 set \$1;
#X msg 75 187 0;
#X msg 127 186 6;
#X msg 127 156 set \$1;
#X obj 372 163 s toggle;
#X obj 15 214 s mxvol;
#X obj 365 191 print toggle ON/OFF;
#X obj 7 241 print volume;
#X msg 185 189 43;
#X msg 185 159 set \$1;
#X text 148 296 pcat 0 = no precipitation;
#X text 148 316 pcat 1 = precipitation;
#X msg 244 193 18;
#X msg 244 163 set \$1;
#X msg 302 196 33;
#X msg 302 166 set \$1;
#X obj 13 62 route slider1 pcat hoursRise minutesRise hoursSet minutesSet
toggle;
#X obj 128 131 s hRise;
#X obj 186 134 s mRise;
#X obj 245 138 s hSet;
#X obj 302 142 s mSet;
#X obj 71 289 change 0;
#X obj 71 318 route 0 1;
#X obj 101 356 s weatherRain;
#X msg 21 312 0;
#X msg 160 256 1;
#X obj 71 385 s weatherNoRain;
#X obj 208 355 print starts raining;
#X obj 59 422 print stops raining;
#X obj 187 40 print Receiving data from netreceive:;
#X floatatom 205 18 5 0 0 0 - - -, f 5;
#X obj 257 268 print Number of open connections;
#X obj 13 17 netreceive 3558;
#X connect 0 0 1 0;
#X connect 2 0 3 0;
#X connect 5 0 4 0;
#X connect 11 0 10 0;
#X connect 15 0 14 0;
#X connect 17 0 16 0;
#X connect 18 0 0 0;
#X connect 18 0 7 0;
#X connect 18 0 9 0;
#X connect 18 1 2 0;
#X connect 18 1 23 0;
#X connect 18 2 5 0;
#X connect 18 2 19 0;
#X connect 18 3 11 0;
#X connect 18 3 20 0;
#X connect 18 4 15 0;
#X connect 18 4 21 0;
#X connect 18 5 17 0;
#X connect 18 5 22 0;
#X connect 18 6 6 0;
#X connect 18 6 8 0;
#X connect 23 0 24 0;
#X connect 24 0 28 0;
#X connect 24 0 30 0;
#X connect 24 1 25 0;
#X connect 24 1 29 0;
#X connect 26 0 28 0;
#X connect 26 0 30 0;
#X connect 27 0 25 0;
#X connect 27 0 29 0;
#X connect 34 0 18 0;
#X connect 34 0 31 0;
