#N canvas 473 26 783 767 12;
#X msg 78 195 set \$1;
#X msg 87 225 0;
#X msg 139 248 7;
#X msg 139 221 set \$1;
#X obj 343 285 s toggle;
#X obj 357 311 print toggle ON/OFF;
#X msg 197 305 42;
#X msg 197 275 set \$1;
#X text 171 430 pcat 0 = no precipitation;
#X text 171 459 pcat 1 = precipitation;
#X msg 252 379 16;
#X msg 252 349 set \$1;
#X msg 298 266 57;
#X msg 298 236 set \$1;
#X obj 131 195 s hRise;
#X obj 184 250 s mRise;
#X obj 240 325 s hSet;
#X obj 289 208 s mSet;
#X obj 86 431 change 0;
#X obj 86 460 route 0 1;
#X obj 116 498 s weatherRain;
#X msg 47 460 0;
#X msg 157 402 1;
#X obj 86 527 s weatherNoRain;
#X obj 223 497 print starts raining;
#X obj 74 564 print stops raining;
#X floatatom 168 39 5 0 0 0 - - -, f 5;
#X obj 26 76 netreceive 3558;
#X obj 26 132 route musictoggle pcat hoursRise minutesRise hoursSet
minutesSet toggle;
#X obj 37 600 s musictoggle;
#X obj 29 627 print musictoggle ON/OFF;
#X text 213 41 Number of open connections;
#X obj 188 107 print printing from netreceiver;
#X connect 0 0 1 0;
#X connect 3 0 2 0;
#X connect 7 0 6 0;
#X connect 11 0 10 0;
#X connect 13 0 12 0;
#X connect 18 0 19 0;
#X connect 19 0 23 0;
#X connect 19 0 25 0;
#X connect 19 1 20 0;
#X connect 19 1 24 0;
#X connect 21 0 23 0;
#X connect 21 0 25 0;
#X connect 22 0 20 0;
#X connect 22 0 24 0;
#X connect 27 0 28 0;
#X connect 27 0 32 0;
#X connect 27 1 26 0;
#X connect 28 0 29 0;
#X connect 28 0 30 0;
#X connect 28 1 0 0;
#X connect 28 1 18 0;
#X connect 28 2 3 0;
#X connect 28 2 14 0;
#X connect 28 3 7 0;
#X connect 28 3 15 0;
#X connect 28 4 11 0;
#X connect 28 4 16 0;
#X connect 28 5 13 0;
#X connect 28 5 17 0;
#X connect 28 6 4 0;
#X connect 28 6 5 0;
