#N canvas 6 23 698 447 12;
#X msg 193 206 set \$1;
#X msg 193 235 36;
#X msg 290 207 set \$1;
#X msg 290 236 50;
#X obj 222 162 route slider1 slider2 temp weather;
#X msg 367 207 set \$1;
#X msg 367 320 4.69;
#X msg 429 250 Snow;
#X msg 428 207 set \$1;
#X text 203 320 Current temp :o ---->;
#X text 491 250 <--- Current weather;
#X obj 226 83 netreceive 7200;
#X connect 0 0 1 0;
#X connect 2 0 3 0;
#X connect 4 0 0 0;
#X connect 4 1 2 0;
#X connect 4 2 5 0;
#X connect 4 3 8 0;
#X connect 5 0 6 0;
#X connect 8 0 7 0;
#X connect 11 0 4 0;
