#N canvas 262 214 334 264 12;
#X msg 22 159 set \$1;
#X msg 22 188 44;
#X msg 71 95 set \$1;
#X msg 71 125 19.66;
#X msg 127 186 Clear;
#X msg 127 156 set \$1;
#X obj 13 16 netreceive 3558;
#X obj 184 100 s toggle;
#X obj 15 214 s mxvol;
#X obj 13 62 route slider1 temp weather toggle;
#X connect 0 0 1 0;
#X connect 2 0 3 0;
#X connect 5 0 4 0;
#X connect 6 0 9 0;
#X connect 9 0 0 0;
#X connect 9 0 8 0;
#X connect 9 1 2 0;
#X connect 9 2 5 0;
#X connect 9 3 7 0;
