#N canvas 353 98 1022 671 12;
#X obj 283 272 s toggle;
#X text 388 446 pcat 0 = no precipitation;
#X obj 96 209 s hRise;
#X obj 143 247 s mRise;
#X obj 188 284 s hSet;
#X obj 234 225 s mSet;
#X obj 119 487 s weatherRain;
#X msg 351 446 0;
#X msg 351 419 1;
#X obj 75 527 s weatherNoRain;
#X obj 226 486 print starts raining;
#X obj 63 564 print stops raining;
#X floatatom 129 97 5 0 0 0 - - -, f 5;
#X obj 26 33 netreceive 3558;
#X obj 37 653 s musictoggle;
#X obj 29 680 print musictoggle ON/OFF;
#X text 174 99 Number of open connections;
#X msg 566 288 1;
#X msg 512 288 0;
#X obj 512 334 tgl 37 0 empty empty empty 17 7 0 10 -262144 -1 -1 0
1;
#X obj 512 234 route false true;
#X text 512 137 This checks if the sun is up on program startup. If
is not up \, then it should start to play the night track \, not the
day tracks., f 27;
#X obj 75 428 route 0;
#X text 387 418 pcat anything else but 0 = precipitation;
#X obj 734 270 print Sun was already up on startup;
#X obj 742 301 print Still night out up on startup;
#X obj 328 225 s stillNightOut;
#X obj 26 153 route musictoggle pcat hoursRise minutesRise hoursSet
minutesSet toggle sunStatus z;
#X obj 383 263 s z;
#X obj 174 67 print number of open connections;
#X obj 376 329 print new Z!;
#X text 424 885 ...;
#X connect 7 0 9 0;
#X connect 7 0 11 0;
#X connect 8 0 6 0;
#X connect 8 0 10 0;
#X connect 13 0 27 0;
#X connect 13 1 29 0;
#X connect 13 1 12 0;
#X connect 17 0 19 0;
#X connect 18 0 19 0;
#X connect 20 0 18 0;
#X connect 20 0 24 0;
#X connect 20 1 17 0;
#X connect 20 1 25 0;
#X connect 22 0 9 0;
#X connect 22 0 11 0;
#X connect 22 1 6 0;
#X connect 22 1 10 0;
#X connect 27 0 14 0;
#X connect 27 0 15 0;
#X connect 27 1 22 0;
#X connect 27 2 2 0;
#X connect 27 3 3 0;
#X connect 27 4 4 0;
#X connect 27 5 5 0;
#X connect 27 6 0 0;
#X connect 27 7 20 0;
#X connect 27 7 26 0;
#X connect 27 8 28 0;
#X connect 27 8 30 0;
