#N canvas 517 110 811 643 12;
#X obj 121 229 random 5;
#X obj 128 289 list append;
#X obj 128 322 list split 1;
#X obj 168 358 t b f;
#X obj 95 84 bng 15 250 50 0 empty empty empty 17 7 0 10 -262144 -1
-1;
#X obj 89 389 select;
#X obj 211 144 random 100;
#X msg 211 182 set seed \$1;
#X msg 119 159 seed 85;
#X obj 183 15 loadbang;
#X obj 129 439 print;
#X msg 356 98 menusave;
#X obj 356 127 send pd-randomtest.pd;
#X obj 183 51 t b b b;
#X connect 0 0 1 0;
#X connect 0 0 5 0;
#X connect 1 0 2 0;
#X connect 2 0 1 1;
#X connect 2 1 3 0;
#X connect 3 1 5 1;
#X connect 4 0 0 0;
#X connect 5 0 4 0;
#X connect 5 1 10 0;
#X connect 6 0 7 0;
#X connect 7 0 8 0;
#X connect 8 0 0 0;
#X connect 8 0 6 0;
#X connect 9 0 13 0;
#X connect 11 0 12 0;
#X connect 13 0 11 0;
#X connect 13 1 6 0;
#X connect 13 2 8 0;
