#N canvas 182 94 713 549 12;
#X obj 190 446 soundfile_info;
#X msg 190 420 read \$1;
#X floatatom 270 507 12 0 0 0 - - -, f 12;
#X obj 268 591 /;
#X floatatom 268 650 11 0 0 0 - - -, f 11;
#X obj 287 564 samplerate~;
#X obj 268 620 * 1000;
#X obj 456 528 line 0 1;
#X obj 512 494 pack f f;
#X obj 512 460 f;
#X obj 425 417 t b b;
#X msg 457 484 0;
#X floatatom 456 557 8 0 0 0 - - -, f 8;
#X obj 455 759 ==;
#X obj 489 643 t b f;
#X obj 473 674 -;
#X obj 455 788 sel 1;
#X floatatom 507 750 11 0 0 0 - - -, f 11;
#X obj 473 703 int;
#X obj 190 472 unpack f s f f f;
#X msg 395 487 stop;
#X msg 1327 228 open \$1;
#X obj 287 533 loadbang;
#X text 268 678 Total Duration;
#X text 428 149 Fade Duration;
#X text 2731 83 Stop;
#X text 1075 -82 Open File;
#X obj 930 326 vline~;
#X obj 929 400 cos~;
#X obj 929 378 +~ 0.75;
#X obj 930 351 /~ 4;
#X obj 975 150 f;
#X msg 973 249 1 \$1;
#X msg 866 168 0;
#X obj 755 329 pack 0 f;
#X obj 875 204 bng 29 250 50 0 empty empty empty 17 7 0 10 -262144
-1 -1;
#X text 787 2420 ...;
#X text -175 433 ...;
#X text 4581 463 ...;
#X text 751 250 Commence fadeout;
#X obj 755 277 bng 40 250 50 0 empty empty empty 17 7 0 10 -262144
-1 -1;
#X text 823 90 Stop;
#X obj 456 949 delay 5000;
#X text 559 1021 reset load .wav;
#X obj 1661 1034 throw~ fx1;
#X obj 1766 1034 throw~ fx2;
#X obj 1866 1034 throw~ fx3;
#X obj 1965 1034 throw~ fx4;
#X obj 975 128 bng 15 250 50 0 empty empty empty 17 7 0 10 -262144
-1 -1;
#X text 584 884 Start next player;
#X obj 468 831 bng 29 250 50 0 empty empty empty 17 7 0 10 -262144
-1 -1;
#X obj 465 979 bng 27 250 50 0 empty empty empty 17 7 0 10 -262144
-1 -1;
#X obj 2219 11 r openFile\$1;
#X msg 1419 153 open /home/pi/jungle/day_scene_1.wav \;;
#X msg 428 216 5000;
#X obj 428 183 loadbang;
#X obj 2732 112 r stopPlayer\$1;
#X obj 268 715 s duration\$1 \$2;
#X obj 530 422 r duration\$1 \$2;
#X obj 474 584 r duration\$1 \$2;
#X obj 350 453 r stopPlayer\$1;
#X msg 2111 249 open \$1;
#X obj 3221 446 line 0 1;
#X obj 3277 412 pack f f;
#X obj 3277 378 f;
#X obj 3192 332 t b b;
#X msg 3222 402 0;
#X floatatom 3221 475 8 0 0 0 - - -, f 8;
#X obj 3221 676 ==;
#X obj 3254 561 t b f;
#X obj 3239 591 -;
#X obj 3221 705 sel 1;
#X floatatom 3273 667 11 0 0 0 - - -, f 11;
#X obj 3239 620 int;
#X msg 3160 405 stop;
#X obj 3221 867 delay 5000;
#X text 3104 907 reset load .wav;
#X obj 3233 750 bng 29 250 50 0 empty empty empty 17 7 0 10 -262144
-1 -1;
#X obj 3325 899 bng 27 250 50 0 empty empty empty 17 7 0 10 -262144
-1 -1;
#X obj 3295 340 r duration\$1 \$2;
#X obj 3239 506 r duration\$1 \$2;
#X obj 3115 371 r stopPlayer\$1;
#X obj 2851 142 f;
#X msg 2852 205 1 \$1;
#X msg 2732 175 0;
#X obj 2899 280 pack 0 f;
#X obj 2741 215 bng 29 250 50 0 empty empty empty 17 7 0 10 -262144
-1 -1;
#X text 2898 172 Commence fadeout;
#X obj 2899 202 bng 40 250 50 0 empty empty empty 17 7 0 10 -262144
-1 -1;
#X obj 2851 120 bng 15 250 50 0 empty empty empty 17 7 0 10 -262144
-1 -1;
#X obj 2731 328 vline~;
#X obj 2730 402 cos~;
#X obj 2730 380 +~ 0.75;
#X obj 2731 353 /~ 4;
#X obj 428 250 s loadFD\$1 \$2;
#X obj 808 292 r loadFD\$1 \$2;
#X obj 523 915 r loadFD\$1 \$2;
#X obj 489 613 r loadFD\$1 \$2;
#X obj 993 105 r loadFD\$1 \$2;
#X obj 3254 532 r loadFD\$1 \$2;
#X text 531 397 Total Duration;
#X text 3412 340 Total Duration;
#X obj 2952 250 r loadFD\$1 \$2;
#X obj 2869 114 r loadFD\$1 \$2;
#X obj 3221 907 s rstLOAD_B\$1;
#X obj 2218 125 r rstLOAD_B\$1;
#X obj 456 1021 s rstLOAD_A\$1;
#X obj 1421 115 r rstLOAD_A\$1;
#X obj 190 391 r openFile\$1;
#X obj 1327 195 r openFile\$1;
#X obj 2109 219 r openFile\$1;
#X obj 866 91 r stopPlayer\$1;
#X obj 866 120 bng 15 250 50 0 empty empty empty 17 7 0 10 -262144
-1 -1;
#X obj 1299 137 r stopPlayer\$1;
#X msg 1299 168 stop;
#X obj 2732 147 bng 15 250 50 0 empty empty empty 17 7 0 10 -262144
-1 -1;
#X obj 1421 8 r openFile\$1;
#X obj 425 330 r strtPLAYER_A\$1;
#X obj 3221 787 s strtPLAYER_A\$1;
#X obj 3288 828 r loadFD\$1 \$2;
#X obj 975 79 r strtPLAYER_A\$1;
#X msg 1270 105 start;
#X obj 1270 76 r strtPLAYER_A\$1;
#X obj 455 884 s startPLAYER_B\$1;
#X obj 2851 89 r startPLAYER_B\$1;
#X obj 3192 299 r startPLAYER_B\$1;
#X msg 1994 169 start;
#X obj 1993 109 r startPLAYER_B\$1;
#X obj 2071 160 r stopPlayer\$1;
#X msg 2076 203 stop;
#X obj 972 1206 inlet;
#X obj 1015 1206 inlet;
#X obj 1058 1206 inlet;
#X obj 1101 1206 inlet;
#X obj 1277 1217 inlet;
#X obj 1320 1217 inlet;
#X obj 1363 1217 inlet;
#X obj 1406 1217 inlet;
#X obj 2444 1183 inlet;
#X obj 2487 1183 inlet;
#X obj 2530 1183 inlet;
#X obj 2573 1183 inlet;
#X obj 1565 698 *~;
#X obj 1596 698 *~;
#X obj 1626 698 *~;
#X obj 1656 698 *~;
#X obj 1564 726 *~;
#X obj 1595 726 *~;
#X obj 1625 726 *~;
#X obj 1655 726 *~;
#X obj 1562 756 *~;
#X obj 1593 756 *~;
#X obj 1623 756 *~;
#X obj 1653 756 *~;
#X obj 1562 785 *~;
#X obj 1593 785 *~;
#X obj 1623 785 *~;
#X obj 1653 785 *~;
#X obj 1795 698 *~;
#X obj 1826 698 *~;
#X obj 1856 698 *~;
#X obj 1886 698 *~;
#X obj 1794 726 *~;
#X obj 1825 726 *~;
#X obj 1855 726 *~;
#X obj 1885 726 *~;
#X obj 1792 756 *~;
#X obj 1823 756 *~;
#X obj 1853 756 *~;
#X obj 1883 756 *~;
#X obj 1792 785 *~;
#X obj 1823 785 *~;
#X obj 1853 785 *~;
#X obj 1883 785 *~;
#X obj 2064 688 *~;
#X obj 2095 688 *~;
#X obj 2125 688 *~;
#X obj 2155 688 *~;
#X obj 2063 716 *~;
#X obj 2094 716 *~;
#X obj 2124 716 *~;
#X obj 2154 716 *~;
#X obj 2061 746 *~;
#X obj 2092 746 *~;
#X obj 2122 746 *~;
#X obj 2152 746 *~;
#X obj 2061 775 *~;
#X obj 2092 775 *~;
#X obj 2122 775 *~;
#X obj 2152 775 *~;
#X obj 1421 45 t a b;
#X msg 1530 114 set;
#X obj 2219 49 t a b;
#X msg 2324 125 set;
#X msg 2219 167 open /home/pi/jungle/day_scene_1.wav \;;
#X msg 2219 87 add open \$1;
#X msg 1421 82 add open \$1;
#X obj 3100 410 bng 15 250 50 0 empty empty empty 17 7 0 10 -262144
-1 -1;
#X obj 224 222 print Stopping player \$1;
#X obj 209 298 print strtPLAYER_A\$1;
#X obj 3351 287 print strtPLAYER_B\$1;
#X obj 1546 1438 line;
#X obj 1546 1475 == 0;
#X obj 1552 1535 s stopPlayer\$1;
#X obj 1546 1504 select 1;
#X obj 1546 1367 change;
#X obj 1448 1368 r lineINIT\$1;
#X msg 1448 1399 100;
#X text 1307 1476 Very important. Line goes to 100 \, then bangs stop
if it drops to 0 lineINIT is sent along with the startup sequence from
qlist., f 31;
#X obj 1546 1330 env~;
#X obj 3166 55 inlet;
#X obj 3166 92 switch~;
#X obj 1539 1601 s switchOFF\$1;
#X msg 1548 1403 \$1 60000;
#X msg 1539 1568 0;
#X floatatom 1702 1384 5 0 0 0 - - -, f 5;
#X msg 1656 399 0;
#X msg 1697 400 1;
#N canvas 309 35 1022 581 player1\$1 0;
#X obj 270 295 *~;
#X obj 301 295 *~;
#X obj 331 295 *~;
#X obj 361 295 *~;
#X obj 269 323 *~;
#X obj 300 323 *~;
#X obj 330 323 *~;
#X obj 360 323 *~;
#X obj 267 353 *~;
#X obj 298 353 *~;
#X obj 328 353 *~;
#X obj 358 353 *~;
#X obj 267 382 *~;
#X obj 298 382 *~;
#X obj 328 382 *~;
#X obj 358 382 *~;
#X obj 508 293 *~;
#X obj 539 293 *~;
#X obj 569 293 *~;
#X obj 599 293 *~;
#X obj 508 320 *~;
#X obj 539 320 *~;
#X obj 569 320 *~;
#X obj 599 320 *~;
#X obj 508 350 *~;
#X obj 539 350 *~;
#X obj 569 350 *~;
#X obj 599 350 *~;
#X obj 508 379 *~;
#X obj 539 379 *~;
#X obj 569 379 *~;
#X obj 599 379 *~;
#X obj 747 295 *~;
#X obj 778 295 *~;
#X obj 808 295 *~;
#X obj 838 295 *~;
#X obj 747 321 *~;
#X obj 778 321 *~;
#X obj 808 321 *~;
#X obj 838 321 *~;
#X obj 747 348 *~;
#X obj 778 348 *~;
#X obj 808 348 *~;
#X obj 838 348 *~;
#X obj 747 376 *~;
#X obj 778 376 *~;
#X obj 808 376 *~;
#X obj 838 376 *~;
#X obj 238 183 readsf~ 48;
#X obj 236 101 inlet;
#X obj 28 249 inlet~;
#X obj 291 100 inlet;
#X obj 291 134 switch~;
#X obj 85 517 outlet~;
#X obj 96 527 outlet~;
#X obj 109 539 outlet~;
#X obj 119 550 outlet~;
#X obj 159 516 outlet~;
#X obj 170 526 outlet~;
#X obj 183 538 outlet~;
#X obj 193 549 outlet~;
#X obj 233 514 outlet~;
#X obj 244 524 outlet~;
#X obj 257 536 outlet~;
#X obj 267 547 outlet~;
#X obj 307 513 outlet~;
#X obj 318 523 outlet~;
#X obj 331 535 outlet~;
#X obj 341 546 outlet~;
#X obj 732 510 outlet~;
#X obj 743 520 outlet~;
#X obj 756 532 outlet~;
#X obj 766 543 outlet~;
#X obj 806 509 outlet~;
#X obj 817 519 outlet~;
#X obj 830 531 outlet~;
#X obj 840 542 outlet~;
#X obj 880 507 outlet~;
#X obj 891 517 outlet~;
#X obj 904 529 outlet~;
#X obj 914 540 outlet~;
#X obj 954 506 outlet~;
#X obj 965 516 outlet~;
#X obj 978 528 outlet~;
#X obj 988 539 outlet~;
#X text 56 657 ...;
#X obj 427 515 outlet~;
#X obj 438 525 outlet~;
#X obj 451 537 outlet~;
#X obj 461 548 outlet~;
#X obj 501 514 outlet~;
#X obj 512 524 outlet~;
#X obj 525 536 outlet~;
#X obj 535 547 outlet~;
#X obj 575 512 outlet~;
#X obj 586 522 outlet~;
#X obj 599 534 outlet~;
#X obj 609 545 outlet~;
#X obj 649 511 outlet~;
#X obj 660 521 outlet~;
#X obj 673 533 outlet~;
#X obj 683 544 outlet~;
#X obj 578 81 osc~;
#X obj 578 110 env~;
#X floatatom 578 139 5 0 0 0 - - -, f 5;
#X floatatom 583 36 5 0 0 0 - - -, f 5;
#X connect 0 0 53 0;
#X connect 1 0 54 0;
#X connect 2 0 55 0;
#X connect 3 0 56 0;
#X connect 4 0 57 0;
#X connect 5 0 58 0;
#X connect 6 0 59 0;
#X connect 7 0 60 0;
#X connect 8 0 61 0;
#X connect 9 0 62 0;
#X connect 10 0 63 0;
#X connect 11 0 64 0;
#X connect 12 0 65 0;
#X connect 13 0 66 0;
#X connect 14 0 67 0;
#X connect 15 0 68 0;
#X connect 16 0 86 0;
#X connect 17 0 87 0;
#X connect 18 0 88 0;
#X connect 19 0 89 0;
#X connect 20 0 90 0;
#X connect 21 0 91 0;
#X connect 22 0 92 0;
#X connect 23 0 93 0;
#X connect 24 0 94 0;
#X connect 25 0 95 0;
#X connect 26 0 96 0;
#X connect 27 0 97 0;
#X connect 28 0 98 0;
#X connect 29 0 99 0;
#X connect 30 0 100 0;
#X connect 31 0 101 0;
#X connect 32 0 69 0;
#X connect 33 0 70 0;
#X connect 34 0 71 0;
#X connect 35 0 72 0;
#X connect 36 0 73 0;
#X connect 37 0 74 0;
#X connect 38 0 75 0;
#X connect 39 0 76 0;
#X connect 40 0 77 0;
#X connect 41 0 78 0;
#X connect 42 0 79 0;
#X connect 43 0 80 0;
#X connect 44 0 81 0;
#X connect 45 0 82 0;
#X connect 46 0 83 0;
#X connect 47 0 84 0;
#X connect 48 0 0 0;
#X connect 48 1 1 0;
#X connect 48 2 2 0;
#X connect 48 3 3 0;
#X connect 48 4 4 0;
#X connect 48 5 5 0;
#X connect 48 6 6 0;
#X connect 48 7 7 0;
#X connect 48 8 8 0;
#X connect 48 9 9 0;
#X connect 48 10 10 0;
#X connect 48 11 11 0;
#X connect 48 12 12 0;
#X connect 48 13 13 0;
#X connect 48 14 14 0;
#X connect 48 15 15 0;
#X connect 48 16 16 0;
#X connect 48 17 17 0;
#X connect 48 18 18 0;
#X connect 48 19 19 0;
#X connect 48 20 20 0;
#X connect 48 21 21 0;
#X connect 48 22 22 0;
#X connect 48 23 23 0;
#X connect 48 24 24 0;
#X connect 48 25 25 0;
#X connect 48 26 26 0;
#X connect 48 27 27 0;
#X connect 48 28 28 0;
#X connect 48 29 29 0;
#X connect 48 30 30 0;
#X connect 48 31 31 0;
#X connect 48 32 32 0;
#X connect 48 33 33 0;
#X connect 48 34 34 0;
#X connect 48 35 35 0;
#X connect 48 36 36 0;
#X connect 48 37 37 0;
#X connect 48 38 38 0;
#X connect 48 39 39 0;
#X connect 48 40 40 0;
#X connect 48 41 41 0;
#X connect 48 42 42 0;
#X connect 48 43 43 0;
#X connect 48 44 44 0;
#X connect 48 45 45 0;
#X connect 48 46 46 0;
#X connect 48 47 47 0;
#X connect 49 0 48 0;
#X connect 50 0 0 1;
#X connect 50 0 47 1;
#X connect 50 0 46 1;
#X connect 50 0 45 1;
#X connect 50 0 44 1;
#X connect 50 0 43 1;
#X connect 50 0 42 1;
#X connect 50 0 41 1;
#X connect 50 0 40 1;
#X connect 50 0 39 1;
#X connect 50 0 38 1;
#X connect 50 0 37 1;
#X connect 50 0 36 1;
#X connect 50 0 35 1;
#X connect 50 0 34 1;
#X connect 50 0 33 1;
#X connect 50 0 32 1;
#X connect 50 0 31 1;
#X connect 50 0 30 1;
#X connect 50 0 29 1;
#X connect 50 0 28 1;
#X connect 50 0 27 1;
#X connect 50 0 26 1;
#X connect 50 0 25 1;
#X connect 50 0 24 1;
#X connect 50 0 23 1;
#X connect 50 0 22 1;
#X connect 50 0 21 1;
#X connect 50 0 20 1;
#X connect 50 0 19 1;
#X connect 50 0 18 1;
#X connect 50 0 17 1;
#X connect 50 0 16 1;
#X connect 50 0 15 1;
#X connect 50 0 14 1;
#X connect 50 0 13 1;
#X connect 50 0 12 1;
#X connect 50 0 11 1;
#X connect 50 0 10 1;
#X connect 50 0 9 1;
#X connect 50 0 8 1;
#X connect 50 0 7 1;
#X connect 50 0 6 1;
#X connect 50 0 5 1;
#X connect 50 0 4 1;
#X connect 50 0 3 1;
#X connect 50 0 2 1;
#X connect 50 0 1 1;
#X connect 51 0 52 0;
#X connect 102 0 103 0;
#X connect 103 0 104 0;
#X connect 105 0 102 0;
#X restore 1039 450 pd player1\$1;
#N canvas 309 35 1022 581 player2\$1 0;
#X obj 270 295 *~;
#X obj 301 295 *~;
#X obj 331 295 *~;
#X obj 361 295 *~;
#X obj 269 323 *~;
#X obj 300 323 *~;
#X obj 330 323 *~;
#X obj 360 323 *~;
#X obj 267 353 *~;
#X obj 298 353 *~;
#X obj 328 353 *~;
#X obj 358 353 *~;
#X obj 267 382 *~;
#X obj 298 382 *~;
#X obj 328 382 *~;
#X obj 358 382 *~;
#X obj 508 293 *~;
#X obj 539 293 *~;
#X obj 569 293 *~;
#X obj 599 293 *~;
#X obj 508 320 *~;
#X obj 539 320 *~;
#X obj 569 320 *~;
#X obj 599 320 *~;
#X obj 508 350 *~;
#X obj 539 350 *~;
#X obj 569 350 *~;
#X obj 599 350 *~;
#X obj 508 379 *~;
#X obj 539 379 *~;
#X obj 569 379 *~;
#X obj 599 379 *~;
#X obj 747 295 *~;
#X obj 778 295 *~;
#X obj 808 295 *~;
#X obj 838 295 *~;
#X obj 747 321 *~;
#X obj 778 321 *~;
#X obj 808 321 *~;
#X obj 838 321 *~;
#X obj 747 348 *~;
#X obj 778 348 *~;
#X obj 808 348 *~;
#X obj 838 348 *~;
#X obj 747 376 *~;
#X obj 778 376 *~;
#X obj 808 376 *~;
#X obj 838 376 *~;
#X obj 238 183 readsf~ 48;
#X obj 236 101 inlet;
#X obj 28 249 inlet~;
#X obj 291 100 inlet;
#X obj 291 134 switch~;
#X obj 85 517 outlet~;
#X obj 96 527 outlet~;
#X obj 109 539 outlet~;
#X obj 119 550 outlet~;
#X obj 159 516 outlet~;
#X obj 170 526 outlet~;
#X obj 183 538 outlet~;
#X obj 193 549 outlet~;
#X obj 233 514 outlet~;
#X obj 244 524 outlet~;
#X obj 257 536 outlet~;
#X obj 267 547 outlet~;
#X obj 307 513 outlet~;
#X obj 318 523 outlet~;
#X obj 331 535 outlet~;
#X obj 341 546 outlet~;
#X obj 732 510 outlet~;
#X obj 743 520 outlet~;
#X obj 756 532 outlet~;
#X obj 766 543 outlet~;
#X obj 806 509 outlet~;
#X obj 817 519 outlet~;
#X obj 830 531 outlet~;
#X obj 840 542 outlet~;
#X obj 880 507 outlet~;
#X obj 891 517 outlet~;
#X obj 904 529 outlet~;
#X obj 914 540 outlet~;
#X obj 954 506 outlet~;
#X obj 965 516 outlet~;
#X obj 978 528 outlet~;
#X obj 988 539 outlet~;
#X text 56 657 ...;
#X obj 427 515 outlet~;
#X obj 438 525 outlet~;
#X obj 451 537 outlet~;
#X obj 461 548 outlet~;
#X obj 501 514 outlet~;
#X obj 512 524 outlet~;
#X obj 525 536 outlet~;
#X obj 535 547 outlet~;
#X obj 575 512 outlet~;
#X obj 586 522 outlet~;
#X obj 599 534 outlet~;
#X obj 609 545 outlet~;
#X obj 649 511 outlet~;
#X obj 660 521 outlet~;
#X obj 673 533 outlet~;
#X obj 683 544 outlet~;
#X obj 578 81 osc~;
#X obj 578 110 env~;
#X floatatom 578 139 5 0 0 0 - - -, f 5;
#X floatatom 583 36 5 0 0 0 - - -, f 5;
#X connect 0 0 53 0;
#X connect 1 0 54 0;
#X connect 2 0 55 0;
#X connect 3 0 56 0;
#X connect 4 0 57 0;
#X connect 5 0 58 0;
#X connect 6 0 59 0;
#X connect 7 0 60 0;
#X connect 8 0 61 0;
#X connect 9 0 62 0;
#X connect 10 0 63 0;
#X connect 11 0 64 0;
#X connect 12 0 65 0;
#X connect 13 0 66 0;
#X connect 14 0 67 0;
#X connect 15 0 68 0;
#X connect 16 0 86 0;
#X connect 17 0 87 0;
#X connect 18 0 88 0;
#X connect 19 0 89 0;
#X connect 20 0 90 0;
#X connect 21 0 91 0;
#X connect 22 0 92 0;
#X connect 23 0 93 0;
#X connect 24 0 94 0;
#X connect 25 0 95 0;
#X connect 26 0 96 0;
#X connect 27 0 97 0;
#X connect 28 0 98 0;
#X connect 29 0 99 0;
#X connect 30 0 100 0;
#X connect 31 0 101 0;
#X connect 32 0 69 0;
#X connect 33 0 70 0;
#X connect 34 0 71 0;
#X connect 35 0 72 0;
#X connect 36 0 73 0;
#X connect 37 0 74 0;
#X connect 38 0 75 0;
#X connect 39 0 76 0;
#X connect 40 0 77 0;
#X connect 41 0 78 0;
#X connect 42 0 79 0;
#X connect 43 0 80 0;
#X connect 44 0 81 0;
#X connect 45 0 82 0;
#X connect 46 0 83 0;
#X connect 47 0 84 0;
#X connect 48 0 0 0;
#X connect 48 1 1 0;
#X connect 48 2 2 0;
#X connect 48 3 3 0;
#X connect 48 4 4 0;
#X connect 48 5 5 0;
#X connect 48 6 6 0;
#X connect 48 7 7 0;
#X connect 48 8 8 0;
#X connect 48 9 9 0;
#X connect 48 10 10 0;
#X connect 48 11 11 0;
#X connect 48 12 12 0;
#X connect 48 13 13 0;
#X connect 48 14 14 0;
#X connect 48 15 15 0;
#X connect 48 16 16 0;
#X connect 48 17 17 0;
#X connect 48 18 18 0;
#X connect 48 19 19 0;
#X connect 48 20 20 0;
#X connect 48 21 21 0;
#X connect 48 22 22 0;
#X connect 48 23 23 0;
#X connect 48 24 24 0;
#X connect 48 25 25 0;
#X connect 48 26 26 0;
#X connect 48 27 27 0;
#X connect 48 28 28 0;
#X connect 48 29 29 0;
#X connect 48 30 30 0;
#X connect 48 31 31 0;
#X connect 48 32 32 0;
#X connect 48 33 33 0;
#X connect 48 34 34 0;
#X connect 48 35 35 0;
#X connect 48 36 36 0;
#X connect 48 37 37 0;
#X connect 48 38 38 0;
#X connect 48 39 39 0;
#X connect 48 40 40 0;
#X connect 48 41 41 0;
#X connect 48 42 42 0;
#X connect 48 43 43 0;
#X connect 48 44 44 0;
#X connect 48 45 45 0;
#X connect 48 46 46 0;
#X connect 48 47 47 0;
#X connect 49 0 48 0;
#X connect 50 0 0 1;
#X connect 50 0 47 1;
#X connect 50 0 46 1;
#X connect 50 0 45 1;
#X connect 50 0 44 1;
#X connect 50 0 43 1;
#X connect 50 0 42 1;
#X connect 50 0 41 1;
#X connect 50 0 40 1;
#X connect 50 0 39 1;
#X connect 50 0 38 1;
#X connect 50 0 37 1;
#X connect 50 0 36 1;
#X connect 50 0 35 1;
#X connect 50 0 34 1;
#X connect 50 0 33 1;
#X connect 50 0 32 1;
#X connect 50 0 31 1;
#X connect 50 0 30 1;
#X connect 50 0 29 1;
#X connect 50 0 28 1;
#X connect 50 0 27 1;
#X connect 50 0 26 1;
#X connect 50 0 25 1;
#X connect 50 0 24 1;
#X connect 50 0 23 1;
#X connect 50 0 22 1;
#X connect 50 0 21 1;
#X connect 50 0 20 1;
#X connect 50 0 19 1;
#X connect 50 0 18 1;
#X connect 50 0 17 1;
#X connect 50 0 16 1;
#X connect 50 0 15 1;
#X connect 50 0 14 1;
#X connect 50 0 13 1;
#X connect 50 0 12 1;
#X connect 50 0 11 1;
#X connect 50 0 10 1;
#X connect 50 0 9 1;
#X connect 50 0 8 1;
#X connect 50 0 7 1;
#X connect 50 0 6 1;
#X connect 50 0 5 1;
#X connect 50 0 4 1;
#X connect 50 0 3 1;
#X connect 50 0 2 1;
#X connect 50 0 1 1;
#X connect 51 0 52 0;
#X connect 102 0 103 0;
#X connect 103 0 104 0;
#X connect 105 0 102 0;
#X restore 1855 448 pd player2\$1;
#X msg 2449 337 0;
#X msg 2490 338 1;
#X floatatom 1689 1500 5 0 0 0 - - -, f 5;
#X connect 0 0 19 0;
#X connect 1 0 0 0;
#X connect 2 0 3 0;
#X connect 3 0 6 0;
#X connect 4 0 57 0;
#X connect 5 0 3 1;
#X connect 6 0 4 0;
#X connect 7 0 12 0;
#X connect 8 0 7 0;
#X connect 9 0 8 0;
#X connect 10 0 9 0;
#X connect 10 1 11 0;
#X connect 11 0 7 0;
#X connect 12 0 13 0;
#X connect 13 0 16 0;
#X connect 14 0 15 0;
#X connect 14 1 15 1;
#X connect 15 0 18 0;
#X connect 16 0 42 0;
#X connect 16 0 50 0;
#X connect 16 0 40 0;
#X connect 16 0 123 0;
#X connect 18 0 13 1;
#X connect 18 0 17 0;
#X connect 19 2 2 0;
#X connect 20 0 7 0;
#X connect 21 0 218 1;
#X connect 22 0 5 0;
#X connect 27 0 30 0;
#X connect 28 0 218 0;
#X connect 29 0 28 0;
#X connect 30 0 29 0;
#X connect 31 0 32 0;
#X connect 32 0 27 0;
#X connect 33 0 35 0;
#X connect 33 0 27 0;
#X connect 34 0 27 0;
#X connect 40 0 34 0;
#X connect 42 0 51 0;
#X connect 42 0 106 0;
#X connect 48 0 31 0;
#X connect 52 0 192 0;
#X connect 53 0 218 1;
#X connect 54 0 94 0;
#X connect 55 0 54 0;
#X connect 56 0 115 0;
#X connect 58 0 9 1;
#X connect 58 0 8 1;
#X connect 59 0 15 0;
#X connect 60 0 20 0;
#X connect 60 0 198 0;
#X connect 61 0 219 1;
#X connect 62 0 67 0;
#X connect 63 0 62 0;
#X connect 64 0 63 0;
#X connect 65 0 64 0;
#X connect 65 1 66 0;
#X connect 66 0 62 0;
#X connect 67 0 68 0;
#X connect 68 0 71 0;
#X connect 69 0 70 0;
#X connect 69 1 70 1;
#X connect 70 0 73 0;
#X connect 71 0 75 0;
#X connect 71 0 77 0;
#X connect 71 0 88 0;
#X connect 71 0 118 0;
#X connect 73 0 68 1;
#X connect 73 0 72 0;
#X connect 74 0 62 0;
#X connect 75 0 78 0;
#X connect 75 0 104 0;
#X connect 79 0 64 1;
#X connect 79 0 63 1;
#X connect 80 0 70 0;
#X connect 81 0 74 0;
#X connect 81 0 197 0;
#X connect 82 0 83 0;
#X connect 83 0 90 0;
#X connect 84 0 86 0;
#X connect 84 0 90 0;
#X connect 85 0 90 0;
#X connect 88 0 85 0;
#X connect 89 0 82 0;
#X connect 90 0 93 0;
#X connect 91 0 219 0;
#X connect 92 0 91 0;
#X connect 93 0 92 0;
#X connect 95 0 34 1;
#X connect 96 0 42 1;
#X connect 97 0 14 0;
#X connect 98 0 31 1;
#X connect 99 0 69 0;
#X connect 102 0 85 1;
#X connect 103 0 82 1;
#X connect 105 0 194 0;
#X connect 105 0 220 0;
#X connect 107 0 53 0;
#X connect 107 0 216 0;
#X connect 108 0 1 0;
#X connect 109 0 21 0;
#X connect 110 0 61 0;
#X connect 111 0 112 0;
#X connect 112 0 33 0;
#X connect 113 0 114 0;
#X connect 114 0 218 1;
#X connect 115 0 84 0;
#X connect 116 0 190 0;
#X connect 117 0 10 0;
#X connect 117 0 199 0;
#X connect 119 0 75 1;
#X connect 120 0 48 0;
#X connect 120 0 217 0;
#X connect 121 0 218 1;
#X connect 122 0 121 0;
#X connect 124 0 89 0;
#X connect 125 0 65 0;
#X connect 125 0 200 0;
#X connect 126 0 219 1;
#X connect 127 0 126 0;
#X connect 127 0 221 0;
#X connect 128 0 129 0;
#X connect 129 0 219 1;
#X connect 130 0 142 1;
#X connect 130 0 143 1;
#X connect 130 0 144 1;
#X connect 130 0 145 1;
#X connect 131 0 146 1;
#X connect 131 0 149 1;
#X connect 131 0 148 1;
#X connect 131 0 147 1;
#X connect 132 0 153 1;
#X connect 132 0 152 1;
#X connect 132 0 151 1;
#X connect 132 0 150 1;
#X connect 133 0 157 1;
#X connect 133 0 156 1;
#X connect 133 0 155 1;
#X connect 133 0 154 1;
#X connect 134 0 158 1;
#X connect 134 0 161 1;
#X connect 134 0 160 1;
#X connect 134 0 159 1;
#X connect 135 0 165 1;
#X connect 135 0 164 1;
#X connect 135 0 163 1;
#X connect 135 0 162 1;
#X connect 136 0 169 1;
#X connect 136 0 168 1;
#X connect 136 0 167 1;
#X connect 136 0 166 1;
#X connect 137 0 173 1;
#X connect 137 0 172 1;
#X connect 137 0 171 1;
#X connect 137 0 170 1;
#X connect 138 0 174 1;
#X connect 138 0 177 1;
#X connect 138 0 176 1;
#X connect 138 0 175 1;
#X connect 139 0 181 1;
#X connect 139 0 180 1;
#X connect 139 0 179 1;
#X connect 139 0 178 1;
#X connect 140 0 185 1;
#X connect 140 0 184 1;
#X connect 140 0 183 1;
#X connect 140 0 182 1;
#X connect 141 0 189 1;
#X connect 141 0 188 1;
#X connect 141 0 187 1;
#X connect 141 0 186 1;
#X connect 142 0 44 0;
#X connect 142 0 209 0;
#X connect 143 0 45 0;
#X connect 143 0 209 0;
#X connect 144 0 46 0;
#X connect 144 0 209 0;
#X connect 145 0 47 0;
#X connect 145 0 209 0;
#X connect 146 0 44 0;
#X connect 146 0 209 0;
#X connect 147 0 45 0;
#X connect 147 0 209 0;
#X connect 148 0 46 0;
#X connect 148 0 209 0;
#X connect 149 0 47 0;
#X connect 149 0 209 0;
#X connect 150 0 44 0;
#X connect 150 0 209 0;
#X connect 151 0 45 0;
#X connect 151 0 209 0;
#X connect 152 0 46 0;
#X connect 152 0 209 0;
#X connect 153 0 47 0;
#X connect 153 0 209 0;
#X connect 154 0 44 0;
#X connect 154 0 209 0;
#X connect 155 0 45 0;
#X connect 155 0 209 0;
#X connect 156 0 46 0;
#X connect 156 0 209 0;
#X connect 157 0 47 0;
#X connect 157 0 209 0;
#X connect 158 0 44 0;
#X connect 158 0 209 0;
#X connect 159 0 45 0;
#X connect 159 0 209 0;
#X connect 160 0 46 0;
#X connect 160 0 209 0;
#X connect 161 0 47 0;
#X connect 161 0 209 0;
#X connect 162 0 44 0;
#X connect 162 0 209 0;
#X connect 163 0 45 0;
#X connect 163 0 209 0;
#X connect 164 0 46 0;
#X connect 164 0 209 0;
#X connect 165 0 47 0;
#X connect 165 0 209 0;
#X connect 166 0 44 0;
#X connect 166 0 209 0;
#X connect 167 0 45 0;
#X connect 167 0 209 0;
#X connect 168 0 46 0;
#X connect 168 0 209 0;
#X connect 169 0 47 0;
#X connect 169 0 209 0;
#X connect 170 0 44 0;
#X connect 170 0 209 0;
#X connect 171 0 45 0;
#X connect 171 0 209 0;
#X connect 172 0 46 0;
#X connect 172 0 209 0;
#X connect 173 0 47 0;
#X connect 173 0 209 0;
#X connect 174 0 44 0;
#X connect 174 0 209 0;
#X connect 175 0 45 0;
#X connect 175 0 209 0;
#X connect 176 0 46 0;
#X connect 176 0 209 0;
#X connect 177 0 47 0;
#X connect 177 0 209 0;
#X connect 178 0 44 0;
#X connect 178 0 209 0;
#X connect 179 0 45 0;
#X connect 179 0 209 0;
#X connect 180 0 46 0;
#X connect 180 0 209 0;
#X connect 181 0 47 0;
#X connect 181 0 209 0;
#X connect 182 0 44 0;
#X connect 182 0 209 0;
#X connect 183 0 45 0;
#X connect 183 0 209 0;
#X connect 184 0 46 0;
#X connect 184 0 209 0;
#X connect 185 0 47 0;
#X connect 185 0 209 0;
#X connect 186 0 44 0;
#X connect 186 0 209 0;
#X connect 187 0 45 0;
#X connect 187 0 209 0;
#X connect 188 0 46 0;
#X connect 188 0 209 0;
#X connect 189 0 47 0;
#X connect 189 0 209 0;
#X connect 190 0 196 0;
#X connect 190 1 191 0;
#X connect 191 0 53 0;
#X connect 192 0 195 0;
#X connect 192 1 193 0;
#X connect 193 0 194 0;
#X connect 194 0 219 1;
#X connect 195 0 194 0;
#X connect 196 0 53 0;
#X connect 201 0 202 0;
#X connect 201 0 222 0;
#X connect 202 0 204 0;
#X connect 204 0 203 0;
#X connect 204 0 214 0;
#X connect 205 0 213 0;
#X connect 206 0 207 0;
#X connect 207 0 201 0;
#X connect 209 0 205 0;
#X connect 209 0 215 0;
#X connect 210 0 211 0;
#X connect 213 0 201 0;
#X connect 214 0 212 0;
#X connect 216 0 218 2;
#X connect 217 0 218 2;
#X connect 218 0 142 0;
#X connect 218 1 143 0;
#X connect 218 2 144 0;
#X connect 218 3 145 0;
#X connect 218 4 146 0;
#X connect 218 5 147 0;
#X connect 218 6 148 0;
#X connect 218 7 149 0;
#X connect 218 8 150 0;
#X connect 218 9 151 0;
#X connect 218 10 152 0;
#X connect 218 11 153 0;
#X connect 218 12 154 0;
#X connect 218 13 155 0;
#X connect 218 14 156 0;
#X connect 218 15 157 0;
#X connect 218 16 158 0;
#X connect 218 17 159 0;
#X connect 218 18 160 0;
#X connect 218 19 161 0;
#X connect 218 20 162 0;
#X connect 218 21 163 0;
#X connect 218 22 164 0;
#X connect 218 23 165 0;
#X connect 218 24 166 0;
#X connect 218 25 167 0;
#X connect 218 26 168 0;
#X connect 218 27 169 0;
#X connect 218 28 170 0;
#X connect 218 29 171 0;
#X connect 218 30 172 0;
#X connect 218 31 173 0;
#X connect 218 32 174 0;
#X connect 218 33 175 0;
#X connect 218 34 176 0;
#X connect 218 35 177 0;
#X connect 218 36 178 0;
#X connect 218 37 179 0;
#X connect 218 38 180 0;
#X connect 218 39 181 0;
#X connect 218 40 182 0;
#X connect 218 41 183 0;
#X connect 218 42 184 0;
#X connect 218 43 185 0;
#X connect 218 44 186 0;
#X connect 218 45 187 0;
#X connect 218 46 188 0;
#X connect 218 47 189 0;
#X connect 219 0 142 0;
#X connect 219 1 143 0;
#X connect 219 2 144 0;
#X connect 219 3 145 0;
#X connect 219 4 146 0;
#X connect 219 5 147 0;
#X connect 219 6 148 0;
#X connect 219 7 149 0;
#X connect 219 8 150 0;
#X connect 219 9 151 0;
#X connect 219 10 152 0;
#X connect 219 11 153 0;
#X connect 219 12 154 0;
#X connect 219 13 155 0;
#X connect 219 14 156 0;
#X connect 219 15 157 0;
#X connect 219 16 158 0;
#X connect 219 17 159 0;
#X connect 219 18 160 0;
#X connect 219 19 161 0;
#X connect 219 20 162 0;
#X connect 219 21 163 0;
#X connect 219 22 164 0;
#X connect 219 23 165 0;
#X connect 219 24 166 0;
#X connect 219 25 167 0;
#X connect 219 26 168 0;
#X connect 219 27 169 0;
#X connect 219 28 170 0;
#X connect 219 29 171 0;
#X connect 219 30 172 0;
#X connect 219 31 173 0;
#X connect 219 32 174 0;
#X connect 219 33 175 0;
#X connect 219 34 176 0;
#X connect 219 35 177 0;
#X connect 219 36 178 0;
#X connect 219 37 179 0;
#X connect 219 38 180 0;
#X connect 219 39 181 0;
#X connect 219 40 182 0;
#X connect 219 41 183 0;
#X connect 219 42 184 0;
#X connect 219 43 185 0;
#X connect 219 44 186 0;
#X connect 219 45 187 0;
#X connect 219 46 188 0;
#X connect 219 47 189 0;
#X connect 220 0 219 2;
#X connect 221 0 219 2;
