#N canvas 362 66 840 717 12;
#N canvas 369 96 813 773 mixer 0;
#X obj 500 605 r volumemp3player;
#X obj 499 654 vu 15 120 empty empty -1 -8 0 10 -66577 -1 1 0;
#X obj 264 340 dac~ 1 2 3 4;
#X obj 167 227 *~;
#X obj 244 224 *~;
#X obj 324 224 *~;
#X obj 404 223 *~;
#X msg 617 251 1;
#X obj 616 216 loadbang;
#X obj 724 298 switch~;
#X obj 697 244 t f f;
#X msg 697 329 \$1 5;
#X obj 697 354 line~;
#X obj 724 273 pipe 8;
#X obj 697 146 tgl 15 0 empty pause PAUSE/RESUME 17 7 0 10 -258112
-1 -1 0 1;
#X obj 697 214 invert;
#X obj 590 140 r pausResume;
#X obj 46 109 vsl 36 137 0 1 0 0 empty empty empty 0 -9 0 10 -262144
-1 -1 13600 1;
#X obj 170 283 *~;
#X obj 247 280 *~;
#X obj 327 280 *~;
#X obj 407 279 *~;
#X text 102 74 Volume Ambience;
#X obj 137 146 catch~ fx1;
#X obj 228 143 catch~ fx2;
#X obj 344 143 catch~ fx3;
#X obj 459 142 catch~ fx4;
#X obj 121 551 catch~ mx1;
#X obj 234 552 catch~ mx2;
#X obj 350 552 catch~ mx3;
#X obj 465 551 catch~ mx4;
#X obj 69 505 vsl 36 137 0 1 0 0 empty empty empty 0 -9 0 10 -262144
-1 -1 0 1;
#X obj 190 680 *~;
#X obj 267 677 *~;
#X obj 347 677 *~;
#X obj 427 676 *~;
#X obj 269 758 dac~ 1 2 3 4;
#X text 69 471 Volume Music;
#X obj 46 17 loadbang;
#X msg 46 51 1;
#X connect 0 0 1 0;
#X connect 3 0 18 0;
#X connect 4 0 19 0;
#X connect 5 0 20 0;
#X connect 6 0 21 0;
#X connect 7 0 3 1;
#X connect 7 0 4 1;
#X connect 7 0 5 1;
#X connect 7 0 6 1;
#X connect 8 0 7 0;
#X connect 10 0 11 0;
#X connect 10 1 13 0;
#X connect 11 0 12 0;
#X connect 12 0 3 1;
#X connect 12 0 4 1;
#X connect 12 0 5 1;
#X connect 12 0 6 1;
#X connect 13 0 9 0;
#X connect 14 0 15 0;
#X connect 15 0 10 0;
#X connect 16 0 14 0;
#X connect 17 0 18 1;
#X connect 17 0 19 1;
#X connect 17 0 20 1;
#X connect 17 0 21 1;
#X connect 18 0 2 0;
#X connect 19 0 2 1;
#X connect 20 0 2 2;
#X connect 21 0 2 3;
#X connect 23 0 3 0;
#X connect 24 0 4 0;
#X connect 25 0 5 0;
#X connect 26 0 6 0;
#X connect 27 0 32 0;
#X connect 28 0 33 0;
#X connect 29 0 34 0;
#X connect 30 0 35 0;
#X connect 31 0 32 1;
#X connect 31 0 33 1;
#X connect 31 0 34 1;
#X connect 31 0 35 1;
#X connect 32 0 36 0;
#X connect 33 0 36 1;
#X connect 34 0 36 2;
#X connect 35 0 36 3;
#X connect 38 0 39 0;
#X connect 39 0 17 0;
#X restore 27 329 pd mixer;
#X obj 26 25 loadbang;
#X msg 23 164 \; pd dsp \$1;
#X obj 23 135 tgl 15 0 empty empty empty 17 7 0 10 -262144 -1 -1 1
1;
#X obj 24 102 loadbang;
#X obj 26 56 import mrpeach;
#N canvas 495 23 660 645 mp3player 0;
#X obj 302 316 adc~, f 5;
#X floatatom 414 439 5 0 0 0 - - -, f 5;
#X obj 394 212 vsl 15 128 0 1 0 0 empty empty empty 0 -9 0 10 -262144
-1 -1 0 1;
#X obj 306 381 *~;
#X obj 347 381 *~;
#X obj 263 510 s volumemp3player;
#X obj 263 467 pvu~;
#X obj 414 410 env~;
#X obj 397 139 r volumeMusic;
#X obj 25 338 throw~ mx1;
#X obj 26 369 throw~ mx2;
#X obj 24 409 throw~ mx3;
#X obj 25 440 throw~ mx4;
#X connect 0 0 3 0;
#X connect 0 1 4 0;
#X connect 2 0 3 1;
#X connect 2 0 4 1;
#X connect 3 0 6 0;
#X connect 3 0 7 0;
#X connect 3 0 9 0;
#X connect 3 0 11 0;
#X connect 4 0 6 0;
#X connect 4 0 10 0;
#X connect 4 0 12 0;
#X connect 6 0 5 0;
#X connect 7 0 1 0;
#X connect 8 0 2 0;
#X restore 29 256 pd mp3player;
#X obj 25 641 s pausResume;
#X obj 25 608 tgl 15 0 empty pause PAUSE/RESUME 17 7 0 10 -258112 -1
-1 0 1;
#X obj 25 537 loadbang;
#X obj 25 566 t b b;
#X obj 490 213 s mixDuration;
#X obj 571 119 s mixStop;
#X obj 571 30 bng 70 250 50 0 empty empty empty 17 7 0 10 -262144 -1
-1;
#X obj 377 239 s MP;
#X obj 208 28 bng 73 250 50 0 empty empty empty 17 7 0 10 -262144 -1
-1;
#X text 572 148 Stop all automation, f 11;
#X obj 282 240 s bringZero;
#X obj 304 203 bng 30 250 50 0 empty empty empty 17 7 0 10 -262144
-1 -1;
#X text 186 230 Bring all faders to 0, f 12;
#X obj 342 124 t b b b b b;
#X obj 423 318 s trackDuration;
#X obj 193 162 s startAutomation;
#N canvas 36 156 1244 832 faders 1;
#X obj -924 341 vsl 35 298 0 1 0 0 empty empty empty 0 -9 0 10 -262144
-1 -1 0 1;
#X obj -848 340 vsl 35 298 0 1 0 0 empty empty empty 0 -9 0 10 -262144
-1 -1 0 1;
#X obj -783 341 vsl 35 298 0 1 0 0 empty empty empty 0 -9 0 10 -262144
-1 -1 0 1;
#X obj -712 341 vsl 35 298 0 1 0 0 empty empty empty 0 -9 0 10 -262144
-1 -1 0 1;
#X obj -647 341 vsl 35 298 0 1 0 0 empty empty empty 0 -9 0 10 -262144
-1 -1 0 1;
#X obj -574 340 vsl 35 298 0 1 0 0 empty empty empty 0 -9 0 10 -262144
-1 -1 0 1;
#X obj -509 339 vsl 35 298 0 1 0 0 empty empty empty 0 -9 0 10 -262144
-1 -1 0 1;
#X obj -439 339 vsl 35 298 0 1 0 0 empty empty empty 0 -9 0 10 -262144
-1 -1 0 1;
#X obj -368 339 vsl 35 298 0 1 0 0 empty empty empty 0 -9 0 10 -262144
-1 -1 0 1;
#X obj -295 338 vsl 35 298 0 1 0 0 empty empty empty 0 -9 0 10 -262144
-1 -1 0 1;
#X obj -230 337 vsl 35 298 0 1 0 0 empty empty empty 0 -9 0 10 -262144
-1 -1 0 1;
#X obj -156 337 vsl 35 298 0 1 0 0 empty empty empty 0 -9 0 10 -262144
-1 -1 0 1;
#X obj -12 335 vsl 35 298 0 1 0 0 empty empty empty 0 -9 0 10 -262144
-1 -1 0 1;
#X obj 63 336 vsl 35 298 0 1 0 0 empty empty empty 0 -9 0 10 -262144
-1 -1 0 1;
#X obj 129 334 vsl 35 298 0 1 0 0 empty empty empty 0 -9 0 10 -262144
-1 -1 0 1;
#X obj 202 331 vsl 35 298 0 1 0 0 empty empty empty 0 -9 0 10 -262144
-1 -1 0 1;
#X obj -923 297 r f1 \$2;
#X obj -849 270 r f2 \$2;
#X obj -784 296 r f3 \$2;
#X obj -715 271 r f4 \$2;
#X obj -646 297 r f5 \$2;
#X obj -574 270 r f6 \$2;
#X obj -510 294 r f7 \$2;
#X obj -442 268 r f8 \$2;
#X obj -366 294 r f9 \$2;
#X obj -296 267 r f10 \$2;
#X obj -231 292 r f11 \$2;
#X obj -160 267 r f12 \$2;
#X obj -11 291 r f13 \$2;
#X obj 62 266 r f14 \$2;
#X obj 128 290 r f15 \$2;
#X obj 203 262 r f16 \$2;
#X obj 274 332 vsl 35 298 0 1 0 0 empty empty empty 0 -9 0 10 -262144
-1 -1 0 1;
#X obj 341 334 vsl 35 298 0 1 0 0 empty empty empty 0 -9 0 10 -262144
-1 -1 0 1;
#X obj 405 335 vsl 35 298 0 1 0 0 empty empty empty 0 -9 0 10 -262144
-1 -1 0 1;
#X obj 479 335 vsl 35 298 0 1 0 0 empty empty empty 0 -9 0 10 -262144
-1 -1 0 1;
#X obj 553 335 vsl 35 298 0 1 0 0 empty empty empty 0 -9 0 10 -262144
-1 -1 0 1;
#X obj 620 334 vsl 35 298 0 1 0 0 empty empty empty 0 -9 0 10 -262144
-1 -1 0 1;
#X obj 685 333 vsl 35 298 0 1 0 0 empty empty empty 0 -9 0 10 -262144
-1 -1 0 1;
#X obj 759 333 vsl 35 298 0 1 0 0 empty empty empty 0 -9 0 10 -262144
-1 -1 0 1;
#X obj 958 339 vsl 35 298 0 1 0 0 empty empty empty 0 -9 0 10 -262144
-1 -1 23100 1;
#X obj 1025 338 vsl 35 298 0 1 0 0 empty empty empty 0 -9 0 10 -262144
-1 -1 0 1;
#X obj 1095 337 vsl 35 298 0 1 0 0 empty empty empty 0 -9 0 10 -262144
-1 -1 0 1;
#X obj 1165 336 vsl 35 298 0 1 0 0 empty empty empty 0 -9 0 10 -262144
-1 -1 0 1;
#X obj 1235 337 vsl 35 298 0 1 0 0 empty empty empty 0 -9 0 10 -262144
-1 -1 0 1;
#X obj 1305 336 vsl 35 298 0 1 0 0 empty empty empty 0 -9 0 10 -262144
-1 -1 1650 1;
#X obj 1370 335 vsl 35 298 0 1 0 0 empty empty empty 0 -9 0 10 -262144
-1 -1 0 1;
#X obj 1444 335 vsl 35 298 0 1 0 0 empty empty empty 0 -9 0 10 -262144
-1 -1 0 1;
#X obj 275 289 r f17 \$2;
#X obj 340 264 r f18 \$2;
#X obj 404 290 r f19 \$2;
#X obj 476 265 r f20 \$2;
#X obj 554 291 r f21 \$2;
#X obj 620 264 r f22 \$2;
#X obj 684 288 r f23 \$2;
#X obj 756 262 r f24 \$2;
#X obj 960 294 r f25 \$2;
#X obj 1024 267 r f26 \$2;
#X obj 1094 292 r f27 \$2;
#X obj 1161 266 r f28 \$2;
#X obj 1236 293 r f29 \$2;
#X obj 1304 266 r f30 \$2;
#X obj 1369 291 r f31 \$2;
#X obj 1445 266 r f32 \$2;
#X obj 1513 332 vsl 35 298 0 1 0 0 empty empty empty 0 -9 0 10 -262144
-1 -1 0 1;
#X obj 1585 333 vsl 35 298 0 1 0 0 empty empty empty 0 -9 0 10 -262144
-1 -1 2753 1;
#X obj 1650 332 vsl 35 298 0 1 0 0 empty empty empty 0 -9 0 10 -262144
-1 -1 0 1;
#X obj 1724 332 vsl 35 298 0 1 0 0 empty empty empty 0 -9 0 10 -262144
-1 -1 26763 1;
#X obj 1842 332 vsl 35 298 0 1 0 0 empty empty empty 0 -9 0 10 -262144
-1 -1 0 1;
#X obj 1913 334 vsl 35 298 0 1 0 0 empty empty empty 0 -9 0 10 -262144
-1 -1 0 1;
#X obj 1982 335 vsl 35 298 0 1 0 0 empty empty empty 0 -9 0 10 -262144
-1 -1 0 1;
#X obj 2053 332 vsl 35 298 0 1 0 0 empty empty empty 0 -9 0 10 -262144
-1 -1 0 1;
#X obj 2122 331 vsl 35 298 0 1 0 0 empty empty empty 0 -9 0 10 -262144
-1 -1 0 1;
#X obj 2196 334 vsl 35 298 0 1 0 0 empty empty empty 0 -9 0 10 -262144
-1 -1 0 1;
#X obj 2259 333 vsl 35 298 0 1 0 0 empty empty empty 0 -9 0 10 -262144
-1 -1 0 1;
#X obj 2329 336 vsl 35 298 0 1 0 0 empty empty empty 0 -9 0 10 -262144
-1 -1 0 1;
#X obj 2401 336 vsl 35 298 0 1 0 0 empty empty empty 0 -9 0 10 -262144
-1 -1 0 1;
#X obj 2473 335 vsl 35 298 0 1 0 0 empty empty empty 0 -9 0 10 -262144
-1 -1 0 1;
#X obj 2541 334 vsl 35 298 0 1 0 0 empty empty empty 0 -9 0 10 -262144
-1 -1 0 1;
#X obj 2612 334 vsl 35 298 0 1 0 0 empty empty empty 0 -9 0 10 -262144
-1 -1 0 1;
#X obj 2746 333 vsl 35 298 0 1 0 0 empty empty empty 0 -9 0 10 -262144
-1 -1 0 1;
#X obj 2818 332 vsl 35 298 0 1 0 0 empty empty empty 0 -9 0 10 -262144
-1 -1 0 1;
#X obj 2882 331 vsl 35 298 0 1 0 0 empty empty empty 0 -9 0 10 -262144
-1 -1 0 1;
#X obj 2958 333 vsl 35 298 0 1 0 0 empty empty empty 0 -9 0 10 -262144
-1 -1 0 1;
#X obj 3023 334 vsl 35 298 0 1 0 0 empty empty empty 0 -9 0 10 -262144
-1 -1 0 1;
#X obj 3092 334 vsl 35 298 0 1 0 0 empty empty empty 0 -9 0 10 -262144
-1 -1 0 1;
#X obj 3158 332 vsl 35 298 0 1 0 0 empty empty empty 0 -9 0 10 -262144
-1 -1 0 1;
#X obj 3231 331 vsl 35 298 0 1 0 0 empty empty empty 0 -9 0 10 -262144
-1 -1 0 1;
#X obj 3302 331 vsl 35 298 0 1 0 0 empty empty empty 0 -9 0 10 -262144
-1 -1 0 1;
#X obj 3373 330 vsl 35 298 0 1 0 0 empty empty empty 0 -9 0 10 -262144
-1 -1 0 1;
#X obj 3442 329 vsl 35 298 0 1 0 0 empty empty empty 0 -9 0 10 -262144
-1 -1 0 1;
#X obj 3514 329 vsl 35 298 0 1 0 0 empty empty empty 0 -9 0 10 -262144
-1 -1 0 1;
#X obj 4988 497 vsl 35 298 0 1 0 0 empty empty empty 0 -9 0 10 -262144
-1 -1 0 1;
#X obj 5035 496 vsl 35 298 0 1 0 0 empty empty empty 0 -9 0 10 -262144
-1 -1 0 1;
#X obj 5080 495 vsl 35 298 0 1 0 0 empty empty empty 0 -9 0 10 -262144
-1 -1 0 1;
#X obj 5124 495 vsl 35 298 0 1 0 0 empty empty empty 0 -9 0 10 -262144
-1 -1 0 1;
#X obj 1514 289 r f33 \$2;
#X obj 1584 263 r f34 \$2;
#X obj 1649 287 r f35 \$2;
#X obj 1721 262 r f36 \$2;
#X obj 1843 289 r f37 \$2;
#X obj 1913 264 r f38 \$2;
#X obj 1981 290 r f39 \$2;
#X obj 2050 261 r f40 \$2;
#X obj 2122 291 r f41 \$2;
#X obj 2195 263 r f42 \$2;
#X obj 2259 291 r f43 \$2;
#X obj 2325 266 r f44 \$2;
#X obj 2402 292 r f45 \$2;
#X obj 2472 265 r f46 \$2;
#X obj 2540 290 r f47 \$2;
#X obj 2613 265 r f48 \$2;
#X obj 2747 290 r f49 \$2;
#X obj 2817 262 r f50 \$2;
#X obj 2881 287 r f51 \$2;
#X obj 2955 263 r f52 \$2;
#X obj 3024 290 r f53 \$2;
#X obj 3092 264 r f54 \$2;
#X obj 3157 287 r f55 \$2;
#X obj 3228 260 r f56 \$2;
#X obj 3304 286 r f57 \$2;
#X obj 3372 259 r f58 \$2;
#X obj 3441 284 r f59 \$2;
#X obj 3510 259 r f60 \$2;
#X obj 4989 453 r f61 \$2;
#X obj 5034 426 r f62 \$2;
#X obj 5079 451 r f63 \$2;
#X obj 5125 426 r f64 \$2;
#X floatatom -925 674 5 0 0 0 - - -, f 5;
#X msg -925 743 set \$1;
#X msg -924 871 306;
#X obj -985 778 r MP;
#X obj -925 963 s mPrst1;
#X msg -721 1070 127;
#X msg -675 1070 127;
#X msg -632 1067 127;
#X msg -586 1067 127;
#X msg -542 1068 127;
#X msg -496 1068 127;
#X msg -452 1067 109;
#X msg -406 1067 127;
#X msg -362 1068 118;
#X msg -316 1068 127;
#X msg 125 1088 127;
#X msg 173 1088 113;
#X msg 217 1089 91;
#X msg 263 1089 19;
#X msg 315 1085 12;
#X msg 361 1085 15;
#X msg 405 1086 22;
#X msg 451 1086 81;
#X msg 494 1083 23;
#X msg 540 1083 36;
#X msg 584 1084 15;
#X msg 630 1084 127;
#X msg 1143 1059 127;
#X msg 1189 1059 108;
#X msg 1233 1060 91;
#X msg 1279 1060 127;
#X msg 1322 1057 88;
#X msg 1368 1057 86;
#X msg 1412 1058 76;
#X msg 1458 1058 0;
#X msg 1508 1059 91;
#X msg 1554 1059 66;
#X msg 1598 1060 42;
#X msg 1649 1060 123;
#X msg 2018 1057 127;
#X msg 2064 1057 115;
#X msg 2108 1058 120;
#X msg 2154 1058 92;
#X msg 2198 1057 127;
#X msg 2244 1057 127;
#X msg 2288 1058 25;
#X msg 2334 1058 73;
#X msg 2377 1055 81;
#X msg 2423 1055 120;
#X msg 2467 1056 70;
#X msg 2513 1056 123;
#X msg 2915 1024 127;
#X msg 2961 1024 72;
#X msg 3005 1025 49;
#X msg 3051 1025 99;
#X msg 3094 1022 44;
#X msg 3140 1022 52;
#X msg 3184 1023 67;
#X msg 3230 1023 35;
#X msg 3274 1022 63;
#X msg 3320 1022 52;
#X msg 3364 1023 47;
#X msg 3410 1023 36;
#X floatatom 4985 835 5 0 127 0 - - -, f 5;
#X msg 4985 905 set \$1;
#X msg 4985 934 127;
#X obj 4985 875 r MP;
#X floatatom 5031 835 5 0 127 0 - - -, f 5;
#X msg 5031 905 set \$1;
#X msg 5031 934 127;
#X obj 5031 875 r MP;
#X floatatom 5075 836 5 0 127 0 - - -, f 5;
#X msg 5075 906 set \$1;
#X msg 5075 935 127;
#X obj 5075 876 r MP;
#X floatatom 5121 836 5 0 127 0 - - -, f 5;
#X msg 5121 906 set \$1;
#X msg 5121 935 127;
#X obj 5121 876 r MP;
#X obj 4985 968 s mPrst61;
#X obj 5030 968 s mPrst62;
#X obj 5075 969 s mPrst63;
#X obj 5122 969 s mPrst64;
#X text 5015 369 Save for rain track;
#X msg -765 1069 127;
#X text -1183 1212 ...;
#X floatatom -925 704 5 0 0 0 - - -, f 5;
#X obj -925 993 s add1;
#X msg -925 840 set \$1;
#X msg -924 903 52;
#X obj -925 932 -;
#X obj -925 808 t b b;
#X text -980 704 Lower;
#X text -986 673 Higher;
#X floatatom -853 674 5 0 127 0 - - -, f 5;
#X msg -853 742 set \$1;
#X msg -852 871 83;
#X floatatom -853 704 5 0 0 0 - - -, f 5;
#X msg -853 840 set \$1;
#X msg -852 903 62;
#X obj -853 932 -;
#X obj -853 808 t b b;
#X obj -854 963 s mPrst2;
#X obj -853 993 s add2;
#X floatatom -786 673 5 0 127 0 - - -, f 5;
#X msg -786 741 set \$1;
#X msg -785 870 127;
#X floatatom -786 703 5 0 0 0 - - -, f 5;
#X msg -786 839 set \$1;
#X msg -785 902 0;
#X obj -786 931 -;
#X obj -786 807 t b b;
#X floatatom -714 673 5 0 127 0 - - -, f 5;
#X msg -714 741 set \$1;
#X msg -713 870 123;
#X floatatom -714 703 5 0 0 0 - - -, f 5;
#X msg -714 839 set \$1;
#X msg -713 902 0;
#X obj -714 931 -;
#X obj -714 807 t b b;
#X obj -787 962 s mPrst3;
#X obj -715 962 s mPrst4;
#X obj -786 993 s add3;
#X obj -714 991 s add4;
#X floatatom -647 673 5 0 127 0 - - -, f 5;
#X msg -647 742 set \$1;
#X msg -646 870 96;
#X floatatom -647 703 5 0 0 0 - - -, f 5;
#X msg -647 839 set \$1;
#X msg -646 902 0;
#X obj -647 931 -;
#X obj -647 807 t b b;
#X floatatom -575 673 5 0 127 0 - - -, f 5;
#X msg -575 741 set \$1;
#X msg -574 870 127;
#X floatatom -575 703 5 0 0 0 - - -, f 5;
#X msg -575 839 set \$1;
#X msg -574 902 0;
#X obj -575 931 -;
#X obj -575 807 t b b;
#X floatatom -508 672 5 0 127 0 - - -, f 5;
#X msg -508 740 set \$1;
#X msg -507 869 127;
#X floatatom -508 702 5 0 0 0 - - -, f 5;
#X msg -508 838 set \$1;
#X msg -507 901 0;
#X obj -508 930 -;
#X obj -508 806 t b b;
#X floatatom -436 672 5 0 127 0 - - -, f 5;
#X msg -436 740 set \$1;
#X msg -435 869 71;
#X floatatom -436 702 5 0 0 0 - - -, f 5;
#X msg -436 838 set \$1;
#X msg -435 901 0;
#X obj -436 930 -;
#X obj -436 806 t b b;
#X obj -647 962 s mPrst5;
#X obj -576 962 s mPrst6;
#X obj -509 961 s mPrst7;
#X obj -437 961 s mPrst8;
#X obj -647 992 s add5;
#X obj -575 992 s add6;
#X obj -508 992 s add7;
#X obj -436 990 s add8;
#X floatatom -366 670 5 0 127 0 - - -, f 5;
#X msg -366 739 set \$1;
#X msg -365 867 53;
#X floatatom -366 700 5 0 0 0 - - -, f 5;
#X msg -366 836 set \$1;
#X msg -365 899 0;
#X obj -366 928 -;
#X obj -366 804 t b b;
#X floatatom -294 670 5 0 127 0 - - -, f 5;
#X msg -294 738 set \$1;
#X msg -293 867 126;
#X floatatom -294 700 5 0 0 0 - - -, f 5;
#X msg -294 836 set \$1;
#X msg -293 899 0;
#X obj -294 928 -;
#X obj -294 804 t b b;
#X floatatom -227 669 5 0 127 0 - - -, f 5;
#X msg -227 737 set \$1;
#X msg -226 866 76;
#X floatatom -227 699 5 0 0 0 - - -, f 5;
#X msg -227 835 set \$1;
#X msg -226 898 0;
#X obj -227 927 -;
#X obj -227 803 t b b;
#X floatatom -155 669 5 0 127 0 - - -, f 5;
#X msg -155 737 set \$1;
#X msg -154 866 90;
#X floatatom -155 699 5 0 0 0 - - -, f 5;
#X msg -155 835 set \$1;
#X msg -154 898 0;
#X obj -155 927 -;
#X obj -155 803 t b b;
#X obj -366 959 s mPrst9;
#X obj -295 959 s mPrst10;
#X obj -228 958 s mPrst11;
#X obj -156 958 s mPrst12;
#X obj -366 989 s add9;
#X obj -294 989 s add10;
#X obj -227 989 s add11;
#X obj -155 987 s add12;
#X floatatom -10 667 5 0 127 0 - - -, f 5;
#X msg -10 736 set \$1;
#X msg -9 864 85.84;
#X floatatom -10 697 5 0 0 0 - - -, f 5;
#X msg -10 833 set \$1;
#X msg -9 896 66;
#X obj -10 925 -;
#X obj -10 801 t b b;
#X floatatom 62 667 5 0 127 0 - - -, f 5;
#X msg 62 735 set \$1;
#X msg 63 864 65;
#X floatatom 62 697 5 0 0 0 - - -, f 5;
#X msg 62 833 set \$1;
#X msg 63 896 46;
#X obj 62 925 -;
#X obj 62 801 t b b;
#X floatatom 129 666 5 0 127 0 - - -, f 5;
#X msg 129 734 set \$1;
#X msg 130 863 57;
#X floatatom 129 696 5 0 0 0 - - -, f 5;
#X msg 129 832 set \$1;
#X msg 130 895 28;
#X obj 129 924 -;
#X obj 129 800 t b b;
#X floatatom 201 666 5 0 127 0 - - -, f 5;
#X msg 201 734 set \$1;
#X msg 202 863 4.63;
#X floatatom 201 696 5 0 0 0 - - -, f 5;
#X msg 201 832 set \$1;
#X msg 202 895 0;
#X obj 201 924 -;
#X obj 201 800 t b b;
#X floatatom 268 666 5 0 127 0 - - -, f 5;
#X msg 268 735 set \$1;
#X msg 269 863 2.85;
#X floatatom 268 696 5 0 0 0 - - -, f 5;
#X msg 268 832 set \$1;
#X msg 269 895 0;
#X obj 268 924 -;
#X obj 268 800 t b b;
#X floatatom 340 666 5 0 127 0 - - -, f 5;
#X msg 340 734 set \$1;
#X msg 341 863 10.17;
#X floatatom 340 696 5 0 0 0 - - -, f 5;
#X msg 340 832 set \$1;
#X msg 341 895 0;
#X obj 340 924 -;
#X obj 340 800 t b b;
#X floatatom 407 665 5 0 127 0 - - -, f 5;
#X msg 407 733 set \$1;
#X msg 408 862 14.88;
#X floatatom 407 695 5 0 0 0 - - -, f 5;
#X msg 407 831 set \$1;
#X msg 408 894 0;
#X obj 407 923 -;
#X obj 407 799 t b b;
#X floatatom 479 665 5 0 127 0 - - -, f 5;
#X msg 479 733 set \$1;
#X msg 480 862 65.75;
#X floatatom 479 695 5 0 0 0 - - -, f 5;
#X msg 479 831 set \$1;
#X msg 480 894 0;
#X obj 479 923 -;
#X obj 479 799 t b b;
#X floatatom 549 663 5 0 127 0 - - -, f 5;
#X msg 549 732 set \$1;
#X msg 550 860 30;
#X floatatom 549 693 5 0 0 0 - - -, f 5;
#X msg 549 829 set \$1;
#X msg 550 892 0;
#X obj 549 921 -;
#X obj 549 797 t b b;
#X floatatom 621 663 5 0 127 0 - - -, f 5;
#X msg 621 731 set \$1;
#X msg 622 860 16.7;
#X floatatom 621 693 5 0 0 0 - - -, f 5;
#X msg 621 829 set \$1;
#X msg 622 892 0;
#X obj 621 921 -;
#X obj 621 797 t b b;
#X floatatom 688 662 5 0 127 0 - - -, f 5;
#X msg 688 730 set \$1;
#X msg 689 859 16;
#X floatatom 688 692 5 0 0 0 - - -, f 5;
#X msg 688 828 set \$1;
#X msg 689 891 0;
#X obj 688 920 -;
#X obj 688 796 t b b;
#X floatatom 760 662 5 0 127 0 - - -, f 5;
#X msg 760 730 set \$1;
#X msg 761 859 126;
#X floatatom 760 692 5 0 0 0 - - -, f 5;
#X msg 760 828 set \$1;
#X msg 761 891 0;
#X obj 760 920 -;
#X obj 760 796 t b b;
#X obj -10 956 s mPrst13;
#X obj 61 956 s mPrst14;
#X obj 128 955 s mPrst15;
#X obj 200 955 s mPrst16;
#X obj 268 955 s mPrst17;
#X obj 339 955 s mPrst18;
#X obj 406 954 s mPrst19;
#X obj 549 952 s mPrst21;
#X obj 620 952 s mPrst22;
#X obj 687 951 s mPrst23;
#X obj 759 951 s mPrst24;
#X obj -10 986 s add13;
#X obj 62 986 s add14;
#X obj 129 986 s add15;
#X obj 201 984 s add16;
#X obj 268 985 s add17;
#X obj 340 985 s add18;
#X obj 407 985 s add19;
#X obj 479 983 s add20;
#X obj 549 982 s add21;
#X obj 621 982 s add22;
#X obj 688 982 s add23;
#X obj 760 980 s add24;
#X floatatom 954 661 5 0 0 0 - - -, f 5;
#X msg 954 730 set \$1;
#X msg 955 858 167;
#X floatatom 954 691 5 0 0 0 - - -, f 5;
#X msg 954 827 set \$1;
#X msg 955 890 83;
#X obj 954 919 -;
#X obj 954 795 t b b;
#X floatatom 1026 661 5 0 127 0 - - -, f 5;
#X msg 1026 729 set \$1;
#X msg 1027 858 85.78;
#X floatatom 1026 691 5 0 0 0 - - -, f 5;
#X msg 1026 827 set \$1;
#X msg 1027 890 19;
#X obj 1026 919 -;
#X obj 1026 795 t b b;
#X floatatom 1093 660 5 0 127 0 - - -, f 5;
#X msg 1093 728 set \$1;
#X msg 1094 857 18;
#X floatatom 1093 690 5 0 0 0 - - -, f 5;
#X msg 1093 826 set \$1;
#X msg 1094 889 75;
#X obj 1093 918 -;
#X obj 1093 794 t b b;
#X floatatom 1165 660 5 0 127 0 - - -, f 5;
#X msg 1165 728 set \$1;
#X msg 1166 857 7;
#X floatatom 1165 690 5 0 0 0 - - -, f 5;
#X msg 1165 826 set \$1;
#X msg 1166 889 0;
#X obj 1165 918 -;
#X obj 1165 794 t b b;
#X floatatom 1232 660 5 0 127 0 - - -, f 5;
#X msg 1232 729 set \$1;
#X msg 1233 857 27.36;
#X floatatom 1232 690 5 0 0 0 - - -, f 5;
#X msg 1232 826 set \$1;
#X msg 1233 889 0;
#X obj 1232 918 -;
#X obj 1232 794 t b b;
#X floatatom 1304 660 5 0 127 0 - - -, f 5;
#X msg 1304 728 set \$1;
#X msg 1305 857 27;
#X floatatom 1304 690 5 0 0 0 - - -, f 5;
#X msg 1304 826 set \$1;
#X msg 1305 889 0;
#X obj 1304 918 -;
#X obj 1304 794 t b b;
#X floatatom 1371 659 5 0 127 0 - - -, f 5;
#X msg 1371 727 set \$1;
#X msg 1372 856 9;
#X floatatom 1371 689 5 0 0 0 - - -, f 5;
#X msg 1371 825 set \$1;
#X msg 1372 888 0;
#X obj 1371 917 -;
#X obj 1371 793 t b b;
#X floatatom 1443 659 5 0 127 0 - - -, f 5;
#X msg 1443 727 set \$1;
#X msg 1444 856 0;
#X floatatom 1443 689 5 0 0 0 - - -, f 5;
#X msg 1443 825 set \$1;
#X msg 1444 888 0;
#X obj 1443 917 -;
#X obj 1443 793 t b b;
#X floatatom 1513 657 5 0 127 0 - - -, f 5;
#X msg 1513 726 set \$1;
#X msg 1514 854 47;
#X floatatom 1513 687 5 0 0 0 - - -, f 5;
#X msg 1513 823 set \$1;
#X msg 1514 886 0;
#X obj 1513 915 -;
#X obj 1513 791 t b b;
#X floatatom 1585 657 5 0 127 0 - - -, f 5;
#X msg 1585 725 set \$1;
#X msg 1586 854 11.68;
#X floatatom 1585 687 5 0 0 0 - - -, f 5;
#X msg 1585 823 set \$1;
#X msg 1586 886 0;
#X obj 1585 915 -;
#X obj 1585 791 t b b;
#X floatatom 1652 656 5 0 127 0 - - -, f 5;
#X msg 1652 724 set \$1;
#X msg 1653 853 28.53;
#X floatatom 1652 686 5 0 0 0 - - -, f 5;
#X msg 1652 822 set \$1;
#X msg 1653 885 0;
#X obj 1652 914 -;
#X obj 1652 790 t b b;
#X floatatom 1724 656 5 0 127 0 - - -, f 5;
#X msg 1724 724 set \$1;
#X msg 1725 853 127;
#X floatatom 1724 686 5 0 0 0 - - -, f 5;
#X msg 1724 822 set \$1;
#X msg 1725 885 0;
#X obj 1724 914 -;
#X obj 1724 790 t b b;
#X obj 954 950 s mPrst25;
#X obj 1025 950 s mPrst26;
#X obj 1092 949 s mPrst27;
#X obj 1164 949 s mPrst28;
#X obj 1232 949 s mPrst29;
#X obj 1303 949 s mPrst30;
#X obj 1370 948 s mPrst31;
#X obj 1513 946 s mPrst33;
#X obj 1584 946 s mPrst34;
#X obj 1651 945 s mPrst35;
#X obj 1723 945 s mPrst36;
#X obj 954 980 s add25;
#X obj 1026 980 s add26;
#X obj 1094 980 s add27;
#X obj 1165 978 s add28;
#X obj 1232 979 s add29;
#X obj 1304 979 s add30;
#X obj 1371 979 s add31;
#X obj 1443 977 s add32;
#X obj 1514 976 s add33;
#X obj 1585 976 s add34;
#X obj 1652 976 s add35;
#X obj 1724 974 s add36;
#X floatatom 1842 659 5 0 0 0 - - -, f 5;
#X msg 1842 728 set \$1;
#X msg 1843 856 340;
#X floatatom 1842 689 5 0 0 0 - - -, f 5;
#X msg 1842 825 set \$1;
#X msg 1843 888 188;
#X obj 1842 917 -;
#X obj 1842 793 t b b;
#X floatatom 1914 659 5 0 127 0 - - -, f 5;
#X msg 1914 727 set \$1;
#X msg 1915 856 79;
#X floatatom 1914 689 5 0 0 0 - - -, f 5;
#X msg 1914 825 set \$1;
#X msg 1915 888 95;
#X obj 1914 917 -;
#X obj 1914 793 t b b;
#X floatatom 1981 658 5 0 127 0 - - -, f 5;
#X msg 1981 726 set \$1;
#X msg 1982 855 42;
#X floatatom 1981 688 5 0 0 0 - - -, f 5;
#X msg 1981 824 set \$1;
#X msg 1982 887 100;
#X obj 1981 916 -;
#X obj 1981 792 t b b;
#X floatatom 2053 658 5 0 127 0 - - -, f 5;
#X msg 2053 726 set \$1;
#X msg 2054 855 127;
#X floatatom 2053 688 5 0 0 0 - - -, f 5;
#X msg 2053 824 set \$1;
#X msg 2054 887 60;
#X obj 2053 916 -;
#X obj 2053 792 t b b;
#X floatatom 2120 658 5 0 127 0 - - -, f 5;
#X msg 2120 727 set \$1;
#X msg 2121 855 127;
#X floatatom 2120 688 5 0 0 0 - - -, f 5;
#X msg 2120 824 set \$1;
#X msg 2121 887 0;
#X obj 2120 916 -;
#X obj 2120 792 t b b;
#X floatatom 2192 658 5 0 127 0 - - -, f 5;
#X msg 2192 726 set \$1;
#X msg 2193 855 127;
#X floatatom 2192 688 5 0 0 0 - - -, f 5;
#X msg 2192 824 set \$1;
#X msg 2193 887 0;
#X obj 2192 916 -;
#X obj 2192 792 t b b;
#X floatatom 2259 657 5 0 127 0 - - -, f 5;
#X msg 2259 725 set \$1;
#X msg 2260 854 18;
#X floatatom 2259 687 5 0 0 0 - - -, f 5;
#X msg 2259 823 set \$1;
#X msg 2260 886 0;
#X obj 2259 915 -;
#X obj 2259 791 t b b;
#X floatatom 2331 657 5 0 127 0 - - -, f 5;
#X msg 2331 725 set \$1;
#X msg 2332 854 92;
#X floatatom 2331 687 5 0 0 0 - - -, f 5;
#X msg 2331 823 set \$1;
#X msg 2332 886 0;
#X obj 2331 915 -;
#X obj 2331 791 t b b;
#X floatatom 2401 655 5 0 127 0 - - -, f 5;
#X msg 2401 724 set \$1;
#X msg 2402 852 70;
#X floatatom 2401 685 5 0 0 0 - - -, f 5;
#X msg 2401 821 set \$1;
#X msg 2402 884 0;
#X obj 2401 913 -;
#X obj 2401 789 t b b;
#X floatatom 2473 655 5 0 127 0 - - -, f 5;
#X msg 2473 723 set \$1;
#X msg 2474 852 67;
#X floatatom 2473 685 5 0 0 0 - - -, f 5;
#X msg 2473 821 set \$1;
#X msg 2474 884 0;
#X obj 2473 913 -;
#X obj 2473 789 t b b;
#X floatatom 2540 654 5 0 127 0 - - -, f 5;
#X msg 2540 722 set \$1;
#X msg 2541 851 104;
#X floatatom 2540 684 5 0 0 0 - - -, f 5;
#X msg 2540 820 set \$1;
#X msg 2541 883 0;
#X obj 2540 912 -;
#X obj 2540 788 t b b;
#X floatatom 2612 654 5 0 127 0 - - -, f 5;
#X msg 2612 722 set \$1;
#X msg 2613 851 103;
#X floatatom 2612 684 5 0 0 0 - - -, f 5;
#X msg 2612 820 set \$1;
#X msg 2613 883 0;
#X obj 2612 912 -;
#X obj 2612 788 t b b;
#X obj 1843 948 s mPrst37;
#X obj 1913 948 s mPrst38;
#X obj 1980 947 s mPrst39;
#X obj 2052 947 s mPrst40;
#X obj 2120 947 s mPrst41;
#X obj 2191 947 s mPrst42;
#X obj 2258 946 s mPrst43;
#X obj 2401 944 s mPrst45;
#X obj 2472 944 s mPrst46;
#X obj 2539 943 s mPrst47;
#X obj 2611 943 s mPrst48;
#X obj 1842 978 s add37;
#X obj 1914 978 s add38;
#X obj 1981 978 s add39;
#X obj 2053 976 s add40;
#X obj 2120 977 s add41;
#X obj 2192 977 s add42;
#X obj 2259 977 s add43;
#X obj 2332 975 s add44;
#X obj 2402 974 s add45;
#X obj 2473 974 s add46;
#X obj 2540 974 s add47;
#X obj 2612 972 s add48;
#X floatatom 2745 650 5 0 0 0 - - -, f 5;
#X msg 2745 719 set \$1;
#X msg 2746 847 40;
#X floatatom 2745 680 5 0 0 0 - - -, f 5;
#X msg 2745 816 set \$1;
#X msg 2746 879 38;
#X obj 2745 908 -;
#X obj 2745 784 t b b;
#X floatatom 2817 650 5 0 127 0 - - -, f 5;
#X msg 2817 718 set \$1;
#X msg 2818 847 21;
#X floatatom 2817 680 5 0 0 0 - - -, f 5;
#X msg 2817 816 set \$1;
#X msg 2818 879 28;
#X obj 2817 908 -;
#X obj 2817 784 t b b;
#X floatatom 2884 649 5 0 127 0 - - -, f 5;
#X msg 2884 717 set \$1;
#X msg 2885 846 19;
#X floatatom 2884 679 5 0 0 0 - - -, f 5;
#X msg 2884 815 set \$1;
#X msg 2885 878 30;
#X obj 2884 907 -;
#X obj 2884 783 t b b;
#X floatatom 2956 649 5 0 127 0 - - -, f 5;
#X msg 2956 717 set \$1;
#X msg 2957 846 30;
#X floatatom 2956 679 5 0 0 0 - - -, f 5;
#X msg 2956 815 set \$1;
#X msg 2957 878 0;
#X obj 2956 907 -;
#X obj 2956 783 t b b;
#X floatatom 3023 649 5 0 127 0 - - -, f 5;
#X msg 3023 718 set \$1;
#X msg 3024 846 35;
#X floatatom 3023 679 5 0 0 0 - - -, f 5;
#X msg 3023 815 set \$1;
#X msg 3024 878 0;
#X obj 3023 907 -;
#X obj 3023 783 t b b;
#X floatatom 3095 649 5 0 127 0 - - -, f 5;
#X msg 3095 717 set \$1;
#X msg 3096 846 44;
#X floatatom 3095 679 5 0 0 0 - - -, f 5;
#X msg 3095 815 set \$1;
#X msg 3096 878 0;
#X obj 3095 907 -;
#X obj 3095 783 t b b;
#X floatatom 3162 648 5 0 127 0 - - -, f 5;
#X msg 3162 716 set \$1;
#X msg 3163 845 32;
#X floatatom 3162 678 5 0 0 0 - - -, f 5;
#X msg 3162 814 set \$1;
#X msg 3163 877 0;
#X obj 3162 906 -;
#X obj 3162 782 t b b;
#X floatatom 3234 648 5 0 127 0 - - -, f 5;
#X msg 3234 716 set \$1;
#X msg 3235 845 18;
#X floatatom 3234 678 5 0 0 0 - - -, f 5;
#X msg 3234 814 set \$1;
#X msg 3235 877 0;
#X obj 3234 906 -;
#X obj 3234 782 t b b;
#X floatatom 3304 646 5 0 127 0 - - -, f 5;
#X msg 3304 715 set \$1;
#X msg 3305 843 24.61;
#X floatatom 3304 676 5 0 0 0 - - -, f 5;
#X msg 3304 812 set \$1;
#X msg 3305 875 0;
#X obj 3304 904 -;
#X obj 3304 780 t b b;
#X floatatom 3376 646 5 0 127 0 - - -, f 5;
#X msg 3376 714 set \$1;
#X msg 3377 843 24.73;
#X floatatom 3376 676 5 0 0 0 - - -, f 5;
#X msg 3376 812 set \$1;
#X msg 3377 875 0;
#X obj 3376 904 -;
#X obj 3376 780 t b b;
#X floatatom 3443 645 5 0 127 0 - - -, f 5;
#X msg 3443 713 set \$1;
#X msg 3444 842 19;
#X floatatom 3443 675 5 0 0 0 - - -, f 5;
#X msg 3443 811 set \$1;
#X msg 3444 874 0;
#X obj 3443 903 -;
#X obj 3443 779 t b b;
#X floatatom 3515 645 5 0 127 0 - - -, f 5;
#X msg 3515 713 set \$1;
#X msg 3516 842 5.61;
#X floatatom 3515 675 5 0 0 0 - - -, f 5;
#X msg 3515 811 set \$1;
#X msg 3516 874 0;
#X obj 3515 903 -;
#X obj 3515 779 t b b;
#X obj 2746 939 s mPrst49;
#X obj 2816 939 s mPrst50;
#X obj 2883 938 s mPrst51;
#X obj 2955 938 s mPrst52;
#X obj 3023 938 s mPrst53;
#X obj 3094 938 s mPrst54;
#X obj 3161 937 s mPrst55;
#X obj 3304 935 s mPrst57;
#X obj 3375 935 s mPrst58;
#X obj 3442 934 s mPrst59;
#X obj 3514 934 s mPrst60;
#X obj 2745 969 s add49;
#X obj 2817 969 s add50;
#X obj 2884 969 s add51;
#X obj 2956 967 s add52;
#X obj 3023 968 s add53;
#X obj 3096 968 s add54;
#X obj 3162 968 s add55;
#X obj 3235 966 s add56;
#X obj 3305 965 s add57;
#X obj 3376 965 s add58;
#X obj 3443 965 s add59;
#X obj 3515 963 s add60;
#X text -722 648 Monkeys;
#X obj 478 954 s mPrst20;
#X obj 1442 948 s mPrst32;
#X text -659 648 Woodpeck;
#X obj 2330 946 s mPrst44;
#X obj 3233 937 s mPrst56;
#X connect 16 0 0 0;
#X connect 17 0 1 0;
#X connect 18 0 2 0;
#X connect 19 0 3 0;
#X connect 20 0 4 0;
#X connect 21 0 5 0;
#X connect 22 0 6 0;
#X connect 23 0 7 0;
#X connect 24 0 8 0;
#X connect 25 0 9 0;
#X connect 26 0 10 0;
#X connect 27 0 11 0;
#X connect 28 0 12 0;
#X connect 29 0 13 0;
#X connect 30 0 14 0;
#X connect 31 0 15 0;
#X connect 48 0 32 0;
#X connect 49 0 33 0;
#X connect 50 0 34 0;
#X connect 51 0 35 0;
#X connect 52 0 36 0;
#X connect 53 0 37 0;
#X connect 54 0 38 0;
#X connect 55 0 39 0;
#X connect 56 0 40 0;
#X connect 57 0 41 0;
#X connect 58 0 42 0;
#X connect 59 0 43 0;
#X connect 60 0 44 0;
#X connect 61 0 45 0;
#X connect 62 0 46 0;
#X connect 63 0 47 0;
#X connect 96 0 64 0;
#X connect 97 0 65 0;
#X connect 98 0 66 0;
#X connect 99 0 67 0;
#X connect 100 0 68 0;
#X connect 101 0 69 0;
#X connect 102 0 70 0;
#X connect 103 0 71 0;
#X connect 104 0 72 0;
#X connect 105 0 73 0;
#X connect 106 0 74 0;
#X connect 107 0 75 0;
#X connect 108 0 76 0;
#X connect 109 0 77 0;
#X connect 110 0 78 0;
#X connect 111 0 79 0;
#X connect 112 0 80 0;
#X connect 113 0 81 0;
#X connect 114 0 82 0;
#X connect 115 0 83 0;
#X connect 116 0 84 0;
#X connect 117 0 85 0;
#X connect 118 0 86 0;
#X connect 119 0 87 0;
#X connect 120 0 88 0;
#X connect 121 0 89 0;
#X connect 122 0 90 0;
#X connect 123 0 91 0;
#X connect 124 0 92 0;
#X connect 125 0 93 0;
#X connect 126 0 94 0;
#X connect 127 0 95 0;
#X connect 128 0 129 0;
#X connect 128 0 132 0;
#X connect 129 0 130 0;
#X connect 130 0 218 0;
#X connect 131 0 219 0;
#X connect 131 0 229 0;
#X connect 131 0 283 0;
#X connect 131 0 275 0;
#X connect 131 0 267 0;
#X connect 131 0 259 0;
#X connect 131 0 247 0;
#X connect 131 0 239 0;
#X connect 131 0 299 0;
#X connect 131 0 323 0;
#X connect 131 0 315 0;
#X connect 131 0 307 0;
#X connect 131 0 339 0;
#X connect 131 0 347 0;
#X connect 131 0 784 0;
#X connect 131 0 776 0;
#X connect 131 0 768 0;
#X connect 131 0 760 0;
#X connect 131 0 752 0;
#X connect 131 0 744 0;
#X connect 131 0 736 0;
#X connect 131 0 728 0;
#X connect 131 0 720 0;
#X connect 131 0 712 0;
#X connect 131 0 704 0;
#X connect 131 0 696 0;
#X connect 131 0 665 0;
#X connect 131 0 657 0;
#X connect 131 0 649 0;
#X connect 131 0 641 0;
#X connect 131 0 633 0;
#X connect 131 0 625 0;
#X connect 131 0 617 0;
#X connect 131 0 609 0;
#X connect 131 0 601 0;
#X connect 131 0 593 0;
#X connect 131 0 585 0;
#X connect 131 0 577 0;
#X connect 131 0 546 0;
#X connect 131 0 538 0;
#X connect 131 0 530 0;
#X connect 131 0 522 0;
#X connect 131 0 514 0;
#X connect 131 0 506 0;
#X connect 131 0 498 0;
#X connect 131 0 490 0;
#X connect 131 0 482 0;
#X connect 131 0 474 0;
#X connect 131 0 466 0;
#X connect 131 0 458 0;
#X connect 131 0 427 0;
#X connect 131 0 419 0;
#X connect 131 0 411 0;
#X connect 131 0 403 0;
#X connect 131 0 395 0;
#X connect 131 0 387 0;
#X connect 131 0 379 0;
#X connect 131 0 371 0;
#X connect 131 0 363 0;
#X connect 131 0 355 0;
#X connect 191 0 192 0;
#X connect 191 0 207 0;
#X connect 192 0 193 0;
#X connect 193 0 207 0;
#X connect 194 0 193 0;
#X connect 195 0 196 0;
#X connect 195 0 208 0;
#X connect 196 0 197 0;
#X connect 197 0 208 0;
#X connect 198 0 197 0;
#X connect 199 0 200 0;
#X connect 199 0 209 0;
#X connect 200 0 201 0;
#X connect 201 0 209 0;
#X connect 202 0 201 0;
#X connect 203 0 204 0;
#X connect 203 0 210 0;
#X connect 204 0 205 0;
#X connect 205 0 210 0;
#X connect 206 0 205 0;
#X connect 214 0 215 0;
#X connect 214 0 216 0;
#X connect 214 0 132 0;
#X connect 216 0 217 0;
#X connect 217 0 215 0;
#X connect 217 0 218 1;
#X connect 218 0 132 0;
#X connect 219 0 130 0;
#X connect 219 1 217 0;
#X connect 222 0 223 0;
#X connect 222 0 230 0;
#X connect 223 0 224 0;
#X connect 224 0 228 0;
#X connect 225 0 226 0;
#X connect 225 0 230 0;
#X connect 225 0 231 0;
#X connect 226 0 227 0;
#X connect 227 0 228 1;
#X connect 227 0 231 0;
#X connect 228 0 230 0;
#X connect 229 0 224 0;
#X connect 229 1 227 0;
#X connect 232 0 233 0;
#X connect 232 0 248 0;
#X connect 233 0 234 0;
#X connect 234 0 238 0;
#X connect 235 0 236 0;
#X connect 235 0 248 0;
#X connect 235 0 250 0;
#X connect 236 0 237 0;
#X connect 237 0 238 1;
#X connect 237 0 250 0;
#X connect 238 0 248 0;
#X connect 239 0 234 0;
#X connect 239 1 237 0;
#X connect 240 0 241 0;
#X connect 240 0 249 0;
#X connect 241 0 242 0;
#X connect 242 0 246 0;
#X connect 243 0 244 0;
#X connect 243 0 249 0;
#X connect 243 0 251 0;
#X connect 244 0 245 0;
#X connect 245 0 246 1;
#X connect 245 0 251 0;
#X connect 246 0 249 0;
#X connect 247 0 242 0;
#X connect 247 1 245 0;
#X connect 252 0 253 0;
#X connect 252 0 284 0;
#X connect 253 0 254 0;
#X connect 254 0 258 0;
#X connect 255 0 256 0;
#X connect 255 0 284 0;
#X connect 255 0 288 0;
#X connect 256 0 257 0;
#X connect 257 0 258 1;
#X connect 257 0 288 0;
#X connect 258 0 284 0;
#X connect 259 0 254 0;
#X connect 259 1 257 0;
#X connect 260 0 261 0;
#X connect 260 0 285 0;
#X connect 261 0 262 0;
#X connect 262 0 266 0;
#X connect 263 0 264 0;
#X connect 263 0 285 0;
#X connect 263 0 289 0;
#X connect 264 0 265 0;
#X connect 265 0 266 1;
#X connect 265 0 289 0;
#X connect 266 0 285 0;
#X connect 267 0 262 0;
#X connect 267 1 265 0;
#X connect 268 0 269 0;
#X connect 268 0 286 0;
#X connect 269 0 270 0;
#X connect 270 0 274 0;
#X connect 271 0 272 0;
#X connect 271 0 286 0;
#X connect 271 0 290 0;
#X connect 272 0 273 0;
#X connect 273 0 274 1;
#X connect 273 0 290 0;
#X connect 274 0 286 0;
#X connect 275 0 270 0;
#X connect 275 1 273 0;
#X connect 276 0 277 0;
#X connect 276 0 287 0;
#X connect 277 0 278 0;
#X connect 278 0 282 0;
#X connect 279 0 280 0;
#X connect 279 0 287 0;
#X connect 279 0 291 0;
#X connect 280 0 281 0;
#X connect 281 0 282 1;
#X connect 281 0 291 0;
#X connect 282 0 287 0;
#X connect 283 0 278 0;
#X connect 283 1 281 0;
#X connect 292 0 293 0;
#X connect 292 0 324 0;
#X connect 293 0 294 0;
#X connect 294 0 298 0;
#X connect 295 0 296 0;
#X connect 295 0 324 0;
#X connect 295 0 328 0;
#X connect 296 0 297 0;
#X connect 297 0 298 1;
#X connect 297 0 328 0;
#X connect 298 0 324 0;
#X connect 299 0 294 0;
#X connect 299 1 297 0;
#X connect 300 0 301 0;
#X connect 300 0 325 0;
#X connect 301 0 302 0;
#X connect 302 0 306 0;
#X connect 303 0 304 0;
#X connect 303 0 325 0;
#X connect 303 0 329 0;
#X connect 304 0 305 0;
#X connect 305 0 306 1;
#X connect 305 0 329 0;
#X connect 306 0 325 0;
#X connect 307 0 302 0;
#X connect 307 1 305 0;
#X connect 308 0 309 0;
#X connect 308 0 326 0;
#X connect 309 0 310 0;
#X connect 310 0 314 0;
#X connect 311 0 312 0;
#X connect 311 0 326 0;
#X connect 311 0 330 0;
#X connect 312 0 313 0;
#X connect 313 0 314 1;
#X connect 313 0 330 0;
#X connect 314 0 326 0;
#X connect 315 0 310 0;
#X connect 315 1 313 0;
#X connect 316 0 317 0;
#X connect 316 0 327 0;
#X connect 317 0 318 0;
#X connect 318 0 322 0;
#X connect 319 0 320 0;
#X connect 319 0 327 0;
#X connect 319 0 331 0;
#X connect 320 0 321 0;
#X connect 321 0 322 1;
#X connect 321 0 331 0;
#X connect 322 0 327 0;
#X connect 323 0 318 0;
#X connect 323 1 321 0;
#X connect 332 0 333 0;
#X connect 332 0 428 0;
#X connect 333 0 334 0;
#X connect 334 0 338 0;
#X connect 335 0 336 0;
#X connect 335 0 428 0;
#X connect 335 0 439 0;
#X connect 336 0 337 0;
#X connect 337 0 338 1;
#X connect 337 0 439 0;
#X connect 338 0 428 0;
#X connect 339 0 334 0;
#X connect 339 1 337 0;
#X connect 340 0 341 0;
#X connect 340 0 429 0;
#X connect 341 0 342 0;
#X connect 342 0 346 0;
#X connect 343 0 344 0;
#X connect 343 0 429 0;
#X connect 343 0 440 0;
#X connect 344 0 345 0;
#X connect 345 0 346 1;
#X connect 345 0 440 0;
#X connect 346 0 429 0;
#X connect 347 0 342 0;
#X connect 347 1 345 0;
#X connect 348 0 349 0;
#X connect 348 0 430 0;
#X connect 349 0 350 0;
#X connect 350 0 354 0;
#X connect 351 0 352 0;
#X connect 351 0 430 0;
#X connect 351 0 441 0;
#X connect 352 0 353 0;
#X connect 353 0 354 1;
#X connect 353 0 441 0;
#X connect 354 0 430 0;
#X connect 355 0 350 0;
#X connect 355 1 353 0;
#X connect 356 0 357 0;
#X connect 356 0 431 0;
#X connect 357 0 358 0;
#X connect 358 0 362 0;
#X connect 359 0 360 0;
#X connect 359 0 431 0;
#X connect 359 0 442 0;
#X connect 360 0 361 0;
#X connect 361 0 362 1;
#X connect 361 0 442 0;
#X connect 362 0 431 0;
#X connect 363 0 358 0;
#X connect 363 1 361 0;
#X connect 364 0 365 0;
#X connect 364 0 432 0;
#X connect 365 0 366 0;
#X connect 366 0 370 0;
#X connect 367 0 368 0;
#X connect 367 0 432 0;
#X connect 367 0 443 0;
#X connect 368 0 369 0;
#X connect 369 0 370 1;
#X connect 369 0 443 0;
#X connect 370 0 432 0;
#X connect 371 0 366 0;
#X connect 371 1 369 0;
#X connect 372 0 373 0;
#X connect 372 0 433 0;
#X connect 373 0 374 0;
#X connect 374 0 378 0;
#X connect 375 0 376 0;
#X connect 375 0 433 0;
#X connect 375 0 444 0;
#X connect 376 0 377 0;
#X connect 377 0 378 1;
#X connect 377 0 444 0;
#X connect 378 0 433 0;
#X connect 379 0 374 0;
#X connect 379 1 377 0;
#X connect 380 0 381 0;
#X connect 380 0 434 0;
#X connect 381 0 382 0;
#X connect 382 0 386 0;
#X connect 383 0 384 0;
#X connect 383 0 434 0;
#X connect 383 0 445 0;
#X connect 384 0 385 0;
#X connect 385 0 386 1;
#X connect 385 0 445 0;
#X connect 386 0 434 0;
#X connect 387 0 382 0;
#X connect 387 1 385 0;
#X connect 388 0 389 0;
#X connect 388 0 809 0;
#X connect 389 0 390 0;
#X connect 390 0 394 0;
#X connect 391 0 392 0;
#X connect 391 0 446 0;
#X connect 391 0 809 0;
#X connect 392 0 393 0;
#X connect 393 0 394 1;
#X connect 393 0 446 0;
#X connect 394 0 809 0;
#X connect 395 0 390 0;
#X connect 395 1 393 0;
#X connect 396 0 397 0;
#X connect 396 0 435 0;
#X connect 397 0 398 0;
#X connect 398 0 402 0;
#X connect 399 0 400 0;
#X connect 399 0 435 0;
#X connect 399 0 447 0;
#X connect 400 0 401 0;
#X connect 401 0 402 1;
#X connect 401 0 447 0;
#X connect 402 0 435 0;
#X connect 403 0 398 0;
#X connect 403 1 401 0;
#X connect 404 0 405 0;
#X connect 404 0 436 0;
#X connect 405 0 406 0;
#X connect 406 0 410 0;
#X connect 407 0 408 0;
#X connect 407 0 436 0;
#X connect 407 0 448 0;
#X connect 408 0 409 0;
#X connect 409 0 410 1;
#X connect 409 0 448 0;
#X connect 410 0 436 0;
#X connect 411 0 406 0;
#X connect 411 1 409 0;
#X connect 412 0 413 0;
#X connect 412 0 437 0;
#X connect 413 0 414 0;
#X connect 414 0 418 0;
#X connect 415 0 416 0;
#X connect 415 0 437 0;
#X connect 415 0 449 0;
#X connect 416 0 417 0;
#X connect 417 0 418 1;
#X connect 417 0 449 0;
#X connect 418 0 437 0;
#X connect 419 0 414 0;
#X connect 419 1 417 0;
#X connect 420 0 421 0;
#X connect 420 0 438 0;
#X connect 421 0 422 0;
#X connect 422 0 426 0;
#X connect 423 0 424 0;
#X connect 423 0 438 0;
#X connect 423 0 450 0;
#X connect 424 0 425 0;
#X connect 425 0 426 1;
#X connect 425 0 450 0;
#X connect 426 0 438 0;
#X connect 427 0 422 0;
#X connect 427 1 425 0;
#X connect 451 0 452 0;
#X connect 451 0 547 0;
#X connect 452 0 453 0;
#X connect 453 0 457 0;
#X connect 454 0 455 0;
#X connect 454 0 547 0;
#X connect 454 0 558 0;
#X connect 455 0 456 0;
#X connect 456 0 457 1;
#X connect 456 0 558 0;
#X connect 457 0 547 0;
#X connect 458 0 453 0;
#X connect 458 1 456 0;
#X connect 459 0 460 0;
#X connect 459 0 548 0;
#X connect 460 0 461 0;
#X connect 461 0 465 0;
#X connect 462 0 463 0;
#X connect 462 0 548 0;
#X connect 462 0 559 0;
#X connect 463 0 464 0;
#X connect 464 0 465 1;
#X connect 464 0 559 0;
#X connect 465 0 548 0;
#X connect 466 0 461 0;
#X connect 466 1 464 0;
#X connect 467 0 468 0;
#X connect 467 0 549 0;
#X connect 468 0 469 0;
#X connect 469 0 473 0;
#X connect 470 0 471 0;
#X connect 470 0 549 0;
#X connect 470 0 560 0;
#X connect 471 0 472 0;
#X connect 472 0 473 1;
#X connect 472 0 560 0;
#X connect 473 0 549 0;
#X connect 474 0 469 0;
#X connect 474 1 472 0;
#X connect 475 0 476 0;
#X connect 475 0 550 0;
#X connect 476 0 477 0;
#X connect 477 0 481 0;
#X connect 478 0 479 0;
#X connect 478 0 550 0;
#X connect 478 0 561 0;
#X connect 479 0 480 0;
#X connect 480 0 481 1;
#X connect 480 0 561 0;
#X connect 481 0 550 0;
#X connect 482 0 477 0;
#X connect 482 1 480 0;
#X connect 483 0 484 0;
#X connect 483 0 551 0;
#X connect 484 0 485 0;
#X connect 485 0 489 0;
#X connect 486 0 487 0;
#X connect 486 0 551 0;
#X connect 486 0 562 0;
#X connect 487 0 488 0;
#X connect 488 0 489 1;
#X connect 488 0 562 0;
#X connect 489 0 551 0;
#X connect 490 0 485 0;
#X connect 490 1 488 0;
#X connect 491 0 492 0;
#X connect 491 0 552 0;
#X connect 492 0 493 0;
#X connect 493 0 497 0;
#X connect 494 0 495 0;
#X connect 494 0 552 0;
#X connect 494 0 563 0;
#X connect 495 0 496 0;
#X connect 496 0 497 1;
#X connect 496 0 563 0;
#X connect 497 0 552 0;
#X connect 498 0 493 0;
#X connect 498 1 496 0;
#X connect 499 0 500 0;
#X connect 499 0 553 0;
#X connect 500 0 501 0;
#X connect 501 0 505 0;
#X connect 502 0 503 0;
#X connect 502 0 553 0;
#X connect 502 0 564 0;
#X connect 503 0 504 0;
#X connect 504 0 505 1;
#X connect 504 0 564 0;
#X connect 505 0 553 0;
#X connect 506 0 501 0;
#X connect 506 1 504 0;
#X connect 507 0 508 0;
#X connect 507 0 810 0;
#X connect 508 0 509 0;
#X connect 509 0 513 0;
#X connect 510 0 511 0;
#X connect 510 0 565 0;
#X connect 510 0 810 0;
#X connect 511 0 512 0;
#X connect 512 0 513 1;
#X connect 512 0 565 0;
#X connect 513 0 810 0;
#X connect 514 0 509 0;
#X connect 514 1 512 0;
#X connect 515 0 516 0;
#X connect 515 0 554 0;
#X connect 516 0 517 0;
#X connect 517 0 521 0;
#X connect 518 0 519 0;
#X connect 518 0 554 0;
#X connect 518 0 566 0;
#X connect 519 0 520 0;
#X connect 520 0 521 1;
#X connect 520 0 566 0;
#X connect 521 0 554 0;
#X connect 522 0 517 0;
#X connect 522 1 520 0;
#X connect 523 0 524 0;
#X connect 523 0 555 0;
#X connect 524 0 525 0;
#X connect 525 0 529 0;
#X connect 526 0 527 0;
#X connect 526 0 555 0;
#X connect 526 0 567 0;
#X connect 527 0 528 0;
#X connect 528 0 529 1;
#X connect 528 0 567 0;
#X connect 529 0 555 0;
#X connect 530 0 525 0;
#X connect 530 1 528 0;
#X connect 531 0 532 0;
#X connect 531 0 556 0;
#X connect 532 0 533 0;
#X connect 533 0 537 0;
#X connect 534 0 535 0;
#X connect 534 0 556 0;
#X connect 534 0 568 0;
#X connect 535 0 536 0;
#X connect 536 0 537 1;
#X connect 536 0 568 0;
#X connect 537 0 556 0;
#X connect 538 0 533 0;
#X connect 538 1 536 0;
#X connect 539 0 540 0;
#X connect 539 0 557 0;
#X connect 540 0 541 0;
#X connect 541 0 545 0;
#X connect 542 0 543 0;
#X connect 542 0 557 0;
#X connect 542 0 569 0;
#X connect 543 0 544 0;
#X connect 544 0 545 1;
#X connect 544 0 569 0;
#X connect 545 0 557 0;
#X connect 546 0 541 0;
#X connect 546 1 544 0;
#X connect 570 0 571 0;
#X connect 570 0 666 0;
#X connect 571 0 572 0;
#X connect 572 0 576 0;
#X connect 573 0 574 0;
#X connect 573 0 666 0;
#X connect 573 0 677 0;
#X connect 574 0 575 0;
#X connect 575 0 576 1;
#X connect 575 0 677 0;
#X connect 576 0 666 0;
#X connect 577 0 572 0;
#X connect 577 1 575 0;
#X connect 578 0 579 0;
#X connect 578 0 667 0;
#X connect 579 0 580 0;
#X connect 580 0 584 0;
#X connect 581 0 582 0;
#X connect 581 0 667 0;
#X connect 581 0 678 0;
#X connect 582 0 583 0;
#X connect 583 0 584 1;
#X connect 583 0 678 0;
#X connect 584 0 667 0;
#X connect 585 0 580 0;
#X connect 585 1 583 0;
#X connect 586 0 587 0;
#X connect 586 0 668 0;
#X connect 587 0 588 0;
#X connect 588 0 592 0;
#X connect 589 0 590 0;
#X connect 589 0 668 0;
#X connect 589 0 679 0;
#X connect 590 0 591 0;
#X connect 591 0 592 1;
#X connect 591 0 679 0;
#X connect 592 0 668 0;
#X connect 593 0 588 0;
#X connect 593 1 591 0;
#X connect 594 0 595 0;
#X connect 594 0 669 0;
#X connect 595 0 596 0;
#X connect 596 0 600 0;
#X connect 597 0 598 0;
#X connect 597 0 669 0;
#X connect 597 0 680 0;
#X connect 598 0 599 0;
#X connect 599 0 600 1;
#X connect 599 0 680 0;
#X connect 600 0 669 0;
#X connect 601 0 596 0;
#X connect 601 1 599 0;
#X connect 602 0 603 0;
#X connect 602 0 670 0;
#X connect 603 0 604 0;
#X connect 604 0 608 0;
#X connect 605 0 606 0;
#X connect 605 0 670 0;
#X connect 605 0 681 0;
#X connect 606 0 607 0;
#X connect 607 0 608 1;
#X connect 607 0 681 0;
#X connect 608 0 670 0;
#X connect 609 0 604 0;
#X connect 609 1 607 0;
#X connect 610 0 611 0;
#X connect 610 0 671 0;
#X connect 611 0 612 0;
#X connect 612 0 616 0;
#X connect 613 0 614 0;
#X connect 613 0 671 0;
#X connect 613 0 682 0;
#X connect 614 0 615 0;
#X connect 615 0 616 1;
#X connect 615 0 682 0;
#X connect 616 0 671 0;
#X connect 617 0 612 0;
#X connect 617 1 615 0;
#X connect 618 0 619 0;
#X connect 618 0 672 0;
#X connect 619 0 620 0;
#X connect 620 0 624 0;
#X connect 621 0 622 0;
#X connect 621 0 672 0;
#X connect 621 0 683 0;
#X connect 622 0 623 0;
#X connect 623 0 624 1;
#X connect 623 0 683 0;
#X connect 624 0 672 0;
#X connect 625 0 620 0;
#X connect 625 1 623 0;
#X connect 626 0 627 0;
#X connect 626 0 812 0;
#X connect 627 0 628 0;
#X connect 628 0 632 0;
#X connect 629 0 630 0;
#X connect 629 0 684 0;
#X connect 629 0 812 0;
#X connect 630 0 631 0;
#X connect 631 0 632 1;
#X connect 631 0 684 0;
#X connect 632 0 812 0;
#X connect 633 0 628 0;
#X connect 633 1 631 0;
#X connect 634 0 635 0;
#X connect 634 0 673 0;
#X connect 635 0 636 0;
#X connect 636 0 640 0;
#X connect 637 0 638 0;
#X connect 637 0 673 0;
#X connect 637 0 685 0;
#X connect 638 0 639 0;
#X connect 639 0 640 1;
#X connect 639 0 685 0;
#X connect 640 0 673 0;
#X connect 641 0 636 0;
#X connect 641 1 639 0;
#X connect 642 0 643 0;
#X connect 642 0 674 0;
#X connect 643 0 644 0;
#X connect 644 0 648 0;
#X connect 645 0 646 0;
#X connect 645 0 674 0;
#X connect 645 0 686 0;
#X connect 646 0 647 0;
#X connect 647 0 648 1;
#X connect 647 0 686 0;
#X connect 648 0 674 0;
#X connect 649 0 644 0;
#X connect 649 1 647 0;
#X connect 650 0 651 0;
#X connect 650 0 675 0;
#X connect 651 0 652 0;
#X connect 652 0 656 0;
#X connect 653 0 654 0;
#X connect 653 0 675 0;
#X connect 653 0 687 0;
#X connect 654 0 655 0;
#X connect 655 0 656 1;
#X connect 655 0 687 0;
#X connect 656 0 675 0;
#X connect 657 0 652 0;
#X connect 657 1 655 0;
#X connect 658 0 659 0;
#X connect 658 0 676 0;
#X connect 659 0 660 0;
#X connect 660 0 664 0;
#X connect 661 0 662 0;
#X connect 661 0 676 0;
#X connect 661 0 688 0;
#X connect 662 0 663 0;
#X connect 663 0 664 1;
#X connect 663 0 688 0;
#X connect 664 0 676 0;
#X connect 665 0 660 0;
#X connect 665 1 663 0;
#X connect 689 0 690 0;
#X connect 689 0 785 0;
#X connect 690 0 691 0;
#X connect 691 0 695 0;
#X connect 692 0 693 0;
#X connect 692 0 785 0;
#X connect 692 0 796 0;
#X connect 693 0 694 0;
#X connect 694 0 695 1;
#X connect 694 0 796 0;
#X connect 695 0 785 0;
#X connect 696 0 691 0;
#X connect 696 1 694 0;
#X connect 697 0 698 0;
#X connect 697 0 786 0;
#X connect 698 0 699 0;
#X connect 699 0 703 0;
#X connect 700 0 701 0;
#X connect 700 0 786 0;
#X connect 700 0 797 0;
#X connect 701 0 702 0;
#X connect 702 0 703 1;
#X connect 702 0 797 0;
#X connect 703 0 786 0;
#X connect 704 0 699 0;
#X connect 704 1 702 0;
#X connect 705 0 706 0;
#X connect 705 0 787 0;
#X connect 706 0 707 0;
#X connect 707 0 711 0;
#X connect 708 0 709 0;
#X connect 708 0 787 0;
#X connect 708 0 798 0;
#X connect 709 0 710 0;
#X connect 710 0 711 1;
#X connect 710 0 798 0;
#X connect 711 0 787 0;
#X connect 712 0 707 0;
#X connect 712 1 710 0;
#X connect 713 0 714 0;
#X connect 713 0 788 0;
#X connect 714 0 715 0;
#X connect 715 0 719 0;
#X connect 716 0 717 0;
#X connect 716 0 788 0;
#X connect 716 0 799 0;
#X connect 717 0 718 0;
#X connect 718 0 719 1;
#X connect 718 0 799 0;
#X connect 719 0 788 0;
#X connect 720 0 715 0;
#X connect 720 1 718 0;
#X connect 721 0 722 0;
#X connect 721 0 789 0;
#X connect 722 0 723 0;
#X connect 723 0 727 0;
#X connect 724 0 725 0;
#X connect 724 0 789 0;
#X connect 724 0 800 0;
#X connect 725 0 726 0;
#X connect 726 0 727 1;
#X connect 726 0 800 0;
#X connect 727 0 789 0;
#X connect 728 0 723 0;
#X connect 728 1 726 0;
#X connect 729 0 730 0;
#X connect 729 0 790 0;
#X connect 730 0 731 0;
#X connect 731 0 735 0;
#X connect 732 0 733 0;
#X connect 732 0 790 0;
#X connect 732 0 801 0;
#X connect 733 0 734 0;
#X connect 734 0 735 1;
#X connect 734 0 801 0;
#X connect 735 0 790 0;
#X connect 736 0 731 0;
#X connect 736 1 734 0;
#X connect 737 0 738 0;
#X connect 737 0 791 0;
#X connect 738 0 739 0;
#X connect 739 0 743 0;
#X connect 740 0 741 0;
#X connect 740 0 791 0;
#X connect 740 0 802 0;
#X connect 741 0 742 0;
#X connect 742 0 743 1;
#X connect 742 0 802 0;
#X connect 743 0 791 0;
#X connect 744 0 739 0;
#X connect 744 1 742 0;
#X connect 745 0 746 0;
#X connect 745 0 813 0;
#X connect 746 0 747 0;
#X connect 747 0 751 0;
#X connect 748 0 749 0;
#X connect 748 0 803 0;
#X connect 748 0 813 0;
#X connect 749 0 750 0;
#X connect 750 0 751 1;
#X connect 750 0 803 0;
#X connect 751 0 813 0;
#X connect 752 0 747 0;
#X connect 752 1 750 0;
#X connect 753 0 754 0;
#X connect 753 0 792 0;
#X connect 754 0 755 0;
#X connect 755 0 759 0;
#X connect 756 0 757 0;
#X connect 756 0 792 0;
#X connect 756 0 804 0;
#X connect 757 0 758 0;
#X connect 758 0 759 1;
#X connect 758 0 804 0;
#X connect 759 0 792 0;
#X connect 760 0 755 0;
#X connect 760 1 758 0;
#X connect 761 0 762 0;
#X connect 761 0 793 0;
#X connect 762 0 763 0;
#X connect 763 0 767 0;
#X connect 764 0 765 0;
#X connect 764 0 793 0;
#X connect 764 0 805 0;
#X connect 765 0 766 0;
#X connect 766 0 767 1;
#X connect 766 0 805 0;
#X connect 767 0 793 0;
#X connect 768 0 763 0;
#X connect 768 1 766 0;
#X connect 769 0 770 0;
#X connect 769 0 794 0;
#X connect 770 0 771 0;
#X connect 771 0 775 0;
#X connect 772 0 773 0;
#X connect 772 0 794 0;
#X connect 772 0 806 0;
#X connect 773 0 774 0;
#X connect 774 0 775 1;
#X connect 774 0 806 0;
#X connect 775 0 794 0;
#X connect 776 0 771 0;
#X connect 776 1 774 0;
#X connect 777 0 778 0;
#X connect 777 0 795 0;
#X connect 778 0 779 0;
#X connect 779 0 783 0;
#X connect 780 0 781 0;
#X connect 780 0 795 0;
#X connect 780 0 807 0;
#X connect 781 0 782 0;
#X connect 782 0 783 1;
#X connect 782 0 807 0;
#X connect 783 0 795 0;
#X connect 784 0 779 0;
#X connect 784 1 782 0;
#X restore 22 436 pd faders;
#N canvas 289 92 991 793 makenumbers 0;
#X obj 1337 596 bng 62 250 50 0 empty empty empty 17 7 0 10 -262144
-1 -1;
#X obj 1763 1496 f;
#X msg 1364 702 clear;
#X msg 1195 1412 2;
#X msg 1565 693 add2 \$1;
#X msg 1565 743 1 3 2;
#X obj 1565 772 list length;
#X obj 1565 830 select 1;
#X msg 1512 707 set;
#X obj 1531 654 t b f;
#X msg 1198 1318 add2 \$1;
#X obj 1195 1442 list split 1;
#X msg 1121 1305 set;
#X msg 1074 1339 add2 \$1;
#X obj 1074 1292 f;
#X obj 1075 1234 t b b;
#X obj 1389 1179 t f b b b;
#X text 1798 1497 Bangs previous number;
#X obj 1336 1045 ==;
#X obj 1389 1151 f;
#X obj 1336 1012 t f f;
#X obj 1335 978 f;
#X obj 1336 1080 select 1;
#X obj 1337 797 t f f f f;
#X obj 1267 552 delay 10;
#X obj 1389 1116 bng 15 250 50 0 empty empty empty 17 7 0 10 -262144
-1 -1;
#X text 1316 2087 Turns on;
#X text 1686 2074 Turns off;
#X obj 1331 1859 until;
#X msg 1247 1858 clear;
#X obj 1309 1699 t b b b;
#X obj 1393 2085 qlist;
#X msg 1249 2032 bang;
#X obj 1763 2073 qlist;
#X msg 1761 1951 add2 fadeout3 \, add \$1 \, add 120000;
#X msg 1393 1954 add2 fadein2 \, add \$1 \, add 120000;
#X obj 936 577 t b b;
#X obj 940 1477 delay 100;
#X msg 936 453 stop;
#X obj 936 414 r mixStop;
#X obj 936 536 metro \$1;
#X floatatom 989 492 5 0 0 0 - - -, f 5;
#X obj 989 452 r trackDuration;
#X obj 904 379 r startAutomation;
#X text 1035 2323 ...;
#X text 1035 2323 ...;
#X text 2829 1692 ...;
#X text 2829 1692 ...;
#X text 1403 1592 Fade in track #;
#X text 1773 1692 Fade out track #;
#X obj 328 1745 qlist;
#X obj 1247 1768 delay 1000;
#X msg 387 1682 clear;
#X msg 1331 1824 12;
#X obj 1331 1893 urn 12;
#X text 1056 1694 Randomize 12 numbers. Send to "turn on" and "turn
off"., f 30;
#X msg 1036 1954 add2 \$1;
#X msg 1036 2056 0 11 7 9 5 6 2 8 3 10 1 4;
#X text 915 2026 This is the order in which the faders fade, f 15
;
#X obj 1063 1986 r rSET;
#X obj 1355 1735 s rSET;
#X obj 1537 1979 r rSET;
#X msg 1537 2013 clear;
#X msg 1063 2017 set;
#X obj 327 1533 t b b f b;
#X floatatom 583 1418 5 0 0 0 - - -, f 5;
#X text 1421 1014 If the same number appears again \, bang [urn],
f 14;
#X obj 1176 843 list append;
#X obj 1176 876 list split 1;
#X obj 1216 912 t b f;
#X obj 1417 1796 r mixDuration;
#X obj 1392 1836 pack;
#X msg 1392 1870 set add2 fadein\$1 \, addcomma \, add2 add \, adddollar
1 \, addcomma \, add2 add \$2, f 42;
#X obj 1785 1731 r mixDuration;
#X obj 1760 1771 pack;
#X text 1822 1774 The 2nd dollarsign is the mixDuration \, in this
case how long it takes before the next fader in line (out of the 12
faders) begins to fade in/fade out., f 38;
#X msg 1761 1871 set add2 fadeout\$1 \, addcomma \, add2 add \, adddollar
1 \, addcomma \, add2 add \$2, f 42;
#X text 1046 1768 This delay is synced with the start delay that lets
the readaf buffer the audio file., f 27;
#X text 1002 845 This stores number from [urn] and outputs it when
it receives a new number from [urn]., f 23;
#X obj 584 1447 list append;
#X msg 584 1533 3 1 3 2 0 1;
#X text 688 1533 This keeps a reckord of the last tracks that were
played, f 15;
#X obj 584 1474 list split 6;
#X msg 585 1505 set \$1 \$2 \$3 \$4 \$5 \$6;
#X text 625 1112 What happens if it starts to rain?;
#X text 625 1145 I get a bang from somewhere.;
#X text 625 1178 Then that triggers track... 5?;
#X text 626 1214 Simple volume fade?;
#X text 625 1250 There should be a similar solution for night time.
;
#X obj 1565 801 == 5;
#X text 1638 693 This clears urn after list length == 5, f 16;
#X obj 1336 757 urn 5;
#X obj 445 1574 route 0 1 2 3 4;
#X obj 218 1441 bng 15 250 50 0 empty empty empty 17 7 0 10 -262144
-1 -1;
#X obj 218 1465 openpanel;
#X obj 218 1494 print;
#X msg 445 1637 add2 openFile1 \, add2 symbol \, add /home/pi/jungle/day_scene_1.wav
\, add2 lineINIT1 \, add bang \, add 1000 \, add2 strtPLAYER_A1 start
\;, f 49;
#X msg 445 1755 add2 openFile2 \, add2 symbol \, add /home/pi/jungle/day_scene_2.wav
\, add2 lineINIT2 \, add bang \, add 1000 \, add2 strtPLAYER_A2 start
\;, f 50;
#X msg 446 1877 add2 openFile3 \, add2 symbol \, add /home/pi/jungle/day_scene_3.wav
\, add2 lineINIT3 \, add bang \, add 1000 \, add2 strtPLAYER_A3 start
\;, f 50;
#X msg 446 1991 add2 openFile4 \, add2 symbol \, add /home/pi/jungle/day_scene_4.wav
\, add2 lineINIT4 \, add bang \, add 1000 \, add2 strtPLAYER_A4 start
\;, f 50;
#X msg 446 2113 add2 openFile5 \, add2 symbol \, add /home/pi/jungle/day_scene_5.wav
\, add2 lineINIT5 \, add bang \, add 1000 \, add2 strtPLAYER_A5 start
\;, f 50;
#X connect 0 0 91 0;
#X connect 1 0 74 0;
#X connect 2 0 91 0;
#X connect 3 0 11 0;
#X connect 4 0 5 0;
#X connect 5 0 6 0;
#X connect 6 0 89 0;
#X connect 7 0 8 0;
#X connect 7 0 2 0;
#X connect 8 0 5 0;
#X connect 9 0 5 0;
#X connect 9 1 4 0;
#X connect 10 0 3 0;
#X connect 11 0 1 1;
#X connect 12 0 3 0;
#X connect 13 0 3 0;
#X connect 14 0 13 0;
#X connect 15 0 14 0;
#X connect 15 1 12 0;
#X connect 16 0 65 0;
#X connect 16 0 71 0;
#X connect 16 1 1 0;
#X connect 16 2 15 0;
#X connect 16 3 3 0;
#X connect 18 0 22 0;
#X connect 19 0 16 0;
#X connect 20 0 18 0;
#X connect 20 1 19 1;
#X connect 21 0 20 0;
#X connect 22 0 24 0;
#X connect 22 1 25 0;
#X connect 23 0 67 0;
#X connect 23 1 21 1;
#X connect 23 2 14 1;
#X connect 23 3 10 0;
#X connect 24 0 0 0;
#X connect 25 0 19 0;
#X connect 28 0 54 0;
#X connect 29 0 54 0;
#X connect 30 0 51 0;
#X connect 30 1 53 0;
#X connect 30 2 60 0;
#X connect 32 0 31 0;
#X connect 32 0 33 0;
#X connect 34 0 33 0;
#X connect 35 0 31 0;
#X connect 36 0 37 0;
#X connect 36 1 0 0;
#X connect 37 0 30 0;
#X connect 38 0 40 0;
#X connect 39 0 38 0;
#X connect 40 0 36 0;
#X connect 41 0 40 1;
#X connect 42 0 41 0;
#X connect 43 0 40 0;
#X connect 51 0 29 0;
#X connect 51 0 32 0;
#X connect 52 0 50 0;
#X connect 53 0 28 0;
#X connect 54 0 35 0;
#X connect 54 0 34 0;
#X connect 54 0 56 0;
#X connect 56 0 57 0;
#X connect 59 0 63 0;
#X connect 61 0 62 0;
#X connect 62 0 31 0;
#X connect 62 0 33 0;
#X connect 63 0 57 0;
#X connect 64 0 50 0;
#X connect 64 2 92 0;
#X connect 64 3 52 0;
#X connect 65 0 64 0;
#X connect 65 0 79 0;
#X connect 67 0 68 0;
#X connect 68 0 67 1;
#X connect 68 1 69 0;
#X connect 69 0 21 0;
#X connect 69 1 18 1;
#X connect 70 0 71 1;
#X connect 71 0 72 0;
#X connect 72 0 35 0;
#X connect 73 0 74 1;
#X connect 74 0 76 0;
#X connect 76 0 34 0;
#X connect 79 0 82 0;
#X connect 82 0 83 0;
#X connect 82 0 79 1;
#X connect 82 2 79 1;
#X connect 83 0 80 0;
#X connect 89 0 7 0;
#X connect 91 0 23 0;
#X connect 91 0 9 0;
#X connect 92 0 96 0;
#X connect 92 1 97 0;
#X connect 92 2 98 0;
#X connect 92 3 99 0;
#X connect 92 4 100 0;
#X connect 93 0 94 0;
#X connect 94 0 95 0;
#X connect 96 0 50 0;
#X connect 97 0 50 0;
#X connect 98 0 50 0;
#X connect 99 0 50 0;
#X connect 100 0 50 0;
#X restore 22 474 pd makenumbers;
#X obj 388 200 bng 32 250 50 0 empty empty empty 17 7 0 10 -262144
-1 -1;
#X obj 863 238 r f1 \$2;
#X obj 863 265 r f2 \$2;
#X obj 863 291 r f3 \$2;
#X obj 863 317 r f4 \$2;
#X obj 953 238 r f5 \$2;
#X obj 953 265 r f6 \$2;
#X obj 953 291 r f7 \$2;
#X obj 953 317 r f8 \$2;
#X obj 1044 238 r f9 \$2;
#X obj 1044 265 r f10 \$2;
#X obj 1044 291 r f11 \$2;
#X obj 1044 317 r f12 \$2;
#X obj 872 385 read_1-16_2 1;
#X obj 1139 384 read_1-16_2 2;
#X obj 1402 384 read_1-16_2 3;
#X obj 1670 382 read_1-16_2 4;
#X obj 1130 317 r f16 \$2;
#X obj 1130 292 r f15 \$2;
#X obj 1130 264 r f14 \$2;
#X obj 1130 237 r f13 \$2;
#X obj 1220 237 r f17 \$2;
#X obj 1220 264 r f18 \$2;
#X obj 1220 290 r f19 \$2;
#X obj 1219 317 r f20 \$2;
#X obj 1311 237 r f21 \$2;
#X obj 1311 264 r f22 \$2;
#X obj 1311 290 r f23 \$2;
#X obj 1311 316 r f24 \$2;
#X obj 1393 237 r f25 \$2;
#X obj 1393 265 r f26 \$2;
#X obj 1393 290 r f27 \$2;
#X obj 1393 318 r f28 \$2;
#X obj 1483 237 r f29 \$2;
#X obj 1483 264 r f30 \$2;
#X obj 1483 290 r f31 \$2;
#X obj 1483 316 r f32 \$2;
#X obj 1574 237 r f33 \$2;
#X obj 1574 265 r f34 \$2;
#X obj 1574 290 r f35 \$2;
#X obj 1574 316 r f36 \$2;
#X obj 1662 236 r f37 \$2;
#X obj 1661 263 r f38 \$2;
#X obj 1659 290 r f39 \$2;
#X obj 1661 315 r f40 \$2;
#X obj 1751 236 r f41 \$2;
#X obj 1751 263 r f42 \$2;
#X obj 1751 289 r f43 \$2;
#X obj 1751 315 r f44 \$2;
#X obj 1842 237 r f45 \$2;
#X obj 1841 263 r f46 \$2;
#X obj 1842 289 r f47 \$2;
#X obj 1842 315 r f48 \$2;
#X obj 697 30 bng 68 250 50 0 empty empty empty 17 7 0 10 -262144 -1
-1;
#X obj 695 105 s stopPlayer1;
#X obj 695 132 s stopPlayer2;
#X obj 696 160 s stopPlayer3;
#X obj 696 188 s stopPlayer4;
#X text 423 347 Sets how long until next track starts fading in.,
f 15;
#N canvas 336 66 918 530 routing 0;
#X obj 238 217 r fadeout0;
#X obj 569 213 r fadein0;
#X obj 110 315 faders3 1;
#X obj 111 343 faders3 2;
#X obj 111 375 faders3 3;
#X obj 109 405 faders3 4;
#X obj 109 437 faders3 5;
#X obj 110 465 faders3 6;
#X obj 110 497 faders3 7;
#X obj 110 527 faders3 8;
#X obj 108 557 faders3 9;
#X obj 109 585 faders3 10;
#X obj 109 617 faders3 11;
#X obj 109 647 faders3 12;
#X obj 910 305 faders3 13;
#X obj 911 333 faders3 14;
#X obj 911 365 faders3 15;
#X obj 911 395 faders3 16;
#X obj 1018 221 r fadeout1;
#X obj 1349 215 r fadein1;
#X obj 911 427 faders3 17;
#X obj 912 455 faders3 18;
#X obj 913 487 faders3 19;
#X obj 911 517 faders3 20;
#X obj 910 549 faders3 21;
#X obj 911 577 faders3 22;
#X obj 912 609 faders3 23;
#X obj 912 639 faders3 24;
#X obj 1703 322 faders3 25;
#X obj 1704 349 faders3 26;
#X obj 1704 381 faders3 27;
#X obj 1704 411 faders3 28;
#X obj 1703 444 faders3 29;
#X obj 1703 472 faders3 30;
#X obj 1703 505 faders3 31;
#X obj 1703 535 faders3 32;
#X obj 1703 566 faders3 33;
#X obj 1704 594 faders3 34;
#X obj 1705 626 faders3 35;
#X obj 1705 656 faders3 36;
#X obj 2469 328 faders3 37;
#X obj 2470 356 faders3 38;
#X obj 2471 388 faders3 39;
#X obj 2469 418 faders3 40;
#X obj 2468 450 faders3 41;
#X obj 2469 476 faders3 42;
#X obj 2469 508 faders3 43;
#X obj 2470 539 faders3 44;
#X obj 2468 571 faders3 45;
#X obj 2468 599 faders3 46;
#X obj 2469 631 faders3 47;
#X obj 2469 662 faders3 48;
#X obj 1802 217 r fadeout2;
#X obj 2133 213 r fadein2;
#X obj 2568 216 r fadeout3;
#X obj 2899 212 r fadein3;
#X obj 3192 297 faders3 49;
#X obj 3193 325 faders3 50;
#X obj 3194 357 faders3 51;
#X obj 3193 388 faders3 52;
#X obj 3191 419 faders3 53;
#X obj 3192 447 faders3 54;
#X obj 3193 479 faders3 55;
#X obj 3191 509 faders3 56;
#X obj 3190 541 faders3 57;
#X obj 3191 567 faders3 58;
#X obj 3191 599 faders3 59;
#X obj 3192 630 faders3 60;
#X obj 3952 284 faders3 61;
#X obj 3952 315 faders3 62;
#X obj 3953 347 faders3 63;
#X obj 3953 378 faders3 64;
#X obj 238 265 route 0 1 2 3 4 5 6 7 8 9 10 11;
#X obj 569 265 route 0 1 2 3 4 5 6 7 8 9 10 11;
#X obj 1018 267 route 0 1 2 3 4 5 6 7 8 9 10 11;
#X obj 1349 267 route 0 1 2 3 4 5 6 7 8 9 10 11;
#X obj 1802 265 route 0 1 2 3 4 5 6 7 8 9 10 11;
#X obj 2133 265 route 0 1 2 3 4 5 6 7 8 9 10 11;
#X obj 2568 264 route 0 1 2 3 4 5 6 7 8 9 10 11;
#X obj 2899 264 route 0 1 2 3 4 5 6 7 8 9 10 11;
#X text 4230 382 ...;
#X text 3962 242 Rain track;
#X obj 3345 240 route 0 1 2 3 4 5 6 7 8 9 10 11;
#X obj 3676 240 route 0 1 2 3 4 5 6 7 8 9 10 11;
#X obj 3345 192 r fadeout4;
#X obj 3676 188 r fadein4;
#X connect 0 0 72 0;
#X connect 1 0 73 0;
#X connect 18 0 74 0;
#X connect 19 0 75 0;
#X connect 52 0 76 0;
#X connect 53 0 77 0;
#X connect 54 0 78 0;
#X connect 55 0 79 0;
#X connect 72 0 2 1;
#X connect 72 1 3 1;
#X connect 72 2 4 1;
#X connect 72 3 5 1;
#X connect 72 4 6 1;
#X connect 72 5 7 1;
#X connect 72 6 8 1;
#X connect 72 7 9 1;
#X connect 72 8 10 1;
#X connect 72 9 11 1;
#X connect 72 10 12 1;
#X connect 72 11 13 1;
#X connect 73 0 2 0;
#X connect 73 1 3 0;
#X connect 73 2 4 0;
#X connect 73 3 5 0;
#X connect 73 4 6 0;
#X connect 73 5 7 0;
#X connect 73 6 8 0;
#X connect 73 7 9 0;
#X connect 73 8 10 0;
#X connect 73 9 11 0;
#X connect 73 10 12 0;
#X connect 73 11 13 0;
#X connect 74 0 14 1;
#X connect 74 1 15 1;
#X connect 74 2 16 1;
#X connect 74 3 17 1;
#X connect 74 4 20 1;
#X connect 74 5 21 1;
#X connect 74 6 22 1;
#X connect 74 7 23 1;
#X connect 74 8 24 1;
#X connect 74 9 25 1;
#X connect 74 10 26 1;
#X connect 74 11 27 1;
#X connect 75 0 14 0;
#X connect 75 1 15 0;
#X connect 75 2 16 0;
#X connect 75 3 17 0;
#X connect 75 4 20 0;
#X connect 75 5 21 0;
#X connect 75 6 22 0;
#X connect 75 7 23 0;
#X connect 75 8 24 0;
#X connect 75 9 25 0;
#X connect 75 10 26 0;
#X connect 75 11 27 0;
#X connect 76 0 28 1;
#X connect 76 1 29 1;
#X connect 76 2 30 1;
#X connect 76 3 31 1;
#X connect 76 4 32 1;
#X connect 76 5 33 1;
#X connect 76 6 34 1;
#X connect 76 7 35 1;
#X connect 76 8 36 1;
#X connect 76 9 37 1;
#X connect 76 10 38 1;
#X connect 76 11 39 1;
#X connect 77 0 28 0;
#X connect 77 1 29 0;
#X connect 77 2 30 0;
#X connect 77 3 31 0;
#X connect 77 4 32 0;
#X connect 77 5 33 0;
#X connect 77 6 34 0;
#X connect 77 7 35 0;
#X connect 77 8 36 0;
#X connect 77 9 37 0;
#X connect 77 10 38 0;
#X connect 77 11 39 0;
#X connect 78 0 40 1;
#X connect 78 1 41 1;
#X connect 78 2 42 1;
#X connect 78 3 43 1;
#X connect 78 4 44 1;
#X connect 78 5 45 1;
#X connect 78 6 46 1;
#X connect 78 7 47 1;
#X connect 78 8 48 1;
#X connect 78 9 49 1;
#X connect 78 10 50 1;
#X connect 78 11 51 1;
#X connect 79 0 40 0;
#X connect 79 1 41 0;
#X connect 79 2 42 0;
#X connect 79 3 43 0;
#X connect 79 4 44 0;
#X connect 79 5 45 0;
#X connect 79 6 46 0;
#X connect 79 7 47 0;
#X connect 79 8 48 0;
#X connect 79 9 49 0;
#X connect 79 10 50 0;
#X connect 79 11 51 0;
#X connect 82 0 56 1;
#X connect 82 1 57 1;
#X connect 82 2 58 1;
#X connect 82 3 59 1;
#X connect 82 4 60 1;
#X connect 82 5 61 1;
#X connect 82 6 62 1;
#X connect 82 7 63 1;
#X connect 82 8 64 1;
#X connect 82 9 65 1;
#X connect 82 10 66 1;
#X connect 82 11 67 1;
#X connect 83 0 56 0;
#X connect 83 1 57 0;
#X connect 83 2 58 0;
#X connect 83 3 59 0;
#X connect 83 4 60 0;
#X connect 83 5 61 0;
#X connect 83 6 62 0;
#X connect 83 7 63 0;
#X connect 83 8 64 0;
#X connect 83 9 65 0;
#X connect 83 10 66 0;
#X connect 83 11 67 0;
#X connect 84 0 82 0;
#X connect 85 0 83 0;
#X restore 21 402 pd routing;
#X text 300 22 Load duration and mix preset \, then start automation
and playback, f 15;
#X text 697 264 Stop all players, f 10;
#X text 489 241 Sets the time the fader takes to reach it's next random
value, f 20;
#X text 321 266 Save and/or load preset, f 12;
#X obj 1931 382 read_1-16_2 5;
#X obj 1923 236 r f49 \$2;
#X obj 1924 263 r f50 \$2;
#X obj 1920 290 r f51 \$2;
#X obj 1922 315 r f52 \$2;
#X obj 2012 236 r f53 \$2;
#X obj 2012 263 r f54 \$2;
#X obj 2012 289 r f55 \$2;
#X obj 2012 315 r f56 \$2;
#X obj 2103 237 r f57 \$2;
#X obj 2102 263 r f58 \$2;
#X obj 2103 289 r f59 \$2;
#X obj 2103 315 r f60 \$2;
#X text 2249 159 This track is dedicated to the rain track, f 14;
#X text 2370 129 ...;
#X obj 23 505 netreceiver;
#X text 296 810 ...;
#N canvas 722 257 714 881 testmixer 0;
#X obj 162 141 qlist;
#X msg 250 -61 clear;
#X msg 308 -106 add2 openFile1 \, add2 symbol \, add /home/pi/jungle/day_scene_1.wav
\, add2 lineINIT1 \, add bang \, add 1000 \, add2 strtPLAYER_A1 start
\;, f 49;
#X msg 308 12 add2 openFile2 \, add2 symbol \, add /home/pi/jungle/day_scene_2.wav
\, add2 lineINIT2 \, add bang \, add 1000 \, add2 strtPLAYER_A2 start
\;, f 50;
#X msg 309 134 add2 openFile3 \, add2 symbol \, add /home/pi/jungle/day_scene_3.wav
\, add2 lineINIT3 \, add bang \, add 1000 \, add2 strtPLAYER_A3 start
\;, f 50;
#X msg 309 248 add2 openFile4 \, add2 symbol \, add /home/pi/jungle/day_scene_4.wav
\, add2 lineINIT4 \, add bang \, add 1000 \, add2 strtPLAYER_A4 start
\;, f 50;
#X msg 309 370 add2 openFile5 \, add2 symbol \, add /home/pi/jungle/day_scene_5.wav
\, add2 lineINIT5 \, add bang \, add 1000 \, add2 strtPLAYER_A5 start
\;, f 50;
#X obj 56 -101 bng 82 250 50 0 empty empty empty 17 7 0 10 -262144
-1 -1;
#X text 177 -211 ...;
#X connect 1 0 0 0;
#X connect 2 0 0 0;
#X connect 3 0 0 0;
#X connect 4 0 0 0;
#X connect 5 0 0 0;
#X connect 6 0 0 0;
#X connect 7 0 0 0;
#X restore 212 518 pd testmixer;
#X obj 696 215 s stopPlayer5;
#X text 414 481 To do:;
#X text 414 573 Integrate weather changes;
#X text 414 602 Set night timer;
#X text 414 661 Figure out how to send values from Pd to node server
;
#X text 414 631 Setup remote SSH;
#X text 414 690 Consider changing to Pd Vanilla;
#X text 414 542 Change weather API;
#X text 415 510 Update html GUI/CSS;
#X msg 490 176 120000;
#X msg 422 175 2.16e+06;
#X connect 1 0 5 0;
#X connect 3 0 2 0;
#X connect 4 0 3 0;
#X connect 8 0 7 0;
#X connect 9 0 10 0;
#X connect 10 0 8 0;
#X connect 10 1 8 0;
#X connect 13 0 12 0;
#X connect 15 0 20 0;
#X connect 18 0 17 0;
#X connect 20 0 22 0;
#X connect 20 1 17 0;
#X connect 20 2 14 0;
#X connect 20 3 117 0;
#X connect 20 4 116 0;
#X connect 25 0 14 0;
#X connect 26 0 38 0;
#X connect 27 0 38 1;
#X connect 28 0 38 2;
#X connect 29 0 38 3;
#X connect 30 0 38 4;
#X connect 31 0 38 5;
#X connect 32 0 38 6;
#X connect 33 0 38 7;
#X connect 34 0 38 8;
#X connect 35 0 38 9;
#X connect 36 0 38 10;
#X connect 37 0 38 11;
#X connect 42 0 39 3;
#X connect 43 0 39 2;
#X connect 44 0 39 1;
#X connect 45 0 39 0;
#X connect 46 0 39 4;
#X connect 47 0 39 5;
#X connect 48 0 39 6;
#X connect 49 0 39 7;
#X connect 50 0 39 8;
#X connect 51 0 39 9;
#X connect 52 0 39 10;
#X connect 53 0 39 11;
#X connect 54 0 40 0;
#X connect 55 0 40 1;
#X connect 56 0 40 2;
#X connect 57 0 40 3;
#X connect 58 0 40 4;
#X connect 59 0 40 5;
#X connect 60 0 40 6;
#X connect 61 0 40 7;
#X connect 62 0 40 8;
#X connect 63 0 40 9;
#X connect 64 0 40 10;
#X connect 65 0 40 11;
#X connect 66 0 41 0;
#X connect 67 0 41 1;
#X connect 68 0 41 2;
#X connect 69 0 41 3;
#X connect 70 0 41 4;
#X connect 71 0 41 5;
#X connect 72 0 41 6;
#X connect 73 0 41 7;
#X connect 74 0 41 8;
#X connect 75 0 41 9;
#X connect 76 0 41 10;
#X connect 77 0 41 11;
#X connect 78 0 79 0;
#X connect 78 0 82 0;
#X connect 78 0 81 0;
#X connect 78 0 80 0;
#X connect 78 0 107 0;
#X connect 90 0 89 0;
#X connect 91 0 89 1;
#X connect 92 0 89 2;
#X connect 93 0 89 3;
#X connect 94 0 89 4;
#X connect 95 0 89 5;
#X connect 96 0 89 6;
#X connect 97 0 89 7;
#X connect 98 0 89 8;
#X connect 99 0 89 9;
#X connect 100 0 89 10;
#X connect 101 0 89 11;
#X connect 116 0 11 0;
#X connect 117 0 21 0;
