#N canvas 4 23 840 470 12;
#N canvas 365 23 813 773 mixer 0;
#X obj 500 605 r volumemp3player;
#X obj 499 654 vu 15 120 empty empty -1 -8 0 10 -66577 -1 1 0;
#X obj 264 340 dac~ 1 2 3 4;
#X obj 167 227 *~;
#X obj 244 224 *~;
#X obj 324 224 *~;
#X obj 404 223 *~;
#X msg 617 251 1;
#X obj 616 216 loadbang;
#X obj 724 298 switch~;
#X obj 697 244 t f f;
#X msg 697 329 \$1 5;
#X obj 697 354 line~;
#X obj 724 273 pipe 8;
#X obj 697 146 tgl 15 0 empty pause PAUSE/RESUME 17 7 0 10 -258112
-1 -1 0 1;
#X obj 697 214 invert;
#X obj 590 140 r pausResume;
#X obj 46 109 vsl 36 137 0 1 0 0 empty empty empty 0 -9 0 10 -262144
-1 -1 13600 1;
#X obj 170 283 *~;
#X obj 247 280 *~;
#X obj 327 280 *~;
#X obj 407 279 *~;
#X text 102 74 Volume Ambience;
#X obj 137 146 catch~ fx1;
#X obj 228 143 catch~ fx2;
#X obj 344 143 catch~ fx3;
#X obj 459 142 catch~ fx4;
#X obj 121 551 catch~ mx1;
#X obj 234 552 catch~ mx2;
#X obj 350 552 catch~ mx3;
#X obj 465 551 catch~ mx4;
#X obj 69 505 vsl 36 137 0 1 0 0 empty empty empty 0 -9 0 10 -262144
-1 -1 0 1;
#X obj 190 680 *~;
#X obj 267 677 *~;
#X obj 347 677 *~;
#X obj 427 676 *~;
#X obj 269 758 dac~ 1 2 3 4;
#X text 69 471 Volume Music;
#X msg 46 51 1;
#X obj 46 17 loadbang;
#X connect 0 0 1 0;
#X connect 3 0 18 0;
#X connect 4 0 19 0;
#X connect 5 0 20 0;
#X connect 6 0 21 0;
#X connect 7 0 3 1;
#X connect 7 0 4 1;
#X connect 7 0 5 1;
#X connect 7 0 6 1;
#X connect 8 0 7 0;
#X connect 10 0 11 0;
#X connect 10 1 13 0;
#X connect 11 0 12 0;
#X connect 12 0 3 1;
#X connect 12 0 4 1;
#X connect 12 0 5 1;
#X connect 12 0 6 1;
#X connect 13 0 9 0;
#X connect 14 0 15 0;
#X connect 15 0 10 0;
#X connect 16 0 14 0;
#X connect 17 0 18 1;
#X connect 17 0 19 1;
#X connect 17 0 20 1;
#X connect 17 0 21 1;
#X connect 18 0 2 0;
#X connect 19 0 2 1;
#X connect 20 0 2 2;
#X connect 21 0 2 3;
#X connect 23 0 3 0;
#X connect 24 0 4 0;
#X connect 25 0 5 0;
#X connect 26 0 6 0;
#X connect 27 0 32 0;
#X connect 28 0 33 0;
#X connect 29 0 34 0;
#X connect 30 0 35 0;
#X connect 31 0 32 1;
#X connect 31 0 33 1;
#X connect 31 0 34 1;
#X connect 31 0 35 1;
#X connect 32 0 36 0;
#X connect 33 0 36 1;
#X connect 34 0 36 2;
#X connect 35 0 36 3;
#X connect 38 0 17 0;
#X connect 39 0 38 0;
#X restore 27 329 pd mixer;
#X obj 26 25 loadbang;
#X msg 23 164 \; pd dsp \$1;
#X obj 23 135 tgl 15 0 empty empty empty 17 7 0 10 -262144 -1 -1 1
1;
#X obj 24 102 loadbang;
#X obj 26 56 import mrpeach;
#N canvas 495 23 660 645 mp3player 0;
#X obj 302 316 adc~, f 5;
#X floatatom 414 439 5 0 0 0 - - -, f 5;
#X obj 394 212 vsl 15 128 0 1 0 0 empty empty empty 0 -9 0 10 -262144
-1 -1 0 1;
#X obj 306 381 *~;
#X obj 347 381 *~;
#X obj 263 510 s volumemp3player;
#X obj 263 467 pvu~;
#X obj 414 410 env~;
#X obj 397 139 r volumeMusic;
#X obj 25 338 throw~ mx1;
#X obj 26 369 throw~ mx2;
#X obj 24 409 throw~ mx3;
#X obj 25 440 throw~ mx4;
#X connect 0 0 3 0;
#X connect 0 1 4 0;
#X connect 2 0 3 1;
#X connect 2 0 4 1;
#X connect 3 0 6 0;
#X connect 3 0 7 0;
#X connect 3 0 9 0;
#X connect 3 0 11 0;
#X connect 4 0 6 0;
#X connect 4 0 10 0;
#X connect 4 0 12 0;
#X connect 6 0 5 0;
#X connect 7 0 1 0;
#X connect 8 0 2 0;
#X restore 29 256 pd mp3player;
#X obj 25 641 s pausResume;
#X obj 25 608 tgl 15 0 empty pause PAUSE/RESUME 17 7 0 10 -258112 -1
-1 0 1;
#X obj 25 537 loadbang;
#X obj 25 566 t b b;
#X obj 490 213 s mixDuration;
#X obj 571 119 s mixStop;
#X obj 571 30 bng 70 250 50 0 empty empty empty 17 7 0 10 -262144 -1
-1;
#X obj 377 239 s MP;
#X obj 208 28 bng 73 250 50 0 empty empty empty 17 7 0 10 -262144 -1
-1;
#X text 572 148 Stop all automation, f 11;
#X obj 282 240 s bringZero;
#X obj 304 203 bng 30 250 50 0 empty empty empty 17 7 0 10 -262144
-1 -1;
#X text 186 230 Bring all faders to 0, f 12;
#X obj 342 124 t b b b b b;
#X obj 437 318 s trackDuration;
#X obj 193 162 s startAutomation;
#N canvas 281 23 1159 606 faders 0;
#X obj 95 526 vsl 35 298 0 1 0 0 empty empty empty 0 -9 0 10 -262144
-1 -1 0 1;
#X obj 141 525 vsl 35 298 0 1 0 0 empty empty empty 0 -9 0 10 -262144
-1 -1 0 1;
#X obj 186 524 vsl 35 298 0 1 0 0 empty empty empty 0 -9 0 10 -262144
-1 -1 0 1;
#X obj 230 524 vsl 35 298 0 1 0 0 empty empty empty 0 -9 0 10 -262144
-1 -1 0 1;
#X obj 274 524 vsl 35 298 0 1 0 0 empty empty empty 0 -9 0 10 -262144
-1 -1 0 1;
#X obj 321 523 vsl 35 298 0 1 0 0 empty empty empty 0 -9 0 10 -262144
-1 -1 0 1;
#X obj 366 522 vsl 35 298 0 1 0 0 empty empty empty 0 -9 0 10 -262144
-1 -1 0 1;
#X obj 410 522 vsl 35 298 0 1 0 0 empty empty empty 0 -9 0 10 -262144
-1 -1 0 1;
#X obj 453 522 vsl 35 298 0 1 0 0 empty empty empty 0 -9 0 10 -262144
-1 -1 0 1;
#X obj 500 521 vsl 35 298 0 1 0 0 empty empty empty 0 -9 0 10 -262144
-1 -1 0 1;
#X obj 545 520 vsl 35 298 0 1 0 0 empty empty empty 0 -9 0 10 -262144
-1 -1 0 1;
#X obj 589 520 vsl 35 298 0 1 0 0 empty empty empty 0 -9 0 10 -262144
-1 -1 0 1;
#X obj 745 522 vsl 35 298 0 1 0 0 empty empty empty 0 -9 0 10 -262144
-1 -1 0 1;
#X obj 792 521 vsl 35 298 0 1 0 0 empty empty empty 0 -9 0 10 -262144
-1 -1 0 1;
#X obj 837 520 vsl 35 298 0 1 0 0 empty empty empty 0 -9 0 10 -262144
-1 -1 0 1;
#X obj 881 520 vsl 35 298 0 1 0 0 empty empty empty 0 -9 0 10 -262144
-1 -1 0 1;
#X obj 96 482 r f1 \$2;
#X obj 140 455 r f2 \$2;
#X obj 185 479 r f3 \$2;
#X obj 227 454 r f4 \$2;
#X obj 275 480 r f5 \$2;
#X obj 321 453 r f6 \$2;
#X obj 365 477 r f7 \$2;
#X obj 407 451 r f8 \$2;
#X obj 455 477 r f9 \$2;
#X obj 499 450 r f10 \$2;
#X obj 544 475 r f11 \$2;
#X obj 585 450 r f12 \$2;
#X obj 746 478 r f13 \$2;
#X obj 791 451 r f14 \$2;
#X obj 836 476 r f15 \$2;
#X obj 882 451 r f16 \$2;
#X obj 933 520 vsl 35 298 0 1 0 0 empty empty empty 0 -9 0 10 -262144
-1 -1 0 1;
#X obj 979 520 vsl 35 298 0 1 0 0 empty empty empty 0 -9 0 10 -262144
-1 -1 0 1;
#X obj 1024 519 vsl 35 298 0 1 0 0 empty empty empty 0 -9 0 10 -262144
-1 -1 0 1;
#X obj 1068 519 vsl 35 298 0 1 0 0 empty empty empty 0 -9 0 10 -262144
-1 -1 0 1;
#X obj 1112 519 vsl 35 298 0 1 0 0 empty empty empty 0 -9 0 10 -262144
-1 -1 0 1;
#X obj 1159 518 vsl 35 298 0 1 0 0 empty empty empty 0 -9 0 10 -262144
-1 -1 0 1;
#X obj 1204 517 vsl 35 298 0 1 0 0 empty empty empty 0 -9 0 10 -262144
-1 -1 0 1;
#X obj 1248 517 vsl 35 298 0 1 0 0 empty empty empty 0 -9 0 10 -262144
-1 -1 0 1;
#X obj 1354 519 vsl 35 298 0 1 0 0 empty empty empty 0 -9 0 10 -262144
-1 -1 0 1;
#X obj 1401 518 vsl 35 298 0 1 0 0 empty empty empty 0 -9 0 10 -262144
-1 -1 0 1;
#X obj 1446 517 vsl 35 298 0 1 0 0 empty empty empty 0 -9 0 10 -262144
-1 -1 0 1;
#X obj 1490 517 vsl 35 298 0 1 0 0 empty empty empty 0 -9 0 10 -262144
-1 -1 0 1;
#X obj 1534 517 vsl 35 298 0 1 0 0 empty empty empty 0 -9 0 10 -262144
-1 -1 0 1;
#X obj 1581 516 vsl 35 298 0 1 0 0 empty empty empty 0 -9 0 10 -262144
-1 -1 0 1;
#X obj 1626 515 vsl 35 298 0 1 0 0 empty empty empty 0 -9 0 10 -262144
-1 -1 0 1;
#X obj 1670 515 vsl 35 298 0 1 0 0 empty empty empty 0 -9 0 10 -262144
-1 -1 0 1;
#X obj 934 477 r f17 \$2;
#X obj 978 450 r f18 \$2;
#X obj 1023 474 r f19 \$2;
#X obj 1065 449 r f20 \$2;
#X obj 1113 475 r f21 \$2;
#X obj 1159 448 r f22 \$2;
#X obj 1203 472 r f23 \$2;
#X obj 1245 446 r f24 \$2;
#X obj 1356 474 r f25 \$2;
#X obj 1400 447 r f26 \$2;
#X obj 1445 472 r f27 \$2;
#X obj 1486 447 r f28 \$2;
#X obj 1535 473 r f29 \$2;
#X obj 1580 446 r f30 \$2;
#X obj 1625 471 r f31 \$2;
#X obj 1671 446 r f32 \$2;
#X obj 1719 515 vsl 35 298 0 1 0 0 empty empty empty 0 -9 0 10 -262144
-1 -1 0 1;
#X obj 1765 515 vsl 35 298 0 1 0 0 empty empty empty 0 -9 0 10 -262144
-1 -1 0 1;
#X obj 1810 514 vsl 35 298 0 1 0 0 empty empty empty 0 -9 0 10 -262144
-1 -1 0 1;
#X obj 1854 514 vsl 35 298 0 1 0 0 empty empty empty 0 -9 0 10 -262144
-1 -1 0 1;
#X obj 1978 514 vsl 35 298 0 1 0 0 empty empty empty 0 -9 0 10 -262144
-1 -1 0 1;
#X obj 2025 513 vsl 35 298 0 1 0 0 empty empty empty 0 -9 0 10 -262144
-1 -1 0 1;
#X obj 2070 512 vsl 35 298 0 1 0 0 empty empty empty 0 -9 0 10 -262144
-1 -1 0 1;
#X obj 2114 512 vsl 35 298 0 1 0 0 empty empty empty 0 -9 0 10 -262144
-1 -1 0 1;
#X obj 2157 512 vsl 35 298 0 1 0 0 empty empty empty 0 -9 0 10 -262144
-1 -1 0 1;
#X obj 2204 511 vsl 35 298 0 1 0 0 empty empty empty 0 -9 0 10 -262144
-1 -1 0 1;
#X obj 2249 510 vsl 35 298 0 1 0 0 empty empty empty 0 -9 0 10 -262144
-1 -1 0 1;
#X obj 2293 510 vsl 35 298 0 1 0 0 empty empty empty 0 -9 0 10 -262144
-1 -1 0 1;
#X obj 2337 510 vsl 35 298 0 1 0 0 empty empty empty 0 -9 0 10 -262144
-1 -1 0 1;
#X obj 2384 509 vsl 35 298 0 1 0 0 empty empty empty 0 -9 0 10 -262144
-1 -1 0 1;
#X obj 2429 508 vsl 35 298 0 1 0 0 empty empty empty 0 -9 0 10 -262144
-1 -1 0 1;
#X obj 2473 508 vsl 35 298 0 1 0 0 empty empty empty 0 -9 0 10 -262144
-1 -1 0 1;
#X obj 2615 508 vsl 35 298 0 1 0 0 empty empty empty 0 -9 0 10 -262144
-1 -1 0 1;
#X obj 2661 508 vsl 35 298 0 1 0 0 empty empty empty 0 -9 0 10 -262144
-1 -1 0 1;
#X obj 2706 507 vsl 35 298 0 1 0 0 empty empty empty 0 -9 0 10 -262144
-1 -1 0 1;
#X obj 2750 507 vsl 35 298 0 1 0 0 empty empty empty 0 -9 0 10 -262144
-1 -1 0 1;
#X obj 2794 507 vsl 35 298 0 1 0 0 empty empty empty 0 -9 0 10 -262144
-1 -1 0 1;
#X obj 2841 506 vsl 35 298 0 1 0 0 empty empty empty 0 -9 0 10 -262144
-1 -1 0 1;
#X obj 2886 505 vsl 35 298 0 1 0 0 empty empty empty 0 -9 0 10 -262144
-1 -1 0 1;
#X obj 2930 505 vsl 35 298 0 1 0 0 empty empty empty 0 -9 0 10 -262144
-1 -1 0 1;
#X obj 2973 505 vsl 35 298 0 1 0 0 empty empty empty 0 -9 0 10 -262144
-1 -1 0 1;
#X obj 3020 504 vsl 35 298 0 1 0 0 empty empty empty 0 -9 0 10 -262144
-1 -1 0 1;
#X obj 3065 503 vsl 35 298 0 1 0 0 empty empty empty 0 -9 0 10 -262144
-1 -1 0 1;
#X obj 3109 503 vsl 35 298 0 1 0 0 empty empty empty 0 -9 0 10 -262144
-1 -1 0 1;
#X obj 3153 503 vsl 35 298 0 1 0 0 empty empty empty 0 -9 0 10 -262144
-1 -1 0 1;
#X obj 3200 502 vsl 35 298 0 1 0 0 empty empty empty 0 -9 0 10 -262144
-1 -1 0 1;
#X obj 3245 501 vsl 35 298 0 1 0 0 empty empty empty 0 -9 0 10 -262144
-1 -1 0 1;
#X obj 3289 501 vsl 35 298 0 1 0 0 empty empty empty 0 -9 0 10 -262144
-1 -1 0 1;
#X obj 1720 472 r f33 \$2;
#X obj 1764 445 r f34 \$2;
#X obj 1809 469 r f35 \$2;
#X obj 1851 444 r f36 \$2;
#X obj 1979 471 r f37 \$2;
#X obj 2025 443 r f38 \$2;
#X obj 2069 467 r f39 \$2;
#X obj 2111 441 r f40 \$2;
#X obj 2159 467 r f41 \$2;
#X obj 2203 440 r f42 \$2;
#X obj 2248 465 r f43 \$2;
#X obj 2289 440 r f44 \$2;
#X obj 2338 466 r f45 \$2;
#X obj 2383 439 r f46 \$2;
#X obj 2428 464 r f47 \$2;
#X obj 2474 439 r f48 \$2;
#X obj 2616 465 r f49 \$2;
#X obj 2660 438 r f50 \$2;
#X obj 2705 463 r f51 \$2;
#X obj 2747 437 r f52 \$2;
#X obj 2795 463 r f53 \$2;
#X obj 2841 436 r f54 \$2;
#X obj 2885 460 r f55 \$2;
#X obj 2927 434 r f56 \$2;
#X obj 2975 460 r f57 \$2;
#X obj 3019 433 r f58 \$2;
#X obj 3064 458 r f59 \$2;
#X obj 3105 433 r f60 \$2;
#X obj 3154 459 r f61 \$2;
#X obj 3199 432 r f62 \$2;
#X obj 3244 457 r f63 \$2;
#X obj 3290 432 r f64 \$2;
#X floatatom 90 856 5 0 127 0 - - -, f 5;
#X msg 90 926 set \$1;
#X msg 90 955 95;
#X obj 90 896 r MP;
#X obj 90 989 s mPrst1;
#X floatatom 136 856 5 0 127 0 - - -, f 5;
#X msg 136 926 set \$1;
#X obj 136 896 r MP;
#X obj 136 989 s mPrst2;
#X floatatom 180 857 5 0 127 0 - - -, f 5;
#X msg 180 927 set \$1;
#X msg 180 956 0;
#X obj 180 897 r MP;
#X floatatom 226 857 5 0 127 0 - - -, f 5;
#X msg 226 927 set \$1;
#X msg 226 956 81;
#X obj 226 897 r MP;
#X obj 180 990 s mPrst3;
#X obj 226 990 s mPrst4;
#X floatatom 269 854 5 0 127 0 - - -, f 5;
#X msg 269 924 set \$1;
#X msg 269 953 121;
#X obj 269 894 r MP;
#X floatatom 315 854 5 0 127 0 - - -, f 5;
#X msg 315 924 set \$1;
#X msg 315 953 76;
#X obj 315 894 r MP;
#X floatatom 359 855 5 0 127 0 - - -, f 5;
#X msg 359 925 set \$1;
#X msg 359 954 87;
#X obj 359 895 r MP;
#X floatatom 405 855 5 0 127 0 - - -, f 5;
#X msg 405 925 set \$1;
#X msg 405 954 95;
#X obj 405 895 r MP;
#X obj 269 987 s mPrst5;
#X obj 315 987 s mPrst6;
#X obj 359 988 s mPrst7;
#X obj 406 988 s mPrst8;
#X floatatom 449 854 5 0 127 0 - - -, f 5;
#X msg 449 924 set \$1;
#X msg 449 953 127;
#X obj 449 894 r MP;
#X floatatom 495 854 5 0 127 0 - - -, f 5;
#X msg 495 924 set \$1;
#X msg 495 953 127;
#X obj 495 894 r MP;
#X floatatom 539 855 5 0 127 0 - - -, f 5;
#X msg 539 925 set \$1;
#X msg 539 954 127;
#X obj 539 895 r MP;
#X floatatom 585 855 5 0 127 0 - - -, f 5;
#X msg 585 925 set \$1;
#X msg 585 954 127;
#X obj 585 895 r MP;
#X floatatom 740 854 5 0 127 0 - - -, f 5;
#X msg 740 924 set \$1;
#X msg 738 953 127;
#X obj 740 894 r MP;
#X floatatom 786 854 5 0 127 0 - - -, f 5;
#X msg 786 924 set \$1;
#X msg 786 953 127;
#X obj 786 894 r MP;
#X floatatom 830 855 5 0 127 0 - - -, f 5;
#X msg 830 925 set \$1;
#X msg 830 954 127;
#X obj 830 895 r MP;
#X floatatom 876 855 5 0 127 0 - - -, f 5;
#X msg 876 925 set \$1;
#X msg 876 954 127;
#X obj 876 895 r MP;
#X obj 449 987 s mPrst9;
#X obj 495 987 s mPrst10;
#X obj 539 988 s mPrst11;
#X obj 585 988 s mPrst12;
#X obj 740 987 s mPrst13;
#X obj 785 987 s mPrst14;
#X obj 830 988 s mPrst15;
#X obj 877 988 s mPrst16;
#X floatatom 928 851 5 0 127 0 - - -, f 5;
#X msg 928 921 set \$1;
#X msg 928 950 0;
#X obj 928 891 r MP;
#X floatatom 974 851 5 0 127 0 - - -, f 5;
#X msg 974 921 set \$1;
#X msg 974 950 104;
#X obj 974 891 r MP;
#X floatatom 1018 852 5 0 127 0 - - -, f 5;
#X msg 1018 922 set \$1;
#X msg 1018 951 68;
#X obj 1018 892 r MP;
#X floatatom 1064 852 5 0 127 0 - - -, f 5;
#X msg 1064 922 set \$1;
#X msg 1064 951 103;
#X obj 1064 892 r MP;
#X floatatom 1107 849 5 0 127 0 - - -, f 5;
#X msg 1107 919 set \$1;
#X msg 1107 948 109;
#X obj 1107 889 r MP;
#X floatatom 1153 849 5 0 127 0 - - -, f 5;
#X msg 1153 919 set \$1;
#X msg 1153 948 127;
#X obj 1153 889 r MP;
#X floatatom 1197 850 5 0 127 0 - - -, f 5;
#X msg 1197 920 set \$1;
#X msg 1197 949 103;
#X obj 1197 890 r MP;
#X floatatom 1243 850 5 0 127 0 - - -, f 5;
#X msg 1243 920 set \$1;
#X msg 1243 949 66;
#X obj 1243 890 r MP;
#X floatatom 1350 851 5 0 127 0 - - -, f 5;
#X msg 1350 921 set \$1;
#X msg 1350 950 121;
#X obj 1350 891 r MP;
#X floatatom 1396 851 5 0 127 0 - - -, f 5;
#X msg 1396 921 set \$1;
#X msg 1396 950 0;
#X obj 1396 891 r MP;
#X floatatom 1440 852 5 0 127 0 - - -, f 5;
#X msg 1440 922 set \$1;
#X msg 1440 951 127;
#X obj 1440 892 r MP;
#X floatatom 1486 852 5 0 127 0 - - -, f 5;
#X msg 1486 922 set \$1;
#X msg 1486 951 126;
#X obj 1486 892 r MP;
#X floatatom 1529 849 5 0 127 0 - - -, f 5;
#X msg 1529 919 set \$1;
#X msg 1529 948 127;
#X obj 1529 889 r MP;
#X floatatom 1575 849 5 0 127 0 - - -, f 5;
#X msg 1575 919 set \$1;
#X msg 1575 948 127;
#X obj 1575 889 r MP;
#X floatatom 1619 850 5 0 127 0 - - -, f 5;
#X msg 1619 920 set \$1;
#X msg 1619 949 127;
#X obj 1619 890 r MP;
#X floatatom 1665 850 5 0 127 0 - - -, f 5;
#X msg 1665 920 set \$1;
#X msg 1665 949 127;
#X obj 1665 890 r MP;
#X obj 927 984 s mPrst17;
#X obj 974 984 s mPrst18;
#X obj 1018 986 s mPrst19;
#X obj 1065 985 s mPrst20;
#X obj 1107 982 s mPrst21;
#X obj 1153 983 s mPrst22;
#X obj 1197 983 s mPrst23;
#X obj 1244 983 s mPrst24;
#X obj 1352 984 s mPrst25;
#X obj 1396 985 s mPrst126;
#X obj 1440 985 s mPrst27;
#X obj 1486 985 s mPrst28;
#X obj 1529 982 s mPrst29;
#X obj 1574 982 s mPrst30;
#X obj 1619 983 s mPrst31;
#X obj 1666 983 s mPrst32;
#X floatatom 1715 851 5 0 127 0 - - -, f 5;
#X msg 1715 921 set \$1;
#X msg 1715 950 85;
#X obj 1715 891 r MP;
#X floatatom 1761 851 5 0 127 0 - - -, f 5;
#X msg 1761 921 set \$1;
#X msg 1761 950 104;
#X obj 1761 891 r MP;
#X floatatom 1805 852 5 0 127 0 - - -, f 5;
#X msg 1805 922 set \$1;
#X msg 1805 951 68;
#X obj 1805 892 r MP;
#X floatatom 1856 852 5 0 127 0 - - -, f 5;
#X msg 1856 922 set \$1;
#X msg 1856 951 103;
#X obj 1856 892 r MP;
#X floatatom 1974 849 5 0 127 0 - - -, f 5;
#X msg 1974 919 set \$1;
#X msg 1974 948 109;
#X obj 1974 889 r MP;
#X floatatom 2020 849 5 0 127 0 - - -, f 5;
#X msg 2020 919 set \$1;
#X msg 2020 948 127;
#X obj 2020 889 r MP;
#X floatatom 2064 850 5 0 127 0 - - -, f 5;
#X msg 2064 920 set \$1;
#X msg 2064 949 103;
#X obj 2064 890 r MP;
#X floatatom 2110 850 5 0 127 0 - - -, f 5;
#X msg 2110 920 set \$1;
#X msg 2110 949 66;
#X obj 2110 890 r MP;
#X floatatom 2154 849 5 0 127 0 - - -, f 5;
#X msg 2154 919 set \$1;
#X msg 2154 948 121;
#X obj 2154 889 r MP;
#X floatatom 2200 849 5 0 127 0 - - -, f 5;
#X msg 2200 919 set \$1;
#X msg 2200 948 70;
#X obj 2200 889 r MP;
#X floatatom 2244 850 5 0 127 0 - - -, f 5;
#X msg 2244 920 set \$1;
#X msg 2244 949 127;
#X obj 2244 890 r MP;
#X floatatom 2290 850 5 0 127 0 - - -, f 5;
#X msg 2290 920 set \$1;
#X msg 2290 949 126;
#X obj 2290 890 r MP;
#X floatatom 2333 847 5 0 127 0 - - -, f 5;
#X msg 2333 917 set \$1;
#X msg 2333 946 127;
#X obj 2333 887 r MP;
#X floatatom 2379 847 5 0 127 0 - - -, f 5;
#X msg 2379 917 set \$1;
#X msg 2379 946 127;
#X obj 2379 887 r MP;
#X floatatom 2423 848 5 0 127 0 - - -, f 5;
#X msg 2423 918 set \$1;
#X msg 2423 947 127;
#X obj 2423 888 r MP;
#X floatatom 2469 848 5 0 127 0 - - -, f 5;
#X msg 2469 918 set \$1;
#X msg 2469 947 127;
#X obj 2469 888 r MP;
#X obj 1715 984 s mPrst33;
#X obj 1761 984 s mPrst34;
#X obj 1805 985 s mPrst35;
#X obj 1856 985 s mPrst36;
#X obj 1974 982 s mPrst37;
#X obj 2020 982 s mPrst38;
#X obj 2064 983 s mPrst39;
#X obj 2112 983 s mPrst40;
#X obj 2154 982 s mPrst41;
#X obj 2200 982 s mPrst42;
#X obj 2244 985 s mPrst43;
#X obj 2290 983 s mPrst44;
#X obj 2333 980 s mPrst45;
#X obj 2378 980 s mPrst46;
#X obj 2423 981 s mPrst47;
#X obj 2470 981 s mPrst48;
#X floatatom 2612 845 5 0 127 0 - - -, f 5;
#X msg 2612 915 set \$1;
#X msg 2612 944 85;
#X obj 2612 885 r MP;
#X floatatom 2658 845 5 0 127 0 - - -, f 5;
#X msg 2658 915 set \$1;
#X msg 2658 944 104;
#X obj 2658 885 r MP;
#X floatatom 2702 846 5 0 127 0 - - -, f 5;
#X msg 2702 916 set \$1;
#X msg 2702 945 68;
#X obj 2702 886 r MP;
#X floatatom 2748 846 5 0 127 0 - - -, f 5;
#X msg 2748 916 set \$1;
#X msg 2748 945 103;
#X obj 2748 886 r MP;
#X floatatom 2791 843 5 0 127 0 - - -, f 5;
#X msg 2791 913 set \$1;
#X msg 2791 942 109;
#X obj 2791 883 r MP;
#X floatatom 2837 843 5 0 127 0 - - -, f 5;
#X msg 2837 913 set \$1;
#X msg 2837 942 127;
#X obj 2837 883 r MP;
#X floatatom 2881 844 5 0 127 0 - - -, f 5;
#X msg 2881 914 set \$1;
#X msg 2881 943 103;
#X obj 2881 884 r MP;
#X floatatom 2927 844 5 0 127 0 - - -, f 5;
#X msg 2927 914 set \$1;
#X msg 2927 943 66;
#X obj 2927 884 r MP;
#X floatatom 2971 843 5 0 127 0 - - -, f 5;
#X msg 2971 913 set \$1;
#X msg 2971 942 121;
#X obj 2971 883 r MP;
#X floatatom 3017 843 5 0 127 0 - - -, f 5;
#X msg 3017 913 set \$1;
#X msg 3017 942 70;
#X obj 3017 883 r MP;
#X floatatom 3061 844 5 0 127 0 - - -, f 5;
#X msg 3061 914 set \$1;
#X msg 3061 943 127;
#X obj 3061 884 r MP;
#X floatatom 3107 844 5 0 127 0 - - -, f 5;
#X msg 3107 914 set \$1;
#X msg 3107 943 126;
#X obj 3107 884 r MP;
#X floatatom 3150 841 5 0 127 0 - - -, f 5;
#X msg 3150 911 set \$1;
#X msg 3150 940 127;
#X obj 3150 881 r MP;
#X floatatom 3196 841 5 0 127 0 - - -, f 5;
#X msg 3196 911 set \$1;
#X msg 3196 940 127;
#X obj 3196 881 r MP;
#X floatatom 3240 842 5 0 127 0 - - -, f 5;
#X msg 3240 912 set \$1;
#X msg 3240 941 127;
#X obj 3240 882 r MP;
#X floatatom 3286 842 5 0 127 0 - - -, f 5;
#X msg 3286 912 set \$1;
#X msg 3286 941 127;
#X obj 3286 882 r MP;
#X obj 2612 978 s mPrst49;
#X obj 2702 979 s mPrst51;
#X obj 2658 978 s mPrs50;
#X obj 2748 979 s mPrst52;
#X obj 2791 977 s mPrst53;
#X obj 2838 976 s mPrst54;
#X obj 2881 977 s mPrst55;
#X obj 2929 977 s mPrst56;
#X obj 2971 976 s mPrst57;
#X obj 3017 976 s mPrst58;
#X obj 3061 977 s mPrst59;
#X obj 3107 977 s mPrst60;
#X obj 3150 974 s mPrst61;
#X obj 3195 974 s mPrst62;
#X obj 3240 975 s mPrst63;
#X obj 3287 975 s mPrst64;
#X text 2616 396 Save for rain track;
#X msg 136 955 37;
#X connect 16 0 0 0;
#X connect 17 0 1 0;
#X connect 18 0 2 0;
#X connect 19 0 3 0;
#X connect 20 0 4 0;
#X connect 21 0 5 0;
#X connect 22 0 6 0;
#X connect 23 0 7 0;
#X connect 24 0 8 0;
#X connect 25 0 9 0;
#X connect 26 0 10 0;
#X connect 27 0 11 0;
#X connect 28 0 12 0;
#X connect 29 0 13 0;
#X connect 30 0 14 0;
#X connect 31 0 15 0;
#X connect 48 0 32 0;
#X connect 49 0 33 0;
#X connect 50 0 34 0;
#X connect 51 0 35 0;
#X connect 52 0 36 0;
#X connect 53 0 37 0;
#X connect 54 0 38 0;
#X connect 55 0 39 0;
#X connect 56 0 40 0;
#X connect 57 0 41 0;
#X connect 58 0 42 0;
#X connect 59 0 43 0;
#X connect 60 0 44 0;
#X connect 61 0 45 0;
#X connect 62 0 46 0;
#X connect 63 0 47 0;
#X connect 96 0 64 0;
#X connect 97 0 65 0;
#X connect 98 0 66 0;
#X connect 99 0 67 0;
#X connect 100 0 68 0;
#X connect 101 0 69 0;
#X connect 102 0 70 0;
#X connect 103 0 71 0;
#X connect 104 0 72 0;
#X connect 105 0 73 0;
#X connect 106 0 74 0;
#X connect 107 0 75 0;
#X connect 108 0 76 0;
#X connect 109 0 77 0;
#X connect 110 0 78 0;
#X connect 111 0 79 0;
#X connect 112 0 80 0;
#X connect 113 0 81 0;
#X connect 114 0 82 0;
#X connect 115 0 83 0;
#X connect 116 0 84 0;
#X connect 117 0 85 0;
#X connect 118 0 86 0;
#X connect 119 0 87 0;
#X connect 120 0 88 0;
#X connect 121 0 89 0;
#X connect 122 0 90 0;
#X connect 123 0 91 0;
#X connect 124 0 92 0;
#X connect 125 0 93 0;
#X connect 126 0 94 0;
#X connect 127 0 95 0;
#X connect 128 0 129 0;
#X connect 128 0 132 0;
#X connect 129 0 130 0;
#X connect 130 0 132 0;
#X connect 131 0 130 0;
#X connect 133 0 134 0;
#X connect 133 0 136 0;
#X connect 134 0 448 0;
#X connect 135 0 448 0;
#X connect 137 0 138 0;
#X connect 137 0 145 0;
#X connect 138 0 139 0;
#X connect 139 0 145 0;
#X connect 140 0 139 0;
#X connect 141 0 142 0;
#X connect 141 0 146 0;
#X connect 142 0 143 0;
#X connect 143 0 146 0;
#X connect 144 0 143 0;
#X connect 147 0 148 0;
#X connect 147 0 163 0;
#X connect 148 0 149 0;
#X connect 149 0 163 0;
#X connect 150 0 149 0;
#X connect 151 0 152 0;
#X connect 151 0 164 0;
#X connect 152 0 153 0;
#X connect 153 0 164 0;
#X connect 154 0 153 0;
#X connect 155 0 156 0;
#X connect 155 0 165 0;
#X connect 156 0 157 0;
#X connect 157 0 165 0;
#X connect 158 0 157 0;
#X connect 159 0 160 0;
#X connect 159 0 166 0;
#X connect 160 0 161 0;
#X connect 161 0 166 0;
#X connect 162 0 161 0;
#X connect 167 0 168 0;
#X connect 167 0 199 0;
#X connect 168 0 169 0;
#X connect 169 0 199 0;
#X connect 170 0 169 0;
#X connect 171 0 172 0;
#X connect 171 0 200 0;
#X connect 172 0 173 0;
#X connect 173 0 200 0;
#X connect 174 0 173 0;
#X connect 175 0 176 0;
#X connect 175 0 201 0;
#X connect 176 0 177 0;
#X connect 177 0 201 0;
#X connect 178 0 177 0;
#X connect 179 0 180 0;
#X connect 179 0 202 0;
#X connect 180 0 181 0;
#X connect 181 0 202 0;
#X connect 182 0 181 0;
#X connect 183 0 184 0;
#X connect 183 0 203 0;
#X connect 184 0 185 0;
#X connect 185 0 203 0;
#X connect 186 0 185 0;
#X connect 187 0 188 0;
#X connect 187 0 204 0;
#X connect 188 0 189 0;
#X connect 189 0 204 0;
#X connect 190 0 189 0;
#X connect 191 0 192 0;
#X connect 191 0 205 0;
#X connect 192 0 193 0;
#X connect 193 0 205 0;
#X connect 194 0 193 0;
#X connect 195 0 196 0;
#X connect 195 0 206 0;
#X connect 196 0 197 0;
#X connect 197 0 206 0;
#X connect 198 0 197 0;
#X connect 207 0 208 0;
#X connect 207 0 271 0;
#X connect 208 0 209 0;
#X connect 209 0 271 0;
#X connect 210 0 209 0;
#X connect 211 0 212 0;
#X connect 211 0 272 0;
#X connect 212 0 213 0;
#X connect 213 0 272 0;
#X connect 214 0 213 0;
#X connect 215 0 216 0;
#X connect 215 0 273 0;
#X connect 216 0 217 0;
#X connect 217 0 273 0;
#X connect 218 0 217 0;
#X connect 219 0 220 0;
#X connect 219 0 274 0;
#X connect 220 0 221 0;
#X connect 221 0 274 0;
#X connect 222 0 221 0;
#X connect 223 0 224 0;
#X connect 223 0 275 0;
#X connect 224 0 225 0;
#X connect 225 0 275 0;
#X connect 226 0 225 0;
#X connect 227 0 228 0;
#X connect 227 0 276 0;
#X connect 228 0 229 0;
#X connect 229 0 276 0;
#X connect 230 0 229 0;
#X connect 231 0 232 0;
#X connect 231 0 277 0;
#X connect 232 0 233 0;
#X connect 233 0 277 0;
#X connect 234 0 233 0;
#X connect 235 0 236 0;
#X connect 235 0 278 0;
#X connect 236 0 237 0;
#X connect 237 0 278 0;
#X connect 238 0 237 0;
#X connect 239 0 240 0;
#X connect 239 0 279 0;
#X connect 240 0 241 0;
#X connect 241 0 279 0;
#X connect 242 0 241 0;
#X connect 243 0 244 0;
#X connect 243 0 280 0;
#X connect 244 0 245 0;
#X connect 245 0 280 0;
#X connect 246 0 245 0;
#X connect 247 0 248 0;
#X connect 247 0 281 0;
#X connect 248 0 249 0;
#X connect 249 0 281 0;
#X connect 250 0 249 0;
#X connect 251 0 252 0;
#X connect 251 0 282 0;
#X connect 252 0 253 0;
#X connect 253 0 282 0;
#X connect 254 0 253 0;
#X connect 255 0 256 0;
#X connect 255 0 283 0;
#X connect 256 0 257 0;
#X connect 257 0 283 0;
#X connect 258 0 257 0;
#X connect 259 0 260 0;
#X connect 259 0 284 0;
#X connect 260 0 261 0;
#X connect 261 0 284 0;
#X connect 262 0 261 0;
#X connect 263 0 264 0;
#X connect 263 0 285 0;
#X connect 264 0 265 0;
#X connect 265 0 285 0;
#X connect 266 0 265 0;
#X connect 267 0 268 0;
#X connect 267 0 286 0;
#X connect 268 0 269 0;
#X connect 269 0 286 0;
#X connect 270 0 269 0;
#X connect 287 0 288 0;
#X connect 287 0 351 0;
#X connect 288 0 289 0;
#X connect 289 0 351 0;
#X connect 290 0 289 0;
#X connect 291 0 292 0;
#X connect 291 0 352 0;
#X connect 292 0 293 0;
#X connect 293 0 352 0;
#X connect 294 0 293 0;
#X connect 295 0 296 0;
#X connect 295 0 353 0;
#X connect 296 0 297 0;
#X connect 297 0 353 0;
#X connect 298 0 297 0;
#X connect 299 0 300 0;
#X connect 299 0 354 0;
#X connect 300 0 301 0;
#X connect 301 0 354 0;
#X connect 302 0 301 0;
#X connect 303 0 304 0;
#X connect 303 0 355 0;
#X connect 304 0 305 0;
#X connect 305 0 355 0;
#X connect 306 0 305 0;
#X connect 307 0 308 0;
#X connect 307 0 356 0;
#X connect 308 0 309 0;
#X connect 309 0 356 0;
#X connect 310 0 309 0;
#X connect 311 0 312 0;
#X connect 311 0 357 0;
#X connect 312 0 313 0;
#X connect 313 0 357 0;
#X connect 314 0 313 0;
#X connect 315 0 316 0;
#X connect 315 0 358 0;
#X connect 316 0 317 0;
#X connect 317 0 358 0;
#X connect 318 0 317 0;
#X connect 319 0 320 0;
#X connect 319 0 359 0;
#X connect 320 0 321 0;
#X connect 321 0 359 0;
#X connect 322 0 321 0;
#X connect 323 0 324 0;
#X connect 323 0 360 0;
#X connect 324 0 325 0;
#X connect 325 0 360 0;
#X connect 326 0 325 0;
#X connect 327 0 328 0;
#X connect 327 0 361 0;
#X connect 328 0 329 0;
#X connect 329 0 361 0;
#X connect 330 0 329 0;
#X connect 331 0 332 0;
#X connect 331 0 362 0;
#X connect 332 0 333 0;
#X connect 333 0 362 0;
#X connect 334 0 333 0;
#X connect 335 0 336 0;
#X connect 335 0 363 0;
#X connect 336 0 337 0;
#X connect 337 0 363 0;
#X connect 338 0 337 0;
#X connect 339 0 340 0;
#X connect 339 0 364 0;
#X connect 340 0 341 0;
#X connect 341 0 364 0;
#X connect 342 0 341 0;
#X connect 343 0 344 0;
#X connect 343 0 365 0;
#X connect 344 0 345 0;
#X connect 345 0 365 0;
#X connect 346 0 345 0;
#X connect 347 0 348 0;
#X connect 347 0 366 0;
#X connect 348 0 349 0;
#X connect 349 0 366 0;
#X connect 350 0 349 0;
#X connect 367 0 368 0;
#X connect 367 0 431 0;
#X connect 368 0 369 0;
#X connect 369 0 431 0;
#X connect 370 0 369 0;
#X connect 371 0 372 0;
#X connect 371 0 433 0;
#X connect 372 0 373 0;
#X connect 373 0 433 0;
#X connect 374 0 373 0;
#X connect 375 0 376 0;
#X connect 375 0 432 0;
#X connect 376 0 377 0;
#X connect 377 0 432 0;
#X connect 378 0 377 0;
#X connect 379 0 380 0;
#X connect 379 0 434 0;
#X connect 380 0 381 0;
#X connect 381 0 434 0;
#X connect 382 0 381 0;
#X connect 383 0 384 0;
#X connect 383 0 435 0;
#X connect 384 0 385 0;
#X connect 385 0 435 0;
#X connect 386 0 385 0;
#X connect 387 0 388 0;
#X connect 387 0 436 0;
#X connect 388 0 389 0;
#X connect 389 0 436 0;
#X connect 390 0 389 0;
#X connect 391 0 392 0;
#X connect 391 0 437 0;
#X connect 392 0 393 0;
#X connect 393 0 437 0;
#X connect 394 0 393 0;
#X connect 395 0 396 0;
#X connect 395 0 438 0;
#X connect 396 0 397 0;
#X connect 397 0 438 0;
#X connect 398 0 397 0;
#X connect 399 0 400 0;
#X connect 399 0 439 0;
#X connect 400 0 401 0;
#X connect 401 0 439 0;
#X connect 402 0 401 0;
#X connect 403 0 404 0;
#X connect 403 0 440 0;
#X connect 404 0 405 0;
#X connect 405 0 440 0;
#X connect 406 0 405 0;
#X connect 407 0 408 0;
#X connect 407 0 441 0;
#X connect 408 0 409 0;
#X connect 409 0 441 0;
#X connect 410 0 409 0;
#X connect 411 0 412 0;
#X connect 411 0 442 0;
#X connect 412 0 413 0;
#X connect 413 0 442 0;
#X connect 414 0 413 0;
#X connect 415 0 416 0;
#X connect 415 0 443 0;
#X connect 416 0 417 0;
#X connect 417 0 443 0;
#X connect 418 0 417 0;
#X connect 419 0 420 0;
#X connect 419 0 444 0;
#X connect 420 0 421 0;
#X connect 421 0 444 0;
#X connect 422 0 421 0;
#X connect 423 0 424 0;
#X connect 423 0 445 0;
#X connect 424 0 425 0;
#X connect 425 0 445 0;
#X connect 426 0 425 0;
#X connect 427 0 428 0;
#X connect 427 0 446 0;
#X connect 428 0 429 0;
#X connect 429 0 446 0;
#X connect 430 0 429 0;
#X connect 448 0 136 0;
#X restore 22 437 pd faders;
#N canvas 387 76 991 793 makenumbers 0;
#X obj 1337 756 urn 4;
#X obj 1337 596 bng 62 250 50 0 empty empty empty 17 7 0 10 -262144
-1 -1;
#X obj 1763 1496 f;
#X msg 1364 702 clear;
#X msg 1195 1412 2;
#X msg 1565 693 add2 \$1;
#X msg 1565 743 3 0 2;
#X obj 1565 772 list length;
#X obj 1565 801 == 4;
#X obj 1565 830 select 1;
#X msg 1512 707 set;
#X obj 1531 654 t b f;
#X msg 1198 1318 add2 \$1;
#X obj 1195 1442 list split 1;
#X msg 1121 1305 set;
#X msg 1074 1339 add2 \$1;
#X obj 1074 1292 f;
#X obj 1075 1234 t b b;
#X text 1638 692 This clears urn after list length == 4, f 16;
#X obj 1389 1179 t f b b b;
#X text 1798 1497 Bangs previous number;
#X obj 1336 1045 ==;
#X obj 1389 1151 f;
#X obj 1336 1012 t f f;
#X obj 1335 978 f;
#X obj 1336 1080 select 1;
#X obj 1337 797 t f f f f;
#X obj 1267 552 delay 10;
#X obj 1389 1116 bng 15 250 50 0 empty empty empty 17 7 0 10 -262144
-1 -1;
#X text 1316 2087 Turns on;
#X text 1686 2074 Turns off;
#X obj 1331 1859 until;
#X msg 1247 1858 clear;
#X obj 1309 1699 t b b b;
#X obj 1393 2085 qlist;
#X msg 1249 2032 bang;
#X obj 1763 2073 qlist;
#X msg 1761 1951 add2 fadeout0 \, add \$1 \, add 5000;
#X msg 1393 1954 add2 fadein2 \, add \$1 \, add 5000;
#X obj 936 577 t b b;
#X obj 940 1477 delay 100;
#X msg 936 453 stop;
#X obj 936 414 r mixStop;
#X obj 936 536 metro \$1;
#X floatatom 989 492 5 0 0 0 - - -, f 5;
#X obj 989 452 r trackDuration;
#X obj 904 379 r startAutomation;
#X text 1035 2323 ...;
#X text 1035 2323 ...;
#X text 2829 1692 ...;
#X text 2829 1692 ...;
#X text 1403 1592 Fade in track #;
#X text 1773 1692 Fade out track #;
#X obj 328 1745 qlist;
#X obj 1247 1768 delay 1000;
#X msg 387 1682 clear;
#X msg 1331 1824 12;
#X obj 1331 1893 urn 12;
#X text 1056 1694 Randomize 12 numbers. Send to "turn on" and "turn
off"., f 30;
#X msg 1036 1954 add2 \$1;
#X msg 1036 2056 4 8 1 11 3 10 9 0 5 7 6 2;
#X text 915 2026 This is the order in which the faders fade, f 15
;
#X obj 1063 1986 r rSET;
#X obj 1355 1735 s rSET;
#X obj 1537 1979 r rSET;
#X msg 1537 2013 clear;
#X msg 1063 2017 set;
#X obj 327 1533 t b b f b;
#X msg 445 1637 add2 openFile1 \, add2 symbol \, add /Users/antonsoderberg/MUSIK/day_scene_take2.wav
\, add2 lineINIT1 \, add bang \, add 1000 \, add2 strtPLAYER_A1 start
\;, f 49;
#X msg 445 1755 add2 openFile2 \, add2 symbol \, add /Users/antonsoderberg/MUSIK/day_scene_take2.wav
\, add2 lineINIT2 \, add bang \, add 1000 \, add2 strtPLAYER_A2 start
\;, f 50;
#X msg 446 1877 add2 openFile3 \, add2 symbol \, add /Users/antonsoderberg/MUSIK/day_scene_take2.wav
\, add2 lineINIT3 \, add bang \, add 1000 \, add2 strtPLAYER_A3 start
\;, f 50;
#X msg 446 1991 add2 openFile4 \, add2 symbol \, add /Users/antonsoderberg/MUSIK/day_scene_take2.wav
\, add2 lineINIT4 \, add bang \, add 1000 \, add2 strtPLAYER_A4 start
\;, f 50;
#X floatatom 583 1418 5 0 0 0 - - -, f 5;
#X obj 445 1574 route 0 1 2 3;
#X text 1421 1014 If the same number appears again \, bang [urn],
f 14;
#X obj 1176 843 list append;
#X obj 1176 876 list split 1;
#X obj 1216 912 t b f;
#X obj 1417 1796 r mixDuration;
#X obj 1392 1836 pack;
#X msg 1392 1870 set add2 fadein\$1 \, addcomma \, add2 add \, adddollar
1 \, addcomma \, add2 add \$2, f 42;
#X obj 1785 1731 r mixDuration;
#X obj 1760 1771 pack;
#X text 1822 1774 The 2nd dollarsign is the mixDuration \, in this
case how long it takes before the next fader in line (out of the 12
faders) begins to fade in/fade out., f 38;
#X msg 1761 1871 set add2 fadeout\$1 \, addcomma \, add2 add \, adddollar
1 \, addcomma \, add2 add \$2, f 42;
#X text 1046 1768 This delay is synced with the start delay that lets
the readaf buffer the audio file., f 27;
#X text 1002 845 This stores number from [urn] and outputs it when
it receives a new number from [urn]., f 23;
#X obj 584 1447 list append;
#X msg 584 1533 2 0 3 2 0 1;
#X text 668 1536 This keeps a reckord of the last tracks that were
played, f 15;
#X obj 584 1474 list split 6;
#X msg 585 1505 set \$1 \$2 \$3 \$4 \$5 \$6;
#X text 625 1112 What happens if it starts to rain?;
#X text 625 1145 I get a bang from somewhere.;
#X text 625 1178 Then that triggers track... 5?;
#X text 626 1214 Simple volume fade?;
#X text 625 1250 There should be a similar solution for night time.
;
#X connect 0 0 26 0;
#X connect 0 0 11 0;
#X connect 1 0 0 0;
#X connect 2 0 82 0;
#X connect 3 0 0 0;
#X connect 4 0 13 0;
#X connect 5 0 6 0;
#X connect 6 0 7 0;
#X connect 7 0 8 0;
#X connect 8 0 9 0;
#X connect 9 0 10 0;
#X connect 9 0 3 0;
#X connect 10 0 6 0;
#X connect 11 0 6 0;
#X connect 11 1 5 0;
#X connect 12 0 4 0;
#X connect 13 0 2 1;
#X connect 14 0 4 0;
#X connect 15 0 4 0;
#X connect 16 0 15 0;
#X connect 17 0 16 0;
#X connect 17 1 14 0;
#X connect 19 0 72 0;
#X connect 19 0 79 0;
#X connect 19 1 2 0;
#X connect 19 2 17 0;
#X connect 19 3 4 0;
#X connect 21 0 25 0;
#X connect 22 0 19 0;
#X connect 23 0 21 0;
#X connect 23 1 22 1;
#X connect 24 0 23 0;
#X connect 25 0 27 0;
#X connect 25 1 28 0;
#X connect 26 0 75 0;
#X connect 26 1 24 1;
#X connect 26 2 16 1;
#X connect 26 3 12 0;
#X connect 27 0 1 0;
#X connect 28 0 22 0;
#X connect 31 0 57 0;
#X connect 32 0 57 0;
#X connect 33 0 54 0;
#X connect 33 1 56 0;
#X connect 33 2 63 0;
#X connect 35 0 34 0;
#X connect 35 0 36 0;
#X connect 37 0 36 0;
#X connect 38 0 34 0;
#X connect 39 0 40 0;
#X connect 39 1 1 0;
#X connect 40 0 33 0;
#X connect 41 0 43 0;
#X connect 42 0 41 0;
#X connect 43 0 39 0;
#X connect 44 0 43 1;
#X connect 45 0 44 0;
#X connect 46 0 43 0;
#X connect 54 0 32 0;
#X connect 54 0 35 0;
#X connect 55 0 53 0;
#X connect 56 0 31 0;
#X connect 57 0 38 0;
#X connect 57 0 37 0;
#X connect 57 0 59 0;
#X connect 59 0 60 0;
#X connect 62 0 66 0;
#X connect 64 0 65 0;
#X connect 65 0 34 0;
#X connect 65 0 36 0;
#X connect 66 0 60 0;
#X connect 67 0 53 0;
#X connect 67 2 73 0;
#X connect 67 3 55 0;
#X connect 68 0 53 0;
#X connect 69 0 53 0;
#X connect 70 0 53 0;
#X connect 71 0 53 0;
#X connect 72 0 67 0;
#X connect 72 0 87 0;
#X connect 73 0 68 0;
#X connect 73 1 69 0;
#X connect 73 2 70 0;
#X connect 73 3 71 0;
#X connect 75 0 76 0;
#X connect 76 0 75 1;
#X connect 76 1 77 0;
#X connect 77 0 24 0;
#X connect 77 1 21 1;
#X connect 78 0 79 1;
#X connect 79 0 80 0;
#X connect 80 0 38 0;
#X connect 81 0 82 1;
#X connect 82 0 84 0;
#X connect 84 0 37 0;
#X connect 87 0 90 0;
#X connect 90 0 91 0;
#X connect 90 0 87 1;
#X connect 90 2 87 1;
#X connect 91 0 88 0;
#X restore 22 474 pd makenumbers;
#X obj 388 200 bng 32 250 50 0 empty empty empty 17 7 0 10 -262144
-1 -1;
#X obj 863 238 r f1 \$2;
#X obj 863 265 r f2 \$2;
#X obj 863 291 r f3 \$2;
#X obj 863 317 r f4 \$2;
#X obj 953 238 r f5 \$2;
#X obj 953 265 r f6 \$2;
#X obj 953 291 r f7 \$2;
#X obj 953 317 r f8 \$2;
#X obj 1044 238 r f9 \$2;
#X obj 1044 265 r f10 \$2;
#X obj 1044 291 r f11 \$2;
#X obj 1044 317 r f12 \$2;
#X obj 872 385 read_1-16_2 1;
#X obj 1139 384 read_1-16_2 2;
#X obj 1402 384 read_1-16_2 3;
#X obj 1670 382 read_1-16_2 4;
#X obj 1130 317 r f16 \$2;
#X obj 1130 292 r f15 \$2;
#X obj 1130 264 r f14 \$2;
#X obj 1130 237 r f13 \$2;
#X obj 1220 237 r f17 \$2;
#X obj 1220 264 r f18 \$2;
#X obj 1220 290 r f19 \$2;
#X obj 1219 317 r f20 \$2;
#X obj 1311 237 r f21 \$2;
#X obj 1311 264 r f22 \$2;
#X obj 1311 290 r f23 \$2;
#X obj 1311 316 r f24 \$2;
#X obj 1393 237 r f25 \$2;
#X obj 1393 265 r f26 \$2;
#X obj 1393 290 r f27 \$2;
#X obj 1393 318 r f28 \$2;
#X obj 1483 237 r f29 \$2;
#X obj 1483 264 r f30 \$2;
#X obj 1483 290 r f31 \$2;
#X obj 1483 316 r f32 \$2;
#X obj 1574 237 r f33 \$2;
#X obj 1574 265 r f34 \$2;
#X obj 1574 290 r f35 \$2;
#X obj 1574 316 r f36 \$2;
#X obj 1662 236 r f37 \$2;
#X obj 1661 263 r f38 \$2;
#X obj 1659 290 r f39 \$2;
#X obj 1661 315 r f40 \$2;
#X obj 1751 236 r f41 \$2;
#X obj 1751 263 r f42 \$2;
#X obj 1751 289 r f43 \$2;
#X obj 1751 315 r f44 \$2;
#X obj 1842 237 r f45 \$2;
#X obj 1841 263 r f46 \$2;
#X obj 1842 289 r f47 \$2;
#X obj 1842 315 r f48 \$2;
#X obj 697 30 bng 68 250 50 0 empty empty empty 17 7 0 10 -262144 -1
-1;
#X obj 695 105 s stopPlayer1;
#X obj 695 132 s stopPlayer2;
#X obj 696 160 s stopPlayer3;
#X obj 696 188 s stopPlayer4;
#X text 437 347 Sets how long until next track starts fading in.,
f 15;
#N canvas 495 23 918 507 routing 1;
#X obj 238 217 r fadeout0;
#X obj 569 213 r fadein0;
#X obj 110 315 faders3 1;
#X obj 111 343 faders3 2;
#X obj 111 375 faders3 3;
#X obj 109 405 faders3 4;
#X obj 109 437 faders3 5;
#X obj 110 465 faders3 6;
#X obj 110 497 faders3 7;
#X obj 110 527 faders3 8;
#X obj 108 557 faders3 9;
#X obj 109 585 faders3 10;
#X obj 109 617 faders3 11;
#X obj 109 647 faders3 12;
#X obj 910 305 faders3 13;
#X obj 911 333 faders3 14;
#X obj 911 365 faders3 15;
#X obj 911 395 faders3 16;
#X obj 1018 221 r fadeout1;
#X obj 1349 215 r fadein1;
#X obj 911 427 faders3 17;
#X obj 912 455 faders3 18;
#X obj 913 487 faders3 19;
#X obj 911 517 faders3 20;
#X obj 910 549 faders3 21;
#X obj 911 577 faders3 22;
#X obj 912 609 faders3 23;
#X obj 912 639 faders3 24;
#X obj 1703 322 faders3 25;
#X obj 1704 349 faders3 26;
#X obj 1704 381 faders3 27;
#X obj 1704 411 faders3 28;
#X obj 1703 444 faders3 29;
#X obj 1703 472 faders3 30;
#X obj 1703 505 faders3 31;
#X obj 1703 535 faders3 32;
#X obj 1703 566 faders3 33;
#X obj 1704 594 faders3 34;
#X obj 1705 626 faders3 35;
#X obj 1705 656 faders3 36;
#X obj 2469 328 faders3 37;
#X obj 2470 356 faders3 38;
#X obj 2471 388 faders3 39;
#X obj 2469 418 faders3 40;
#X obj 2468 450 faders3 41;
#X obj 2469 476 faders3 42;
#X obj 2469 508 faders3 43;
#X obj 2470 539 faders3 44;
#X obj 2468 571 faders3 45;
#X obj 2468 599 faders3 46;
#X obj 2469 631 faders3 47;
#X obj 2469 662 faders3 48;
#X obj 1802 217 r fadeout2;
#X obj 2133 213 r fadein2;
#X obj 2568 216 r fadeout3;
#X obj 2899 212 r fadein3;
#X obj 3217 319 faders3 49;
#X obj 3218 347 faders3 50;
#X obj 3219 379 faders3 51;
#X obj 3218 410 faders3 52;
#X obj 3216 441 faders3 53;
#X obj 3217 469 faders3 54;
#X obj 3218 501 faders3 55;
#X obj 3216 531 faders3 56;
#X obj 3215 563 faders3 57;
#X obj 3216 589 faders3 58;
#X obj 3216 621 faders3 59;
#X obj 3217 652 faders3 60;
#X obj 3215 684 faders3 61;
#X obj 2819 771 faders3 62;
#X obj 2820 803 faders3 63;
#X obj 2820 834 faders3 64;
#X obj 238 265 route 0 1 2 3 4 5 6 7 8 9 10 11;
#X obj 569 265 route 0 1 2 3 4 5 6 7 8 9 10 11;
#X obj 1018 267 route 0 1 2 3 4 5 6 7 8 9 10 11;
#X obj 1349 267 route 0 1 2 3 4 5 6 7 8 9 10 11;
#X obj 1802 265 route 0 1 2 3 4 5 6 7 8 9 10 11;
#X obj 2133 265 route 0 1 2 3 4 5 6 7 8 9 10 11;
#X obj 2568 264 route 0 1 2 3 4 5 6 7 8 9 10 11;
#X obj 2899 264 route 0 1 2 3 4 5 6 7 8 9 10 11;
#X text 3450 382 ...;
#X text 3220 281 Rain track;
#X obj 3336 272 bng 15 250 50 0 empty empty empty 17 7 0 10 -262144
-1 -1;
#X connect 0 0 72 0;
#X connect 1 0 73 0;
#X connect 18 0 74 0;
#X connect 19 0 75 0;
#X connect 52 0 76 0;
#X connect 53 0 77 0;
#X connect 54 0 78 0;
#X connect 55 0 79 0;
#X connect 72 0 2 1;
#X connect 72 1 3 1;
#X connect 72 2 4 1;
#X connect 72 3 5 1;
#X connect 72 4 6 1;
#X connect 72 5 7 1;
#X connect 72 6 8 1;
#X connect 72 7 9 1;
#X connect 72 8 10 1;
#X connect 72 9 11 1;
#X connect 72 10 12 1;
#X connect 72 11 13 1;
#X connect 73 0 2 0;
#X connect 73 1 3 0;
#X connect 73 2 4 0;
#X connect 73 3 5 0;
#X connect 73 4 6 0;
#X connect 73 5 7 0;
#X connect 73 6 8 0;
#X connect 73 7 9 0;
#X connect 73 8 10 0;
#X connect 73 9 11 0;
#X connect 73 10 12 0;
#X connect 73 11 13 0;
#X connect 74 0 14 1;
#X connect 74 1 15 1;
#X connect 74 2 16 1;
#X connect 74 3 17 1;
#X connect 74 4 20 1;
#X connect 74 5 21 1;
#X connect 74 6 22 1;
#X connect 74 7 23 1;
#X connect 74 8 24 1;
#X connect 74 9 25 1;
#X connect 74 10 26 1;
#X connect 74 11 27 1;
#X connect 75 0 14 0;
#X connect 75 1 15 0;
#X connect 75 2 16 0;
#X connect 75 3 17 0;
#X connect 75 4 20 0;
#X connect 75 5 21 0;
#X connect 75 6 22 0;
#X connect 75 7 23 0;
#X connect 75 8 24 0;
#X connect 75 9 25 0;
#X connect 75 10 26 0;
#X connect 75 11 27 0;
#X connect 76 0 28 1;
#X connect 76 1 29 1;
#X connect 76 2 30 1;
#X connect 76 3 31 1;
#X connect 76 4 32 1;
#X connect 76 5 33 1;
#X connect 76 6 34 1;
#X connect 76 7 35 1;
#X connect 76 8 36 1;
#X connect 76 9 37 1;
#X connect 76 10 38 1;
#X connect 76 11 39 1;
#X connect 77 0 28 0;
#X connect 77 1 29 0;
#X connect 77 2 30 0;
#X connect 77 3 31 0;
#X connect 77 4 32 0;
#X connect 77 5 33 0;
#X connect 77 6 34 0;
#X connect 77 7 35 0;
#X connect 77 8 36 0;
#X connect 77 9 37 0;
#X connect 77 10 38 0;
#X connect 77 11 39 0;
#X connect 78 0 40 1;
#X connect 78 1 41 1;
#X connect 78 2 42 1;
#X connect 78 3 43 1;
#X connect 78 4 44 1;
#X connect 78 5 45 1;
#X connect 78 6 46 1;
#X connect 78 7 47 1;
#X connect 78 8 48 1;
#X connect 78 9 49 1;
#X connect 78 10 50 1;
#X connect 78 11 51 1;
#X connect 79 0 40 0;
#X connect 79 1 41 0;
#X connect 79 2 42 0;
#X connect 79 3 43 0;
#X connect 79 4 44 0;
#X connect 79 5 45 0;
#X connect 79 6 46 0;
#X connect 79 7 47 0;
#X connect 79 8 48 0;
#X connect 79 9 49 0;
#X connect 79 10 50 0;
#X connect 79 11 51 0;
#X connect 82 0 56 1;
#X connect 82 0 68 1;
#X connect 82 0 67 1;
#X connect 82 0 66 1;
#X connect 82 0 65 1;
#X connect 82 0 64 1;
#X connect 82 0 63 1;
#X connect 82 0 62 1;
#X connect 82 0 61 1;
#X connect 82 0 60 1;
#X connect 82 0 59 1;
#X connect 82 0 58 1;
#X connect 82 0 57 1;
#X restore 21 402 pd routing;
#X text 300 22 Load duration and mix preset \, then start automation
and playback, f 15;
#X text 697 217 Stop all players, f 10;
#X text 489 241 Sets the time the fader takes to reach it's next random
value, f 20;
#X text 321 266 Save and/or load preset, f 12;
#X obj 1931 382 read_1-16_2 5;
#X obj 1923 236 r f49 \$2;
#X obj 1922 264 r f50 \$2;
#X obj 1920 290 r f51 \$2;
#X obj 1922 315 r f52 \$2;
#X obj 2012 236 r f53 \$2;
#X obj 2012 263 r f54 \$2;
#X obj 2012 289 r f55 \$2;
#X obj 2012 315 r f56 \$2;
#X obj 2103 237 r f57 \$2;
#X obj 2102 263 r f58 \$2;
#X obj 2103 289 r f59 \$2;
#X obj 2103 315 r f60 \$2;
#X text 1924 166 This track is dedicated to the rain track, f 14;
#X text 2370 129 ...;
#X obj 23 505 netreceiver;
#X text 296 810 ...;
#X msg 490 176 5000;
#X msg 436 175 70000;
#X connect 1 0 5 0;
#X connect 3 0 2 0;
#X connect 4 0 3 0;
#X connect 8 0 7 0;
#X connect 9 0 10 0;
#X connect 10 0 8 0;
#X connect 10 1 8 0;
#X connect 13 0 12 0;
#X connect 15 0 20 0;
#X connect 18 0 17 0;
#X connect 20 0 22 0;
#X connect 20 1 17 0;
#X connect 20 2 14 0;
#X connect 20 3 107 0;
#X connect 20 4 106 0;
#X connect 25 0 14 0;
#X connect 26 0 38 0;
#X connect 27 0 38 1;
#X connect 28 0 38 2;
#X connect 29 0 38 3;
#X connect 30 0 38 4;
#X connect 31 0 38 5;
#X connect 32 0 38 6;
#X connect 33 0 38 7;
#X connect 34 0 38 8;
#X connect 35 0 38 9;
#X connect 36 0 38 10;
#X connect 37 0 38 11;
#X connect 42 0 39 3;
#X connect 43 0 39 2;
#X connect 44 0 39 1;
#X connect 45 0 39 0;
#X connect 46 0 39 4;
#X connect 47 0 39 5;
#X connect 48 0 39 6;
#X connect 49 0 39 7;
#X connect 50 0 39 8;
#X connect 51 0 39 9;
#X connect 52 0 39 10;
#X connect 53 0 39 11;
#X connect 54 0 40 0;
#X connect 55 0 40 1;
#X connect 56 0 40 2;
#X connect 57 0 40 3;
#X connect 58 0 40 4;
#X connect 59 0 40 5;
#X connect 60 0 40 6;
#X connect 61 0 40 7;
#X connect 62 0 40 8;
#X connect 63 0 40 9;
#X connect 64 0 40 10;
#X connect 65 0 40 11;
#X connect 66 0 41 0;
#X connect 67 0 41 1;
#X connect 68 0 41 2;
#X connect 69 0 41 3;
#X connect 70 0 41 4;
#X connect 71 0 41 5;
#X connect 72 0 41 6;
#X connect 73 0 41 7;
#X connect 74 0 41 8;
#X connect 75 0 41 9;
#X connect 76 0 41 10;
#X connect 77 0 41 11;
#X connect 78 0 79 0;
#X connect 78 0 82 0;
#X connect 78 0 81 0;
#X connect 78 0 80 0;
#X connect 90 0 89 0;
#X connect 91 0 89 1;
#X connect 92 0 89 2;
#X connect 93 0 89 3;
#X connect 94 0 89 4;
#X connect 95 0 89 5;
#X connect 96 0 89 6;
#X connect 97 0 89 7;
#X connect 98 0 89 8;
#X connect 99 0 89 9;
#X connect 100 0 89 10;
#X connect 101 0 89 11;
#X connect 106 0 11 0;
#X connect 107 0 21 0;
