#N canvas 798 67 664 474 12;
#X obj 191 241 switchertest 1;
#X obj 307 242 switchertest 2;
#X obj 430 240 switchertest 3;
#X obj 299 166 r switchON2;
#X obj 181 116 r switchOFF1;
#X obj 38 200 print switchOFF1;
#X msg 181 163 1;
#X msg 226 164 0;
#X connect 4 0 5 0;
#X connect 4 0 7 0;
#X connect 6 0 0 0;
#X connect 7 0 0 0;
